<?xml version="1.0" encoding="utf-8"?>
<!-- Generator: Adobe Illustrator 27.5.0, SVG Export Plug-In . SVG Version: 6.00 Build 0)  -->
<svg version="1.1" xmlns="http://www.w3.org/2000/svg" xmlns:xlink="http://www.w3.org/1999/xlink" x="0px" y="0px"
	 viewBox="0 0 500 500" style="enable-background:new 0 0 500 500;" xml:space="preserve">
<g id="Background_Complete">
	<g>
		<rect y="382.398" style="fill:#EBEBEB;" width="500" height="0.25"/>
		<rect x="393.106" y="398.619" style="fill:#EBEBEB;" width="16.561" height="0.25"/>
		<rect x="329.194" y="394.986" style="fill:#EBEBEB;" width="37.806" height="0.25"/>
		<rect x="265" y="389.208" style="fill:#EBEBEB;" width="69.081" height="0.25"/>
		<rect x="52.459" y="390.888" style="fill:#EBEBEB;" width="12.693" height="0.25"/>
		<rect x="74.056" y="390.888" style="fill:#EBEBEB;" width="36.833" height="0.25"/>
		<rect x="152.333" y="395.111" style="fill:#EBEBEB;" width="59.529" height="0.25"/>
		<path style="fill:#EBEBEB;" d="M237.014,337.8H43.915c-3.147,0-5.708-2.561-5.708-5.708V60.66c0-3.147,2.561-5.708,5.708-5.708
			h193.099c3.146,0,5.707,2.561,5.707,5.708v271.432C242.721,335.239,240.16,337.8,237.014,337.8z M43.915,55.203
			c-3.01,0-5.458,2.448-5.458,5.458v271.432c0,3.01,2.448,5.458,5.458,5.458h193.099c3.009,0,5.457-2.448,5.457-5.458V60.66
			c0-3.009-2.448-5.458-5.457-5.458H43.915z"/>
		<path style="fill:#EBEBEB;" d="M453.31,337.8H260.212c-3.147,0-5.707-2.561-5.707-5.708V60.66c0-3.147,2.561-5.708,5.707-5.708
			H453.31c3.148,0,5.708,2.561,5.708,5.708v271.432C459.019,335.239,456.458,337.8,453.31,337.8z M260.212,55.203
			c-3.009,0-5.457,2.448-5.457,5.458v271.432c0,3.01,2.448,5.458,5.457,5.458H453.31c3.01,0,5.458-2.448,5.458-5.458V60.66
			c0-3.009-2.448-5.458-5.458-5.458H260.212z"/>
	</g>
	<g>
		<g>
			<g>
				<g>
					
						<rect x="59.084" y="300.539" transform="matrix(-1 -1.224647e-16 1.224647e-16 -1 163.0067 682.9369)" style="fill:#E6E6E6;" width="44.839" height="81.86"/>
					<polygon style="fill:#F0F0F0;" points="63.594,382.398 59.084,382.398 59.084,372.164 68.323,372.164 					"/>
					
						<rect x="184.754" y="300.539" transform="matrix(-1 -1.224647e-16 1.224647e-16 -1 414.3461 682.9369)" style="fill:#E6E6E6;" width="44.839" height="81.86"/>
					
						<rect x="59.084" y="300.539" transform="matrix(-1 -1.224647e-16 1.224647e-16 -1 247.7738 679.3118)" style="fill:#F0F0F0;" width="129.606" height="78.235"/>
					<polygon style="fill:#F0F0F0;" points="184.18,382.398 188.69,382.398 188.69,372.164 179.451,372.164 					"/>
					
						<rect x="62.583" y="305.432" transform="matrix(-1 -1.224647e-16 1.224647e-16 -1 247.7738 642.4322)" style="fill:#E6E6E6;" width="122.608" height="31.569"/>
					<path style="fill:#F0F0F0;" d="M115.71,315.242h16.353c7.103,0,13.894-3.895,18.779-10.77l0,0H96.93l0,0
						C101.816,311.348,108.607,315.242,115.71,315.242z"/>
					
						<rect x="62.583" y="342.103" transform="matrix(-1 -1.224647e-16 1.224647e-16 -1 247.7738 715.7737)" style="fill:#E6E6E6;" width="122.608" height="31.569"/>
					<path style="fill:#F0F0F0;" d="M115.71,351.913h16.353c7.103,0,13.894-3.895,18.779-10.77l0,0H96.93l0,0
						C101.816,348.018,108.607,351.913,115.71,351.913z"/>
				</g>
			</g>
		</g>
		<g>
			<g>
				
					<rect x="94.939" y="81.985" transform="matrix(-1 -1.224647e-16 1.224647e-16 -1 509.1193 282.2304)" style="fill:#E6E6E6;" width="319.241" height="118.261"/>
				<path style="fill:#E6E6E6;" d="M80.503,77.384H422.9c0.739,0,1.337,0.599,1.337,1.337l0,0c0,0.739-0.599,1.337-1.337,1.337
					H80.503c-0.739,0-1.337-0.599-1.337-1.337l0,0C79.165,77.983,79.764,77.384,80.503,77.384z"/>
				
					<rect x="89.223" y="81.985" transform="matrix(-1 -1.224647e-16 1.224647e-16 -1 500.7322 282.2304)" style="fill:#F0F0F0;" width="322.286" height="118.261"/>
				<polygon style="fill:#E6E6E6;" points="94.939,200.246 414.18,200.246 414.18,204.034 91.001,204.034 				"/>
				<polygon style="fill:#F0F0F0;" points="79.7,200.246 401.986,200.246 398.048,204.034 75.762,204.034 				"/>
				
					<rect x="199.238" y="-12.025" transform="matrix(-1.836970e-16 1 -1 -1.836970e-16 391.4814 -109.2509)" style="fill:#FAFAFA;" width="102.256" height="306.281"/>
				<polygon style="fill:#FFFFFF;" points="360.827,192.243 343.94,89.987 321.768,89.987 338.655,192.243 				"/>
				<polygon style="fill:#FFFFFF;" points="196.16,192.243 179.273,89.987 157.101,89.987 173.988,192.243 				"/>
				<polygon style="fill:#FFFFFF;" points="333.892,192.243 317.005,89.987 308.361,89.987 325.248,192.243 				"/>
				
					<rect x="46.606" y="140.607" transform="matrix(-1.836970e-16 1 -1 -1.836970e-16 238.849 43.3815)" style="fill:#E6E6E6;" width="102.256" height="1.016"/>
			</g>
			<g style="opacity:0.4;">
				
					<rect x="384.655" y="74.992" transform="matrix(-1 -1.224647e-16 1.224647e-16 -1 801.8413 320.9918)" style="fill:#F0F0F0;" width="32.532" height="171.009"/>
				
					<rect x="398.048" y="74.991" transform="matrix(-1 -1.224647e-16 1.224647e-16 -1 806.8256 320.9904)" style="fill:#E6E6E6;" width="10.73" height="171.009"/>
				
					<rect x="352.123" y="74.992" transform="matrix(-1 -1.224647e-16 1.224647e-16 -1 736.7772 320.9918)" style="fill:#F0F0F0;" width="32.532" height="171.009"/>
				
					<rect x="384.275" y="74.991" transform="matrix(-1 -1.224647e-16 1.224647e-16 -1 779.28 320.9904)" style="fill:#E6E6E6;" width="10.73" height="171.009"/>
				
					<rect x="319.591" y="74.992" transform="matrix(-1 -1.224647e-16 1.224647e-16 -1 671.7131 320.9918)" style="fill:#F0F0F0;" width="32.532" height="171.009"/>
			</g>
			<g style="opacity:0.4;">
				
					<rect x="102.351" y="74.991" transform="matrix(-1 -1.224647e-16 1.224647e-16 -1 212.6382 320.9904)" style="fill:#F0F0F0;" width="7.937" height="171.009"/>
				
					<rect x="99.259" y="74.991" transform="matrix(-1 -1.224647e-16 1.224647e-16 -1 204.7014 320.9904)" style="fill:#E6E6E6;" width="6.183" height="171.009"/>
				
					<rect x="94.414" y="74.991" transform="matrix(-1 -1.224647e-16 1.224647e-16 -1 196.7646 320.9904)" style="fill:#F0F0F0;" width="7.937" height="171.009"/>
				
					<rect x="91.322" y="74.991" transform="matrix(-1 -1.224647e-16 1.224647e-16 -1 188.8279 320.9904)" style="fill:#E6E6E6;" width="6.183" height="171.009"/>
				
					<rect x="86.477" y="74.991" transform="matrix(-1 -1.224647e-16 1.224647e-16 -1 180.891 320.9904)" style="fill:#F0F0F0;" width="7.937" height="171.009"/>
			</g>
		</g>
		<g>
			<g>
				<g>
					
						<rect x="394.991" y="272.333" transform="matrix(-1 -1.224647e-16 1.224647e-16 -1 834.1979 551.8643)" style="fill:#E6E6E6;" width="44.215" height="7.198"/>
					
						<rect x="394.991" y="279.531" transform="matrix(-1 -1.224647e-16 1.224647e-16 -1 828.7063 653.3518)" style="fill:#EBEBEB;" width="38.723" height="94.29"/>
					<rect x="273.181" y="279.531" style="fill:#F5F5F5;" width="121.81" height="94.29"/>
					<path style="fill:#EBEBEB;" d="M386.578,363.847H281.595v-74.341h104.982V363.847z M282.635,362.807h102.902v-72.261H282.635
						V362.807z"/>
					<path style="fill:#EBEBEB;" d="M369.674,302.247c0,2.298,1.863,4.161,4.161,4.161c2.298,0,4.161-1.863,4.161-4.161
						c0-2.298-1.863-4.161-4.161-4.161C371.537,298.087,369.674,299.95,369.674,302.247z"/>
					<rect x="273.181" y="279.531" style="fill:#E0E0E0;" width="160.533" height="1.67"/>
					<rect x="267.69" y="272.333" style="fill:#F0F0F0;" width="127.302" height="7.198"/>
					<polygon style="fill:#EBEBEB;" points="433.715,373.821 433.715,382.398 418.34,373.821 					"/>
					<polygon style="fill:#F5F5F5;" points="394.991,373.821 394.991,382.398 379.616,373.821 					"/>
					<polygon style="fill:#F5F5F5;" points="273.181,373.821 273.181,382.398 288.556,373.821 					"/>
					<polygon style="fill:#EBEBEB;" points="394.991,373.821 394.991,382.398 410.367,373.821 					"/>
					<polygon style="fill:#EBEBEB;" points="311.905,373.821 311.905,382.398 327.28,373.821 					"/>
					<polygon style="fill:#EBEBEB;" points="311.905,373.821 311.905,382.398 296.53,373.821 					"/>
				</g>
			</g>
			<g>
				
					<rect x="379.891" y="231.975" transform="matrix(-1 -1.224647e-16 1.224647e-16 -1 770.1954 504.3087)" style="fill:#E6E6E6;" width="10.414" height="40.358"/>
				<polygon style="fill:#E0E0E0;" points="351.654,272.333 386.218,272.333 391.438,225.097 356.874,225.097 				"/>
				<polygon style="fill:#E6E6E6;" points="347.911,272.333 383.613,272.333 388.833,225.097 353.131,225.097 				"/>
				<polygon style="fill:#FFFFFF;" points="381.033,268.611 385.43,228.82 355.71,228.82 351.313,268.611 				"/>
			</g>
		</g>
	</g>
</g>
<g id="Background_Simple" style="display:none;">
	<g style="display:inline;">
		<path style="fill:#407BFF;" d="M278.706,148.747c35.914,3.393,74.096-8.601,101.568,23.095
			c21.28,24.552,18.324,61.398,0.905,87.101c-42.701,63.008-156.137,61.355-217.71,31.868
			c-60.585-29.014-89.572-129.121-32.099-177.002c22.797-18.992,62.218-25.743,86.911-6.598
			C240.977,124.808,244.21,145.488,278.706,148.747z"/>
		<path style="opacity:0.9;fill:#FFFFFF;" d="M278.706,148.747c35.914,3.393,74.096-8.601,101.568,23.095
			c21.28,24.552,18.324,61.398,0.905,87.101c-42.701,63.008-156.137,61.355-217.71,31.868
			c-60.585-29.014-89.572-129.121-32.099-177.002c22.797-18.992,62.218-25.743,86.911-6.598
			C240.977,124.808,244.21,145.488,278.706,148.747z"/>
	</g>
</g>
<g id="Shadow_1_">
	<ellipse id="_x3C_Path_x3E__22_" style="fill:#F5F5F5;" cx="250" cy="416.238" rx="193.889" ry="11.323"/>
</g>
<g id="Like">
	<g>
		<g>
			<g>
				<path style="fill:#407BFF;" d="M101.028,304.757c0-12.236,9.919-22.154,22.154-22.154h1.664
					c-11.288,0-20.781-8.562-21.875-19.873c-1.278-13.216,9.134-24.079,22.411-24.079h10.668l77.304-7.158
					c6.885-0.638,11.862-6.859,10.961-13.714c-1.325-10.08-2.633-22.52-2.985-34.302c-0.775-25.972,16.395-57.998,40.314-46.516
					c9.691,4.652,3.877,36.879,8.528,49.644c4.101,11.255,39.19,41.872,56.003,67.242c4.447,6.71,10.744,11.977,18.164,15.096
					v118.044l-7.936,7.937c-12.506,12.506-29.469,19.532-47.156,19.532H149.667c-11.258,0-21.087-8.239-22.4-19.42
					c-1.531-13.04,8.66-24.532,21.826-24.532h-15.661c-11.257,0-21.087-8.238-22.4-19.419c-1.531-13.041,8.66-24.532,21.827-24.532
					h-10.033C110.787,326.553,101.028,316.795,101.028,304.757z"/>
			</g>
			<path style="opacity:0.6;fill:#FFFFFF;" d="M101.028,304.757c0-12.236,9.919-22.154,22.154-22.154h1.664
				c-11.288,0-20.781-8.562-21.875-19.873c-1.278-13.216,9.134-24.079,22.411-24.079h10.668l77.304-7.158
				c6.885-0.638,11.862-6.859,10.961-13.714c-1.325-10.08-2.633-22.52-2.985-34.302c-0.775-25.972,16.395-57.998,40.314-46.516
				c9.691,4.652,3.877,36.879,8.528,49.644c4.101,11.255,39.19,41.872,56.003,67.242c4.447,6.71,10.744,11.977,18.164,15.096
				v118.044l-7.936,7.937c-12.506,12.506-29.469,19.532-47.156,19.532H149.667c-11.258,0-21.087-8.239-22.4-19.42
				c-1.531-13.04,8.66-24.532,21.826-24.532h-15.661c-11.257,0-21.087-8.238-22.4-19.419c-1.531-13.041,8.66-24.532,21.827-24.532
				h-10.033C110.787,326.553,101.028,316.795,101.028,304.757z"/>
		</g>
		<g>
			<g>
				<rect x="408.999" y="309.407" style="fill:#407BFF;" width="1.146" height="5.502"/>
				<rect x="408.999" y="291.827" style="fill:#407BFF;" width="1.146" height="13.167"/>
			</g>
			<path style="fill:#407BFF;" d="M393.6,247.752h-45.247c-6.921,0-12.532,5.611-12.532,12.532v141.64
				c0,6.921,5.611,12.532,12.532,12.532H393.6c6.921,0,12.532-5.611,12.532-12.532v-141.64
				C406.132,253.363,400.521,247.752,393.6,247.752z"/>
		</g>
		<path style="opacity:0.1;" d="M223.555,223.859c-1.628,4.116-5.469,7.189-10.204,7.636l-32.034,2.97
			c-2.557,2.179-4.506,4.151-5.813,5.446c-5.423,5.412-19.01,27.001,4.758,50.838C195.728,306.25,226.272,238.558,223.555,223.859z"
			/>
	</g>
</g>
<g id="Character_1_">
	<g>
		<g>
			<path style="fill:#7F3E3B;" d="M187.553,170.129l-2.85,12.052c-0.931,4.019-1.881,8.036-2.729,12.022
				c-0.217,0.996-0.423,1.989-0.613,2.976l-0.244,1.299c-0.063,0.404-0.101,0.823-0.145,1.249c-0.14,1.717-0.03,3.576,0.19,5.467
				c0.481,3.769,1.462,7.757,2.626,11.514l-3.839,1.921c-2.398-3.767-4.21-7.69-5.444-12.074c-0.604-2.188-1.017-4.485-1.113-6.935
				c-0.02-0.616-0.011-1.237,0.024-1.869c0.039-0.635,0.107-1.308,0.176-1.795c0.132-1.071,0.277-2.13,0.432-3.183
				c0.629-4.212,1.411-8.344,2.273-12.459c0.843-4.122,1.782-8.19,2.846-12.278L187.553,170.129z"/>
			<path style="fill:#407BFF;" d="M184.906,158.02c-6.239,1.881-9.398,15.63-9.398,15.63l12.508,2.822c0,0,4.29-5.418,4.133-11.031
				C192.012,160.561,189.831,156.535,184.906,158.02z"/>
			<path style="opacity:0.2;" d="M185.57,169.433c0,0-1.032,2.339-1.525,6.145l3.302,0.745L185.57,169.433z"/>
			<path style="fill:#407BFF;" d="M184.906,158.02c0,0-3.98,1.577,6.018,50.961c13.649-0.526,27.755-1.07,34.397-1.326
				c-1.117-13.977-1.466-22.609,4.118-51.597c0,0-7.268-1.29-14.681-1.361c-5.799-0.056-10.549-0.058-15.619,0.602
				C192.454,156.169,184.906,158.02,184.906,158.02z"/>
			<path style="opacity:0.2;" d="M228.593,160.532c-2.814,1.189-5.589,3.916-6.785,6.751c-1.613,3.819,2.656,11.575,3.672,13.318
				C226.084,175.192,227.08,168.747,228.593,160.532z"/>
			<path style="fill:#263238;" d="M221.25,151.375c-0.814,0.688-2.373,1.307-4.368,1.835c0.39-0.883,1.433-3.658,0.355-6.765
				c0,1.365-1.17,4.701-3.508,7.418c-5.114,0.871-11.637,1.078-16.59,0.034h-0.011c-2.454-2.465-3.852-5.538-3.978-6.856
				c-0.596,2.442,0.023,4.586,0.562,5.824c-1.468-0.631-2.614-1.445-3.291-2.488c-3.841-5.882,1.055-9.264-0.642-13.529
				c-1.685-4.254-5.836-18.402,5.423-19.354c2.832-5.962,17.978-6.421,23.676,1.399c6.145,8.427,0.699,16.04,2.568,19.663
				C223.509,142.547,225.367,147.947,221.25,151.375z"/>
			<path style="fill:#FFFFFF;" d="M200.854,171.909c-5.617,0-7.922-2.372-8.866-4.362c-1.79-3.773,0.246-8.381,2.269-11.583
				c0.042-0.067,0.131-0.087,0.198-0.044c0.067,0.042,0.087,0.131,0.044,0.198c-1.984,3.141-3.985,7.652-2.252,11.307
				c0.909,1.915,3.141,4.198,8.607,4.198c0.327,0,0.667-0.007,1.021-0.023c5.08-0.229,9.107-1.944,11.97-5.099
				c3.982-4.389,4.232-10.056,4.214-11.688c-0.001-0.079,0.063-0.144,0.142-0.145c0.001,0,0.001,0,0.002,0
				c0.079,0,0.142,0.064,0.143,0.142c0.019,1.658-0.236,7.417-4.289,11.883c-2.915,3.214-7.01,4.961-12.169,5.193
				C201.529,171.9,201.184,171.909,200.854,171.909z"/>
			<path style="fill:#7F3E3B;" d="M212.605,139.055c-0.791,5.064-1.492,12.424,2.153,15.642c0,0,0.68,12.993-13.031,13.609
				c-13.711,0.616-2.588-13.006-2.588-13.006c5.553-1.554,5.32-3.821,4.194-7.688L212.605,139.055z"/>
			<path style="opacity:0.2;" d="M208.825,142.546l-5.488,5.061c0.27,0.915,0.488,1.845,0.588,2.754
				c2.099,0.168,4.978-1.418,5.569-3.718C209.944,144.891,209.558,142.852,208.825,142.546z"/>
			<path style="fill:#7F3E3B;" d="M215.041,127.447c0.687,8.384,1.157,11.917-2.425,16.788c-5.389,7.326-15.836,6.337-19.015-1.673
				c-2.861-7.209-3.505-19.708,4.153-24.187C205.299,113.961,214.353,119.063,215.041,127.447z"/>
			<path style="fill:#263238;" d="M202.106,131.564c0.098,0.677-0.182,1.277-0.624,1.341c-0.442,0.064-0.88-0.433-0.977-1.11
				c-0.098-0.677,0.182-1.277,0.624-1.341C201.571,130.39,202.008,130.887,202.106,131.564z"/>
			<path style="fill:#263238;" d="M194.458,132.666c0.098,0.677-0.182,1.277-0.624,1.341c-0.442,0.064-0.88-0.433-0.977-1.11
				c-0.098-0.677,0.182-1.277,0.624-1.341C193.923,131.493,194.36,131.99,194.458,132.666z"/>
			<path style="fill:#263238;" d="M193.681,131.566l-1.693-0.234C191.988,131.332,193.005,132.481,193.681,131.566z"/>
			<path style="fill:#630F0F;" d="M196.991,133.545c0,0-0.728,3.079-1.79,4.666c1.013,0.705,2.477,0.105,2.477,0.105
				L196.991,133.545z"/>
			<path style="fill:#263238;" d="M201.751,140.434c-0.305,0.093-0.633,0.168-0.986,0.218c-0.11,0.016-0.212-0.06-0.228-0.17
				c-0.016-0.11,0.059-0.217,0.17-0.227c2.97-0.433,4.057-2.703,4.068-2.726c0.047-0.101,0.166-0.145,0.267-0.098
				c0.1,0.047,0.144,0.166,0.098,0.267C205.098,137.79,204.189,139.691,201.751,140.434z"/>
			<path style="fill:#263238;" d="M207.048,125.214c-0.542,4.024,2.626,9.332,7.378,10.623c-1.36-1.047-0.065-5.087,1.425-7.258
				C218.161,125.21,207.636,120.845,207.048,125.214z"/>
			<path style="fill:#263238;" d="M190.818,122.523c2.362,3.303,13.121,5.561,17.467,3.246c-1.708,0.169-7.347-4.564-7.75-7.166
				C199.911,114.566,188.254,118.937,190.818,122.523z"/>
			<path style="fill:#263238;" d="M199.262,121.929c3.612,4.956,12.77,9.451,18.686,8.441c-4.401-1.842-1.345-7.788-3.449-11.162
				C211.234,113.973,193.239,113.667,199.262,121.929z"/>
			<path style="fill:#7F3E3B;" d="M217.408,132.751c-0.1,1.741-0.995,3.273-2.081,4.209c-1.632,1.408-3.361,0.169-3.673-1.85
				c-0.28-1.817,0.232-4.739,2.238-5.369C215.87,129.12,217.523,130.76,217.408,132.751z"/>
			<path style="fill:#263238;" d="M204.432,129.124c-0.152,0.075-0.34,0.049-0.465-0.078c-1.302-1.325-3.665-0.956-3.689-0.952
				c-0.219,0.036-0.425-0.113-0.461-0.331c-0.036-0.218,0.11-0.425,0.331-0.461c0.114-0.019,2.801-0.437,4.391,1.182
				c0.155,0.158,0.153,0.412-0.005,0.568C204.503,129.081,204.469,129.105,204.432,129.124z"/>
			<path style="fill:#263238;" d="M190.74,129.357c-0.131,0.04-0.279,0.012-0.388-0.087c-0.164-0.149-0.176-0.403-0.027-0.567
				c1.494-1.642,3.329-1.367,3.405-1.354c0.219,0.036,0.368,0.242,0.332,0.46c-0.035,0.218-0.241,0.366-0.46,0.333
				c-0.073-0.012-1.497-0.202-2.683,1.102C190.87,129.298,190.807,129.336,190.74,129.357z"/>
			<g>
				<polygon style="fill:#7F3E3B;" points="208.101,317.197 202.497,323.555 185.97,312.621 191.575,306.263 				"/>
				<path style="fill:#263238;" d="M201.434,323.679l3.649-8.795c0.133-0.32,0.463-0.488,0.794-0.403l7.374,1.885
					c0.765,0.195,1.19,1.1,0.871,1.833c-1.325,3.044-2.118,4.447-3.723,8.315c-0.987,2.379-2.189,7.509-3.552,10.795
					c-1.333,3.214-4.685,2.113-4.412,0.622c1.226-6.682-0.185-9.957-1.063-12.744C201.214,324.684,201.239,324.147,201.434,323.679z
					"/>
				<g style="opacity:0.2;">
					<polygon points="191.581,306.264 185.974,312.625 195.183,318.713 200.569,312.206 					"/>
				</g>
				<path style="fill:#263238;" d="M191.682,208.63c0,0-38.983,25.667-41.998,48.038c-3.579,26.559,41.988,61.83,41.988,61.83
					l7.643-8.67c0,0-30.193-23.959-28.863-47.653c9.104-19.469,53.049-35.902,43.207-54.52L191.682,208.63z"/>
				<polygon style="fill:#407BFF;" points="200.648,309.228 191.167,319.984 186.776,318.15 197.358,304.993 				"/>
				<path style="fill:#407BFF;" d="M200.752,328.201c-0.029,0.017-0.059,0.033-0.09,0.047c-0.348,0.163-0.722,0.129-1.113-0.102
					c-0.294-0.174-0.363-0.414-0.368-0.585c-0.034-1.082,2.487-2.823,2.774-3.018c0.071-0.05,0.153-0.046,0.221-0.003
					c0.068,0.043,0.103,0.122,0.09,0.201C202.092,325.82,201.665,327.671,200.752,328.201z M201.784,325.157
					c-0.988,0.726-2.219,1.822-2.201,2.392c0.002,0.072,0.023,0.165,0.171,0.252c0.273,0.161,0.515,0.189,0.738,0.084
					C201.026,327.644,201.49,326.632,201.784,325.157z"/>
				<path style="fill:#407BFF;" d="M201.93,325.042c-0.91,0.529-2.832,1.066-3.561,0.577c-0.155-0.103-0.394-0.351-0.258-0.839
					c0.087-0.309,0.281-0.537,0.574-0.682c1.107-0.538,3.365,0.386,3.46,0.426c0.066,0.028,0.112,0.088,0.122,0.159
					c0.009,0.071-0.019,0.141-0.076,0.185C202.119,324.925,202.031,324.983,201.93,325.042z M198.806,324.488
					c-0.158,0.092-0.259,0.223-0.308,0.4c-0.069,0.249,0.015,0.343,0.095,0.397c0.493,0.331,2.13-0.03,3.033-0.528
					c-0.769-0.268-2.107-0.619-2.766-0.298C198.841,324.468,198.823,324.478,198.806,324.488z"/>
			</g>
			<path style="opacity:0.2;" d="M195.868,220.734l-9.379,23.905c-5.756,4.689-11.041,9.471-14.297,14.447
				c-0.367-1.479-0.585-3.141-0.527-4.976C171.917,245.189,184.655,226.466,195.868,220.734z"/>
			<g>
				<polygon style="fill:#7F3E3B;" points="196.757,348.33 188.282,348.274 185.688,328.628 194.163,328.685 				"/>
				<path style="fill:#263238;" d="M187.645,348.799l8.319-4.632c0.303-0.169,0.665-0.095,0.872,0.177l4.613,6.054
					c0.479,0.628,0.251,1.601-0.454,1.978c-2.928,1.565-4.421,2.173-8.079,4.21c-2.251,1.253-6.376,4.53-9.484,6.261
					c-3.04,1.693-4.985-1.25-3.846-2.249c5.108-4.479,6.034-7.923,7.074-10.654C186.849,349.452,187.202,349.046,187.645,348.799z"
					/>
				<g style="opacity:0.2;">
					<polygon points="194.166,328.69 185.687,328.634 187.136,339.577 195.581,339.371 					"/>
				</g>
				<path style="fill:#263238;" d="M200.007,208.63c0,0-26.403,33.068-26.654,55.639c-0.298,26.798,11.641,72.517,11.641,72.517
					l11.558,0.077c0,0-0.33-45.996-1.913-69.674c6.649-20.438,40.523-40.918,30.682-59.535L200.007,208.63z"/>
				<polygon style="fill:#407BFF;" points="197.88,337.477 183.542,337.382 182.044,332.864 198.916,332.216 				"/>
				<path style="fill:#407BFF;" d="M184.305,351.923c-0.034-0.005-0.067-0.011-0.1-0.019c-0.374-0.088-0.646-0.347-0.809-0.77
					c-0.123-0.319-0.027-0.55,0.074-0.687c0.645-0.869,3.702-0.67,4.048-0.645c0.087,0.004,0.149,0.059,0.175,0.135
					c0.026,0.076,0.005,0.159-0.054,0.214C186.832,350.887,185.35,352.073,184.305,351.923z M187.003,350.176
					c-1.225-0.044-2.871,0.052-3.21,0.51c-0.043,0.058-0.084,0.144-0.023,0.304c0.114,0.296,0.287,0.467,0.527,0.524
					C184.866,351.656,185.857,351.151,187.003,350.176z"/>
				<path style="fill:#407BFF;" d="M187.189,350.176c-1.042-0.15-2.882-0.921-3.151-1.757c-0.057-0.177-0.092-0.52,0.318-0.818
					c0.26-0.189,0.553-0.247,0.873-0.179c1.202,0.265,2.399,2.391,2.449,2.482c0.035,0.063,0.034,0.139-0.003,0.2
					c-0.036,0.061-0.102,0.099-0.174,0.098C187.41,350.202,187.304,350.193,187.189,350.176z M185.083,347.804
					c-0.181-0.026-0.341,0.014-0.49,0.122c-0.209,0.152-0.201,0.278-0.172,0.371c0.181,0.565,1.689,1.298,2.707,1.468
					c-0.436-0.687-1.268-1.792-1.984-1.95C185.122,347.81,185.102,347.807,185.083,347.804z"/>
			</g>
			<path style="fill:#263238;" d="M201.329,130.464l-1.693-0.234C199.637,130.229,200.653,131.378,201.329,130.464z"/>
			<g>
				<path style="fill:#7F3E3B;" d="M181.309,213.548l6.372,2.488l-4.118,5.082c0,0-3.347-0.76-4.425-4.114L181.309,213.548z"/>
				<g>
					<polygon style="fill:#7F3E3B;" points="189.812,218.772 187.632,224.421 183.563,221.118 187.681,216.036 					"/>
				</g>
			</g>
			<g>
				<path style="fill:#FFFFFF;" d="M225.758,205.616l0.998,3.045c0.13,0.234-0.144,0.489-0.542,0.504l-35.402,1.364
					c-0.31,0.012-0.573-0.13-0.6-0.324l-0.429-3.067c-0.03-0.213,0.232-0.403,0.571-0.417l34.832-1.342
					C225.444,205.37,225.675,205.465,225.758,205.616z"/>
			</g>
			<path style="fill:#407BFF;" d="M221.115,209.696l0.933-0.036c0.186-0.007,0.324-0.108,0.306-0.225l-0.592-3.983
				c-0.017-0.117-0.184-0.206-0.369-0.199l-0.933,0.036c-0.186,0.007-0.324,0.108-0.306,0.225l0.592,3.983
				C220.763,209.613,220.929,209.703,221.115,209.696z"/>
			<path style="fill:#407BFF;" d="M193.448,210.762l0.933-0.036c0.186-0.007,0.324-0.108,0.306-0.225l-0.592-3.983
				c-0.017-0.117-0.184-0.206-0.369-0.199l-0.933,0.036c-0.186,0.007-0.324,0.108-0.306,0.225l0.592,3.983
				C193.096,210.68,193.262,210.769,193.448,210.762z"/>
			<path style="fill:#407BFF;" d="M207.224,210.231l0.933-0.036c0.186-0.007,0.324-0.108,0.306-0.225l-0.592-3.983
				c-0.017-0.117-0.184-0.206-0.369-0.199l-0.933,0.036c-0.186,0.007-0.324,0.108-0.306,0.225l0.592,3.983
				C206.872,210.149,207.038,210.238,207.224,210.231z"/>
			<g>
				<g>
					<path style="fill:#407BFF;" d="M172.428,218.535l-9.983,7.233c-0.615,0.445-0.35,1.396,0.387,1.39l47.899-0.41
						c0.596-0.005,1.177-0.251,1.615-0.684l7.202-7.104c0.515-0.508,0.196-1.359-0.504-1.345L172.428,218.535z"/>
					<path style="opacity:0.4;fill:#FFFFFF;" d="M172.428,218.535l-9.983,7.233c-0.615,0.445-0.35,1.396,0.387,1.39l47.899-0.41
						c0.596-0.005,1.177-0.251,1.615-0.684l7.202-7.104c0.515-0.508,0.196-1.359-0.504-1.345L172.428,218.535z"/>
					<path style="opacity:0.2;" d="M172.428,218.535l-9.983,7.233c-0.615,0.445-0.35,1.396,0.387,1.39l47.899-0.41
						c0.596-0.005,1.177-0.251,1.615-0.684l7.202-7.104c0.515-0.508,0.196-1.359-0.504-1.345L172.428,218.535z"/>
				</g>
				<g>
					<path style="fill:#7F3E3B;" d="M216.911,214.9l-7.363-0.221l5.349,6.758c0,0,4.1-1.136,4.905-4.566L216.911,214.9z"/>
					<polygon style="fill:#7F3E3B;" points="203.804,218.896 208.588,224.311 214.897,221.438 209.548,214.679 					"/>
				</g>
				<g>
					<g>
						<g>
							<path style="fill:#407BFF;" d="M154.659,194.167l49.802-0.517c0.609-0.006,1.197,0.469,1.314,1.063l5.865,29.9
								c0.116,0.593-0.283,1.079-0.892,1.085l-49.802,0.517c-0.609,0.006-1.197-0.469-1.314-1.063l-5.865-29.9
								C153.65,194.659,154.05,194.173,154.659,194.167z"/>
							<path style="opacity:0.4;fill:#FFFFFF;" d="M154.659,194.167l49.802-0.517c0.609-0.006,1.197,0.469,1.314,1.063l5.865,29.9
								c0.116,0.593-0.283,1.079-0.892,1.085l-49.802,0.517c-0.609,0.006-1.197-0.469-1.314-1.063l-5.865-29.9
								C153.65,194.659,154.05,194.173,154.659,194.167z"/>
						</g>
						<path style="opacity:0.2;" d="M205.775,194.713l5.865,29.9c0.116,0.593-0.283,1.079-0.893,1.086l-6.286-32.048
							C205.071,193.644,205.659,194.12,205.775,194.713z"/>
					</g>
				</g>
			</g>
			<path style="fill:#7F3E3B;" d="M231.451,164.221c0.27,0.744,0.446,1.288,0.639,1.913c0.188,0.608,0.346,1.21,0.507,1.814
				c0.31,1.206,0.599,2.41,0.839,3.618c0.478,2.42,0.807,4.856,1.049,7.298c0.225,2.444,0.338,4.897,0.304,7.351
				c-0.001,1.226-0.065,2.453-0.129,3.677l-0.148,1.834l-0.075,0.916l-0.14,1.101c-0.466,2.879-1.471,5.326-2.574,7.61
				c-1.126,2.278-2.418,4.379-3.803,6.382c-1.399,1.994-2.874,3.896-4.407,5.736c-1.578,1.82-3.145,3.569-4.921,5.264l-3.237-2.82
				c1.242-1.84,2.527-3.767,3.692-5.699c1.205-1.916,2.335-3.868,3.358-5.843c1.03-1.967,1.979-3.951,2.729-5.927
				c0.77-1.961,1.298-3.955,1.461-5.689l0.035-0.633l0.006-0.825l0.014-1.648c-0.032-1.1-0.037-2.198-0.093-3.295
				c-0.096-2.195-0.322-4.382-0.566-6.562c-0.275-2.178-0.662-4.338-1.113-6.473c-0.21-1.072-0.463-2.129-0.728-3.175l-0.423-1.546
				c-0.132-0.491-0.304-1.056-0.417-1.409L231.451,164.221z"/>
			<path style="fill:#407BFF;" d="M229.439,156.057c6.83,1.51,6.602,17.865,6.602,17.865l-14.456,1.148
				c0,0-2.42-10.018-0.465-14.278C223.12,156.432,225.671,155.224,229.439,156.057z"/>
		</g>
	</g>
</g>
<g id="Love_text">
	<g>
		<path style="fill:#407BFF;" d="M159.267,159.114h-25.143c-1.566,0-2.835,1.269-2.835,2.835v12.095
			c0,1.566,1.269,2.835,2.835,2.835h19.883l4.214,4.215v-4.215h1.045c1.566,0,2.835-1.269,2.835-2.835v-12.095
			C162.102,160.383,160.833,159.114,159.267,159.114z"/>
		<path style="fill:#FFFFFF;" d="M150.973,164.162c-1.181-1.181-3.096-1.181-4.278,0c-1.181-1.181-3.096-1.181-4.278,0
			c-1.181,1.181-1.181,3.096,0,4.278l4.278,4.278l4.278-4.278C152.155,167.259,152.155,165.344,150.973,164.162z"/>
	</g>
</g>
</svg>
