<?xml version="1.0" encoding="utf-8"?>
<!-- Generator: Adobe Illustrator 27.5.0, SVG Export Plug-In . SVG Version: 6.00 Build 0)  -->
<svg version="1.1" xmlns="http://www.w3.org/2000/svg" xmlns:xlink="http://www.w3.org/1999/xlink" x="0px" y="0px"
	 viewBox="0 0 500 500" style="enable-background:new 0 0 500 500;" xml:space="preserve">
<g id="Background_Complete">
	<g>
		<rect y="382.398" style="fill:#EBEBEB;" width="500" height="0.25"/>
		<rect x="416.779" y="398.494" style="fill:#EBEBEB;" width="33.122" height="0.25"/>
		<rect x="322.527" y="401.208" style="fill:#EBEBEB;" width="8.693" height="0.25"/>
		<rect x="396.586" y="389.208" style="fill:#EBEBEB;" width="19.192" height="0.25"/>
		<rect x="52.459" y="390.888" style="fill:#EBEBEB;" width="43.193" height="0.25"/>
		<rect x="104.556" y="390.888" style="fill:#EBEBEB;" width="6.333" height="0.25"/>
		<rect x="131.471" y="395.111" style="fill:#EBEBEB;" width="93.676" height="0.25"/>
		<path style="fill:#EBEBEB;" d="M237.014,337.8H43.915c-3.147,0-5.708-2.561-5.708-5.708V60.66c0-3.147,2.561-5.708,5.708-5.708
			h193.099c3.146,0,5.707,2.561,5.707,5.708v271.432C242.721,335.239,240.16,337.8,237.014,337.8z M43.915,55.203
			c-3.01,0-5.458,2.448-5.458,5.458v271.432c0,3.01,2.448,5.458,5.458,5.458h193.099c3.009,0,5.457-2.448,5.457-5.458V60.66
			c0-3.009-2.448-5.458-5.457-5.458H43.915z"/>
		<path style="fill:#EBEBEB;" d="M453.31,337.8H260.212c-3.147,0-5.707-2.561-5.707-5.708V60.66c0-3.147,2.561-5.708,5.707-5.708
			H453.31c3.148,0,5.708,2.561,5.708,5.708v271.432C459.019,335.239,456.458,337.8,453.31,337.8z M260.212,55.203
			c-3.009,0-5.457,2.448-5.457,5.458v271.432c0,3.01,2.448,5.458,5.457,5.458H453.31c3.01,0,5.458-2.448,5.458-5.458V60.66
			c0-3.009-2.448-5.458-5.458-5.458H260.212z"/>
	</g>
	<g>
		<g>
			<g>
				<rect x="78.366" y="95.436" style="fill:#b5b5b5;" width="247.333" height="180.667"/>
				
					<rect x="325.699" y="95.436" transform="matrix(-1 -1.224647e-16 1.224647e-16 -1 653.3984 371.5394)" style="fill:#E0E0E0;" width="2" height="180.667"/>
				
					<rect x="121.7" y="72.103" transform="matrix(-1.836970e-16 1 -1 -1.836970e-16 387.8022 -16.2628)" style="fill:#858383;" width="160.666" height="227.333"/>
			</g>
			<g>
				<polygon style="fill:#E6E6E6;" points="70.219,114.259 69.134,138.94 234.094,133.529 335.26,132.169 336.366,109.266 
					195.56,110.85 				"/>
				<polygon style="fill:#E6E6E6;" points="69.907,170.869 69.456,195.569 234.44,194.387 335.537,190.433 336.055,167.51 
					195.336,172.704 				"/>
				<polygon style="fill:#E0E0E0;" points="332.399,171.063 334.641,146.456 169.596,144.662 68.47,141.605 66.29,164.437 
					207.026,169 				"/>
				<polygon style="fill:#E0E0E0;" points="331.228,262.782 333.056,238.145 168.008,238.584 66.847,236.895 65.052,259.755 
					205.841,262.414 				"/>
				<polygon style="fill:#E0E0E0;" points="333.246,214.234 334.441,189.558 169.496,185.77 68.325,186.676 67.117,209.574 
					207.928,208.622 				"/>
				<polygon style="fill:#E6E6E6;" points="70.878,202.105 67.896,226.634 232.812,233.399 333.8,239.501 336.667,216.746 
					196.132,207.945 				"/>
			</g>
		</g>
		<g>
			<g>
				<path style="fill:#b5b5b5;" d="M412.227,348.984l-0.445-0.662c-1.257-1.873-2.036-4.025-2.27-6.268l-1.361-13.062
					c0.239-0.032,0.428-0.23,0.428-0.478c0-0.27-0.221-0.491-0.491-0.491h-5.345c-0.27,0-0.491,0.221-0.491,0.491
					c0,0.248,0.189,0.446,0.429,0.478l-1.361,13.062c-0.234,2.243-1.013,4.395-2.27,6.268l-0.444,0.662
					c-0.722,1.075-1.106,2.34-1.106,3.633v27.68c0,1.16,0.94,2.101,2.101,2.101h11.632c1.16,0,2.101-0.941,2.101-2.101v-27.68
					C413.333,351.324,412.948,350.059,412.227,348.984z"/>
				<g>
					<rect x="397.5" y="356.8" style="fill:#858383;" width="11.833" height="17.575"/>
				</g>
			</g>
			<g>
				<path style="fill:#b5b5b5;" d="M341.732,381.292l-0.662-0.445c-1.873-1.257-4.025-2.036-6.268-2.27l-13.061-1.361
					c-0.032,0.239-0.23,0.428-0.478,0.428c-0.27,0-0.491-0.221-0.491-0.491v-5.345c0-0.27,0.221-0.491,0.491-0.491
					c0.248,0,0.446,0.189,0.478,0.429l13.061-1.361c2.243-0.234,4.395-1.013,6.268-2.27l0.662-0.444
					c1.075-0.722,2.339-1.106,3.634-1.106h27.68c1.16,0,2.101,0.94,2.101,2.101v11.632c0,1.16-0.941,2.101-2.101,2.101h-27.68
					C344.071,382.398,342.806,382.013,341.732,381.292z"/>
				<g>
					
						<rect x="352.418" y="363.694" transform="matrix(-1.836970e-16 1 -1 -1.836970e-16 730.8165 14.1465)" style="fill:#858383;" width="11.833" height="17.575"/>
				</g>
			</g>
			<g>
				<path style="fill:#b5b5b5;" d="M390.894,348.984l-0.445-0.662c-1.257-1.873-2.036-4.025-2.27-6.268l-1.361-13.062
					c0.239-0.032,0.428-0.23,0.428-0.478c0-0.27-0.221-0.491-0.491-0.491h-5.345c-0.27,0-0.491,0.221-0.491,0.491
					c0,0.248,0.189,0.446,0.429,0.478l-1.361,13.062c-0.234,2.243-1.013,4.395-2.27,6.268l-0.444,0.662
					c-0.722,1.075-1.106,2.34-1.106,3.633v27.68c0,1.16,0.94,2.101,2.101,2.101h11.632c1.16,0,2.101-0.941,2.101-2.101v-27.68
					C392,351.324,391.615,350.059,390.894,348.984z"/>
				<g>
					<rect x="378.917" y="356.8" style="fill:#858383;" width="11.833" height="17.575"/>
				</g>
			</g>
		</g>
		<rect x="367.122" y="149.333" style="fill:#b5b5b5;" width="42.211" height="11.667"/>
		<rect x="388.228" y="161" style="fill:#b1b1b1;" width="42.211" height="11.667"/>
		<rect x="63.533" y="295.001" style="fill:#b5b5b5;" width="42.211" height="11.667"/>
		<rect x="177.282" y="318.167" style="fill:#b5b5b5;" width="42.211" height="11.667"/>
		<rect x="105.743" y="295.001" style="fill:#858383;" width="42.211" height="11.667"/>
		<rect x="355.061" y="289.168" style="fill:#858383;" width="42.211" height="11.667"/>
		<rect x="84.638" y="306.668" style="fill:#b1b1b1;" width="42.211" height="11.667"/>
	</g>
</g>
<g id="Background_Simple" style="display:none;">
	<g style="display:inline;">
		<path style="fill:#407BFF;" d="M218.161,192.969c54.588-17.754,181.143-116.032,205.912-18.997
			c20.727,81.201-78.442,139.782-134.094,158.353c-72.394,24.158-164.787-3.321-201.815-74.76
			c-15.926-30.726-15.193-70.783,24.94-72.323c13.536-0.519,33.594,11.658,48.457,13.054
			C180.584,200.083,199.893,198.911,218.161,192.969z"/>
		<path style="opacity:0.9;fill:#FFFFFF;" d="M218.161,192.969c54.588-17.754,181.143-116.032,205.912-18.997
			c20.727,81.201-78.442,139.782-134.094,158.353c-72.394,24.158-164.787-3.321-201.815-74.76
			c-15.926-30.726-15.193-70.783,24.94-72.323c13.536-0.519,33.594,11.658,48.457,13.054
			C180.584,200.083,199.893,198.911,218.161,192.969z"/>
	</g>
</g>
<g id="Shadow_1_">
	<ellipse id="_x3C_Path_x3E__323_" style="fill:#b1b1b1;" cx="245" cy="416.238" rx="193.889" ry="11.323"/>
</g>
<g id="Lantern">
	<g>
		<path style="fill:#263238;" d="M314.778,40.333L314.778,40.333c-1.283,0-2.324,1.036-2.332,2.318l-2.113,373.588h8.889
			l-2.113-373.588C317.102,41.369,316.06,40.333,314.778,40.333z"/>
		<polygon points="311.449,218.969 318.071,212.729 317.99,205.624 311.475,214.333 		"/>
		<polygon style="fill:#263238;" points="319.789,258.333 309.767,258.333 307.889,416.24 321.667,416.24 		"/>
		<path style="opacity:0.7;fill:#407BFF;" d="M348.331,77.557l22.417-4.364c2.623-0.511,4.352-3.075,3.841-5.698l-0.371-1.908
			c-0.511-2.623-3.075-4.352-5.698-3.841l-22.417,4.364c-2.623,0.511-4.352,3.075-3.841,5.698l0.371,1.908
			C343.144,76.339,345.708,78.067,348.331,77.557z"/>
		<path style="fill:#263238;" d="M376.925,64.235l-69.107,13.453c-1.317,0.256-2.593-0.604-2.849-1.921l0,0
			c-0.256-1.317,0.603-2.593,1.921-2.849l69.107-13.453L376.925,64.235z"/>
		<path style="fill:#263238;" d="M319.556,73.833c0,2.639-2.139,4.778-4.778,4.778S310,76.472,310,73.833
			c0-2.639,2.139-4.778,4.778-4.778S319.556,71.195,319.556,73.833z"/>
	</g>
</g>
<g id="Trash">
	<g>
		<path style="fill:#407BFF;" d="M189.49,302.5l-4.08,110.51c-0.06,1.8-1.54,3.23-3.34,3.23H124.78c-1.81,0-3.29-1.43-3.35-3.23
			l-4.07-110.51H189.49z"/>
		<polygon style="opacity:0.3;fill:#263238;" points="186.072,340.337 187.429,358.336 187.945,344.34 		"/>
		<polygon style="opacity:0.2;fill:#263238;" points="117.36,302.5 117.42,304.119 189.337,306.668 189.49,302.5 		"/>
		<polygon style="opacity:0.4;fill:#263238;" points="117.692,311.667 117.762,313.551 189.081,313.551 189.15,311.667 		"/>
		<path style="fill:#407BFF;" d="M189.188,312.609h-71.533c-0.518,0-0.942-0.424-0.942-0.942l0,0c0-0.518,0.424-0.942,0.942-0.942
			h71.533c0.518,0,0.942,0.424,0.942,0.942l0,0C190.13,312.185,189.706,312.609,189.188,312.609z"/>
		<polygon style="opacity:0.4;fill:#263238;" points="120.771,395.17 120.84,397.055 186.002,397.055 186.072,395.17 		"/>
		<path style="fill:#407BFF;" d="M186.316,396.113h-65.789c-0.518,0-0.942-0.424-0.942-0.942l0,0c0-0.518,0.424-0.942,0.942-0.942
			h65.789c0.518,0,0.942,0.424,0.942,0.942l0,0C187.258,395.689,186.834,396.113,186.316,396.113z"/>
		<g>
			<path style="opacity:0.1;fill:#263238;" d="M153.406,389.019L153.406,389.019c-1.296,0-2.357-1.061-2.357-2.357v-66.138
				c0-1.297,1.061-2.357,2.357-2.357l0,0c1.296,0,2.357,1.061,2.357,2.357v66.138C155.763,387.958,154.702,389.019,153.406,389.019z
				"/>
			<path style="opacity:0.1;fill:#263238;" d="M141.003,389.019L141.003,389.019c-1.297,0-2.42-1.223-2.497-2.718l-3.364-65.415
				c-0.077-1.495,0.921-2.718,2.217-2.718l0,0c1.296,0,2.42,1.223,2.497,2.718l3.364,65.415
				C143.297,387.796,142.299,389.019,141.003,389.019z"/>
			<path style="opacity:0.1;fill:#263238;" d="M128.712,389.019L128.712,389.019c-1.296,0-2.42-1.223-2.497-2.718l-3.364-65.415
				c-0.077-1.495,0.921-2.718,2.217-2.718l0,0c1.296,0,2.42,1.223,2.497,2.718l3.364,65.415
				C131.007,387.796,130.009,389.019,128.712,389.019z"/>
			<path style="opacity:0.1;fill:#263238;" d="M165.561,389.019L165.561,389.019c1.296,0,2.42-1.223,2.497-2.718l3.364-65.415
				c0.077-1.495-0.921-2.718-2.217-2.718l0,0c-1.296,0-2.42,1.223-2.497,2.718l-3.364,65.415
				C163.266,387.796,164.264,389.019,165.561,389.019z"/>
			<path style="opacity:0.1;fill:#263238;" d="M177.851,389.019L177.851,389.019c1.296,0,2.42-1.223,2.497-2.718l3.364-65.415
				c0.077-1.495-0.921-2.718-2.217-2.718l0,0c-1.297,0-2.42,1.223-2.497,2.718l-3.364,65.415
				C175.557,387.796,176.554,389.019,177.851,389.019z"/>
		</g>
		<g>
			<path style="fill:#407BFF;" d="M213.043,410.377l-19.214-67.926c-0.327-1.155-1.368-1.962-2.568-1.99l-5.189-0.123l21.47,75.903
				l4.356-2.823C212.905,412.764,213.37,411.531,213.043,410.377z"/>
			<path style="fill:#407BFF;" d="M203.642,373.888c1.795,0,3.255,1.46,3.255,3.255s-1.46,3.255-3.255,3.255
				s-3.255-1.46-3.255-3.255S201.848,373.888,203.642,373.888 M203.642,371.888c-2.902,0-5.255,2.353-5.255,5.255
				c0,2.902,2.353,5.255,5.255,5.255c2.902,0,5.255-2.353,5.255-5.255C208.897,374.241,206.545,371.888,203.642,371.888
				L203.642,371.888z"/>
		</g>
	</g>
</g>
<g id="Character_1_">
	<g>
		<g>
			<path style="fill:#263238;" d="M276.763,174.913l-1.936,3.063l-1.959,3.175c-1.301,2.118-2.523,4.263-3.706,6.383
				c-1.154,2.129-2.233,4.256-3.14,6.316c-0.866,2.039-1.606,4.102-1.874,5.582c-0.307,2.205-0.542,4.816-0.743,7.353l-0.598,7.775
				c-0.421,5.221-0.833,10.506-1.503,15.771l-0.005,0.035c-0.28,2.202-2.292,3.76-4.494,3.48c-1.726-0.22-3.057-1.511-3.417-3.117
				c-1.174-5.29-1.972-10.567-2.623-15.912c-0.296-2.67-0.593-5.354-0.766-8.076c-0.176-2.745-0.355-5.423-0.255-8.487
				c0.197-3.797,1.025-6.836,1.972-9.747c0.481-1.44,1.001-2.833,1.547-4.193c0.567-1.346,1.158-2.664,1.769-3.959
				c1.218-2.587,2.569-5.06,3.98-7.478c0.717-1.202,1.433-2.401,2.202-3.571c0.771-1.199,1.515-2.287,2.43-3.552
				c2.589-3.58,7.589-4.384,11.169-1.795c3.437,2.485,4.316,7.194,2.089,10.734L276.763,174.913z"/>
			<path style="fill:#CE7A63;" d="M255.15,231.463l2.141,9.981l4.926-6.499c0,0-1.169-7.148-4.386-5.869L255.15,231.463z"/>
			<g>
				<polygon style="fill:#CE7A63;" points="280.464,403.875 273.898,407.594 268.102,392.738 274.667,389.019 				"/>
				<path style="fill:#263238;" d="M273.013,405.535l7.759-3.502c0.282-0.127,0.575-0.033,0.703,0.226l2.866,5.781
					c0.297,0.6-0.056,1.453-0.711,1.736c-2.72,1.174-4.075,1.602-7.487,3.142c-2.099,0.947-8.887,3.567-11.981,3.3
					c-3.026-0.261-2.605-3.319-1.257-3.484c6.042-0.736,7.762-3.887,9.091-6.252C272.236,406.057,272.6,405.722,273.013,405.535z"/>
				<g>
					<polygon style="opacity:0.2;" points="274.67,389.022 268.102,392.742 271.093,400.398 277.661,396.678 					"/>
				</g>
				<g>
					<path style="fill:#407BFF;" d="M259.745,227c0,0-12.31,53.817-16.195,74.869c-4.254,23.053,23.119,95.704,23.119,95.704
						l12.387-5.24c0.722,2.122-17.085-75.653-14.715-84.118c6.81-24.322,21.897-81.214,21.897-81.214H259.745z"/>
					<path style="opacity:0.4;" d="M259.745,227c0,0-12.31,53.817-16.195,74.869c-4.254,23.053,23.119,95.704,23.119,95.704
						l12.387-5.24c0.722,2.122-17.085-75.653-14.715-84.118c6.81-24.322,21.897-81.214,21.897-81.214H259.745z"/>
				</g>
				<path style="opacity:0.3;" d="M274.551,241.667c-5.678,12.79-6.614,38.401-4.923,47.311
					c4.313-14.853,8.071-32.448,11.435-46.058C280.225,239.43,278,233.887,274.551,241.667z"/>
				<polygon style="fill:#263238;" points="280,392.91 266.772,399.728 263.245,395.415 278.864,388.541 				"/>
				<path style="fill:#407BFF;" d="M271.054,407.806c0.638-0.288,1.29-0.734,1.74-1.07c0.056-0.042,0.084-0.111,0.07-0.177
					c-0.014-0.066-0.065-0.116-0.132-0.128c-0.283-0.049-2.78-0.462-3.489,0.239c-0.165,0.162-0.23,0.373-0.19,0.611
					c0.066,0.391,0.253,0.646,0.556,0.756C269.994,408.177,270.519,408.048,271.054,407.806z M272.257,406.71
					c-1.135,0.796-2.061,1.17-2.513,1.004c-0.188-0.068-0.301-0.234-0.347-0.506c-0.021-0.126,0.006-0.221,0.086-0.299
					C269.864,406.532,271.249,406.577,272.257,406.71z"/>
				<path style="fill:#407BFF;" d="M272.759,406.757c0.025-0.011,0.048-0.029,0.066-0.051c0.039-0.047,0.052-0.109,0.034-0.165
					c-0.027-0.085-0.678-2.08-1.647-2.416c-0.261-0.091-0.521-0.06-0.773,0.09c-0.302,0.181-0.44,0.442-0.386,0.736
					c0.146,0.802,1.761,1.734,2.615,1.821C272.699,406.775,272.73,406.77,272.759,406.757z M270.68,404.469
					c0.134-0.06,0.266-0.067,0.403-0.019c0.578,0.2,1.096,1.277,1.343,1.922c-0.806-0.221-1.936-0.973-2.031-1.499
					c-0.019-0.1-0.011-0.233,0.212-0.366C270.631,404.493,270.656,404.48,270.68,404.469z"/>
			</g>
			<g>
				<polygon style="fill:#CE7A63;" points="291.573,408.668 284.159,408.668 283.945,391.5 291.358,391.5 				"/>
				<path style="fill:#263238;" d="M283.808,407.81h8.329c0.303,0,0.522,0.21,0.528,0.506l0.116,6.59
					c0.012,0.684-0.658,1.33-1.355,1.318c-2.897-0.05-4.275-0.22-7.938-0.22c-2.253,0-8.023,0.234-11.134,0.234
					c-3.043,0-2.889-3.077-1.558-3.356c5.968-1.249,9.551-2.973,11.716-4.617C282.902,407.969,283.365,407.81,283.808,407.81z"/>
				<g>
					<polygon style="opacity:0.2;" points="291.36,391.505 283.944,391.505 284.058,400.354 291.474,400.354 					"/>
				</g>
				<g>
					<path style="fill:#407BFF;" d="M274.22,227c0,0-2.055,50.021-1.314,71.211c0.811,23.205,8.065,100.007,8.065,100.007h13.579
						c0,0-1.089-75.356,0.231-98.378c1.433-24.986,4.614-72.84,4.614-72.84H274.22z"/>
					<path style="opacity:0.4;" d="M274.22,227c0,0-2.055,50.021-1.314,71.211c0.811,23.205,8.065,100.007,8.065,100.007h13.579
						c0,0-1.089-75.356,0.231-98.378c1.433-24.986,4.614-72.84,4.614-72.84H274.22z"/>
				</g>
				<polygon style="fill:#263238;" points="295.097,398.218 280.424,398.218 279.835,393.065 295.994,393.871 				"/>
				<path style="fill:#407BFF;" d="M281.124,409.102c0.685,0,1.449-0.141,1.987-0.265c0.067-0.015,0.121-0.068,0.136-0.135
					c0.016-0.067-0.009-0.135-0.063-0.174c-0.23-0.164-2.266-1.599-3.187-1.244c-0.214,0.082-0.36,0.251-0.424,0.489
					c-0.105,0.393-0.046,0.708,0.175,0.938C280.031,409.002,280.55,409.102,281.124,409.102z M282.647,408.586
					c-1.338,0.264-2.313,0.223-2.644-0.121c-0.137-0.143-0.169-0.344-0.096-0.617c0.034-0.126,0.098-0.203,0.201-0.243
					C280.605,407.414,281.811,408.039,282.647,408.586z"/>
				<path style="fill:#407BFF;" d="M283.072,408.841c0.027,0,0.055-0.006,0.08-0.019c0.054-0.027,0.091-0.08,0.099-0.139
					c0.011-0.09,0.271-2.223-0.446-2.943c-0.193-0.194-0.436-0.275-0.722-0.241c-0.343,0.041-0.574,0.227-0.649,0.523
					c-0.206,0.809,0.832,2.356,1.551,2.796C283.011,408.833,283.041,408.841,283.072,408.841z M282.19,405.836
					c0.144,0,0.263,0.05,0.365,0.152c0.428,0.43,0.435,1.651,0.384,2.355c-0.621-0.544-1.305-1.72-1.17-2.251
					c0.025-0.101,0.088-0.221,0.341-0.251C282.137,405.837,282.164,405.836,282.19,405.836z"/>
			</g>
			<path style="fill:#263238;" d="M302.719,194.395c2.389-9.889,1.463-20.437,2.965-27.189c0.583-2.62-1.078-5.098-3.688-5.483
				c-0.028-0.004-0.057-0.008-0.086-0.013c-2.375-0.35-5.359-0.71-8.293-0.85c-5.05-0.24-12.372-0.4-16.85,0
				c-2.6,0.24-5.149,0.67-7.186,1.06c-0.57,0.114-1.089,0.224-1.552,0.327c-1.661,0.369-3.033,1.582-3.624,3.186
				c-1.616,4.383-4.445,15.32-3.161,29.542c-3.732,7.735-2.682,27.806-1.5,32.025h39.65
				C300.755,225.53,303.188,208.395,302.719,194.395z"/>
			<path style="opacity:0.3;" d="M304.119,185.44l-4.72-8.94c-0.35,4.51,1.91,13.22,3.33,18.14c0-0.08-0.01-0.17-0.01-0.25
				C303.429,191.43,303.849,188.4,304.119,185.44z"/>
			<path style="fill:#263238;" d="M282.605,119.609c-6.384,2.449-13.018,7.639-12.356,18.629c0.32,5.311,6.286,13.875,1.315,16.542
				c0.474,3.75,3.144,8.5,3.144,8.5l15.399-6.083C290.106,157.197,292.133,120.805,282.605,119.609z"/>
			<path style="fill:#263238;" d="M306.194,163.997c0.578,0.805,1.005,1.425,1.483,2.13l1.333,2.077
				c0.868,1.391,1.685,2.806,2.486,4.237c1.573,2.877,3.026,5.841,4.3,8.947c1.297,3.093,2.369,6.35,3.218,9.802
				c0.4,1.732,0.718,3.534,0.918,5.413l0.039,0.351l0.06,0.626c0.049,0.566,0.036,0.997,0.023,1.465
				c-0.049,0.844-0.161,1.598-0.299,2.223c-0.278,1.283-0.626,2.302-0.997,3.246c-0.754,1.864-1.577,3.428-2.425,4.926
				c-0.853,1.491-1.716,2.902-2.632,4.258c-1.832,2.703-3.699,5.278-5.679,7.747c-3.934,4.96-8.041,9.607-12.542,14.053
				c-1.569,1.55-4.097,1.535-5.647-0.034c-1.292-1.308-1.496-3.283-0.62-4.801l0.042-0.071c3.019-5.224,6.143-10.475,9.056-15.673
				c1.436-2.615,2.879-5.198,4.137-7.784c0.624-1.291,1.251-2.558,1.775-3.802c0.531-1.236,0.987-2.462,1.258-3.485
				c0.136-0.5,0.227-0.953,0.231-1.175c0.012-0.126-0.021-0.135-0.033-0.056c-0.017,0.086-0.016,0.133-0.015,0.319l0.01,0.115
				c0.01,0.063-0.012-0.045-0.017-0.059l-0.052-0.217c-0.261-1.148-0.608-2.343-1.041-3.557c-0.814-2.444-1.926-4.929-3.131-7.424
				c-1.224-2.488-2.563-4.982-3.995-7.442c-0.701-1.239-1.439-2.462-2.178-3.678l-1.116-1.81l-1.061-1.695l-0.167-0.267
				c-2.343-3.744-1.206-8.679,2.538-11.022C299.048,159.634,303.751,160.61,306.194,163.997z"/>
			<path style="fill:#CE7A63;" d="M277.571,160.8c4.95-1.16,5.943-4.19,5.758-7.52c-0.035-0.81-0.138-1.65-0.282-2.48l6.362-5.1
				l4.673-3.74c-1.487,5.43-3.328,15.32,0.185,18.94l-12.939,2.714L277.571,160.8z"/>
			<path style="opacity:0.2;" d="M283.047,150.8c0.144,0.83,0.247,1.67,0.282,2.48c2.31-0.461,5.86-2.5,6.306-5.083
				c0.152-0.881-0.192-1.887-0.225-2.497L283.047,150.8z"/>
			<path style="fill:#CE7A63;" d="M294.193,131.008c0.531,7.328,1.214,11.562-1.946,16.053c-4.752,6.756-14.146,5.344-16.849-1.509
				c-2.434-6.169-2.893-17.117,3.812-21.504C285.817,119.727,293.662,123.679,294.193,131.008z"/>
			<path style="fill:#BA4D3C;" d="M278.963,136.627c0,0-0.883,3.683-2.139,5.637c1.175,0.751,2.89-0.071,2.89-0.071L278.963,136.627
				z"/>
			<path style="fill:#CE7A63;" d="M297.914,137.588c-0.8,1.883-2.246,3.322-3.624,4.055c-2.074,1.103-3.16-0.724-2.625-3.023
				c0.481-2.069,2.14-5.137,4.241-5.286C297.975,133.188,298.828,135.435,297.914,137.588z"/>
			<path style="opacity:0.8;fill:#263238;" d="M272.464,138.919c0.394,2.33,7.577-3.079,21.298,0.684
				c2.785-4.462-1.369-11.184-8.083-12.407C278.964,125.975,271.186,131.364,272.464,138.919z"/>
			<path style="fill:#263238;" d="M276.348,132.197c7.34,0.222,15.449,2.222,15.899,14.864c0.217,6.102-6.755,9.828-6.755,9.828
				l4.416,7.391l7.835,1.583l5.91-3.55c0,0-1.64-7.755,0.416-19.733c3.37-19.632-1.947-33.716-24.244-21.716
				C271.956,125.099,276.348,132.197,276.348,132.197z"/>
			<path style="fill:#263238;" d="M276.348,132.197c-3.062,0.472-3.069,3.444-2.364,10.383c-3.55-3.083-2.571-10.539-1.729-12.55
				c2.182-5.21,6.259-5.042,6.259-5.042S279.427,131.405,276.348,132.197z"/>
			<path style="fill:#FFFFFF;" d="M290.069,166.313c-0.359-2.198-2.083-6.729-2-7.688l-0.5-0.57
				c-0.273,1.853,3.167,8.945,0.222,14.667c1.611,1.556,1.936,0,1.936,0S290.744,170.449,290.069,166.313z"/>
			<path style="fill:#FFFFFF;" d="M274.816,165.787c-0.075-2.226-1.207-6.94-1.001-7.88l-0.423-0.629
				c-0.507,1.803,1.998,9.276-1.654,14.575c1.399,1.749,1.92,0.247,1.92,0.247S274.957,169.976,274.816,165.787z"/>
			<path style="fill:#263238;" d="M283.456,135.692c0.079,0.589-0.169,1.133-0.555,1.215s-0.763-0.329-0.842-0.918
				c-0.079-0.589,0.169-1.133,0.555-1.215C283,134.692,283.377,135.103,283.456,135.692z"/>
			<path style="fill:#263238;" d="M276.803,136.785c0.079,0.589-0.169,1.133-0.555,1.215c-0.386,0.082-0.763-0.329-0.842-0.918
				s0.169-1.133,0.555-1.215C276.346,135.785,276.723,136.196,276.803,136.785z"/>
			<path style="fill:#263238;" d="M281.79,144.35c2.32-0.511,3.526-0.878,3.603-0.93c0.082-0.056,0.106-0.166,0.054-0.245
				c-0.052-0.08-0.16-0.099-0.241-0.043c-0.019,0.013-1.516,0.553-4.128,0.979c-0.097,0.015-0.171,0.096-0.165,0.193
				c0.005,0.097,0.088,0.167,0.185,0.157C281.341,144.436,281.571,144.399,281.79,144.35z"/>
			<path style="fill:#CE7A63;" d="M290.801,230.529l-6.78,6.15l9.114,1.696c0,0,3.281-4.209,1.906-6.875L290.801,230.529z"/>
			<path style="fill:#CE7A63;" d="M286.174,234.727c0,0-2.383,1.383-3.23,2.74c-0.604,0.968-1.572,1.851-1.936,2.281
				c-0.252,0.298-0.09,0.736,0.281,0.786c0.568,0.076,1.919-0.319,3.375-1.763c1.827-0.117,3.981-2.84,3.981-2.84L286.174,234.727z"
				/>
			<g>
				
					<rect x="282.684" y="241.498" transform="matrix(0.9891 0.1475 -0.1475 0.9891 39.292 -39.0787)" style="fill:#FFFFFF;" width="0.917" height="7.795"/>
				
					<rect x="283.048" y="241.525" transform="matrix(0.989 0.1476 -0.1476 0.989 38.9616 -39.1816)" style="opacity:0.7;fill:#407BFF;" width="0.917" height="2.854"/>
			</g>
			<path style="fill:#CE7A63;" d="M282.778,243.227l5.775,0.834c0.497,0.072,1.007-0.165,1.289-0.6l3.294-5.086l-9.038-1.67
				l-2.204,4.835C281.553,242.287,281.987,243.113,282.778,243.227z"/>
			<g style="opacity:0.1;">
				<path style="fill:#FFFFFF;" d="M275.569,131.25c-0.1,0-0.194-0.061-0.232-0.158c-0.04-0.101-0.946-2.489,0.863-4.988
					c1.838-2.538,7.124-7.276,15.278-8.932c0.134-0.027,0.267,0.061,0.295,0.195c0.027,0.136-0.06,0.268-0.195,0.295
					c-8.004,1.625-13.178,6.255-14.974,8.734c-1.644,2.271-0.838,4.422-0.803,4.513c0.051,0.128-0.013,0.273-0.142,0.323
					C275.63,131.244,275.6,131.25,275.569,131.25z"/>
				<path style="fill:#FFFFFF;" d="M300.485,161.667c-0.119,0-0.225-0.085-0.246-0.206c-1.102-6.186-0.57-15.021,0.444-21.033
					c0.82-4.87,1.526-11.834-1.811-16.064c-3.273-4.147-11.964-5.313-12.052-5.323c-0.137-0.018-0.233-0.144-0.216-0.28
					c0.018-0.137,0.143-0.235,0.28-0.216c0.365,0.047,8.979,1.201,12.38,5.509c3.46,4.388,2.748,11.494,1.91,16.459
					c-1.007,5.969-1.535,14.735-0.444,20.861c0.024,0.136-0.066,0.266-0.202,0.29C300.515,161.666,300.5,161.667,300.485,161.667z"
					/>
				<path style="fill:#FFFFFF;" d="M293.136,216.473c-0.063,0-0.124-0.023-0.173-0.069c-4.972-4.762-8.397-13.448-8.43-13.535
					c-0.051-0.129,0.013-0.273,0.142-0.323c0.131-0.05,0.273,0.013,0.323,0.142c0.034,0.086,3.42,8.671,8.311,13.356
					c0.1,0.096,0.104,0.254,0.008,0.353C293.268,216.447,293.201,216.473,293.136,216.473z"/>
				<path style="fill:#FFFFFF;" d="M261.136,216.473c-0.06,0-0.118-0.021-0.166-0.064c-0.103-0.092-0.112-0.25-0.02-0.353
					c4.164-4.676,6.23-13.251,6.251-13.337c0.032-0.134,0.162-0.223,0.301-0.186c0.135,0.031,0.218,0.166,0.186,0.301
					c-0.021,0.087-2.115,8.783-6.364,13.554C261.273,216.444,261.204,216.473,261.136,216.473z"/>
			</g>
		</g>
	</g>
</g>
</svg>
