<?xml version="1.0" encoding="UTF-8"?>
<svg version="1.1" xmlns="http://www.w3.org/2000/svg" width="612" height="408">
<path d="M0 0 C2.28388273 2.28388273 2.4796026 3.31531992 3.1484375 6.41015625 C3.34711426 7.30951904 3.54579102 8.20888184 3.75048828 9.13549805 C4.05962158 10.58436401 4.05962158 10.58436401 4.375 12.0625 C4.81720468 14.07042349 5.25991854 16.0782349 5.703125 18.0859375 C5.92162109 19.08592773 6.14011719 20.08591797 6.36523438 21.11621094 C8.6458349 31.47715455 11.08113697 41.79902509 14 52 C14.25007812 52.97710937 14.50015625 53.95421875 14.7578125 54.9609375 C18.53864565 68.75586927 25.70310402 85.03075943 37.921875 93.30078125 C45.19862206 96.71363576 54.01535585 94.8833933 61.3125 92.375 C73.98983209 87.32601926 85.98335362 81.05482 97.78515625 74.23828125 C142.77500856 48.28227914 142.77500856 48.28227914 158.62109375 52.25 C167.84783554 55.15892352 173.12258762 59.86923303 177.87426758 68.34204102 C182.95658575 78.17737592 186.75614368 88.17818413 190.1875 98.6875 C191.17634914 101.67212627 192.17141129 104.6546584 193.16796875 107.63671875 C193.40610794 108.35149384 193.64424713 109.06626892 193.88960266 109.80270386 C199.89211748 130.02380376 199.89211748 130.02380376 214.265625 144.1875 C225.62417161 149.08459794 237.39942697 147.48805878 249.13549805 145.14941406 C255.38221596 143.96819589 261.59153425 143.49284448 267.9375 143.1875 C268.88439697 143.134729 269.83129395 143.08195801 270.80688477 143.02758789 C279.54836373 142.6832661 288.08438873 143.16015048 295 149 C303.00841788 156.76200502 306.35546548 165.04617288 307.75 176 C307.87286377 176.90194092 307.99572754 177.80388184 308.12231445 178.7331543 C309.18651887 187.17337063 309.30044665 195.50960026 309 204 C304.71 204 300.42 204 296 204 C295.93530518 203.08299316 295.87061035 202.16598633 295.80395508 201.22119141 C295.55040411 197.77159245 295.27785669 194.32453645 294.99291992 190.87744141 C294.87412047 189.39429697 294.76260105 187.91054855 294.65893555 186.42626953 C293.91378221 175.8515097 291.95210366 167.92815549 286 159 C276.20089225 153.84314032 262.34141553 157.4183056 251.9375 159 C233.66740656 161.76904642 217.21216525 163.00688662 201.1015625 152.796875 C185.35564987 140.96962841 180.30996197 115.33079138 174.796875 97.71484375 C174.19796876 95.80987945 173.59901365 93.90493052 173 92 C172.74202637 91.16718506 172.48405273 90.33437012 172.21826172 89.47631836 C170.76405374 84.91217319 169.05834844 80.84401147 166.625 76.6875 C166.06039062 75.70136719 165.49578125 74.71523438 164.9140625 73.69921875 C161.85161185 69.38053835 159.3300084 67.27887273 154.125 66.1875 C135.1753034 64.81382311 114.45803754 80.22811961 98.8347168 89.56982422 C93.03255437 93.02563144 87.10773673 96.11506903 81 99 C80.10152344 99.43957031 79.20304687 99.87914062 78.27734375 100.33203125 C65.83706232 106.25682716 51.0306416 111.71515204 37.17578125 107.83984375 C21.95763274 101.96569307 14.73558628 89.70748379 7.91040039 75.74243164 C6.90346945 73.74001858 6.90346945 73.74001858 5 71 C11.68412954 101.82699766 11.68412954 101.82699766 29.8359375 126.265625 C37.88072844 130.78088316 44.99448169 130.37557233 53.71484375 128.08203125 C61.85338208 125.40144253 69.34773434 121.94057816 76.8125 117.75 C77.68052246 117.26764893 78.54854492 116.78529785 79.44287109 116.28833008 C86.42120702 112.384787 93.23532988 108.26344755 100 104 C133.85966284 82.851408 133.85966284 82.851408 154 85 C159.02969303 86.50729583 162.08249036 89.72098586 165 94 C165.37640625 94.51820313 165.7528125 95.03640625 166.140625 95.5703125 C174.09134064 107.19446005 177.41387102 121.34337271 181.02075195 134.74902344 C185.65552226 153.06589432 185.65552226 153.06589432 197.0546875 167.40625 C205.7763332 171.87888882 213.40225589 171.44677013 222.6875 169.25 C223.46843018 169.07098145 224.24936035 168.89196289 225.05395508 168.70751953 C233.07518419 166.82606766 240.92617273 164.45000632 248.6875 161.6875 C254.27661713 160.52749456 259.59461791 161.00647262 264.875 163.1875 C271.07348885 168.47444638 272.55416532 175.29879168 273.625 183 C274.1486131 189.98150803 274 196.99888402 274 204 C183.58 204 93.16 204 0 204 C0 136.68 0 69.36 0 0 Z " fill="#0F80FC" transform="translate(0,204)"/>
<path d="M0 0 C3.3 0 6.6 0 10 0 C10.03867187 1.20269531 10.03867187 1.20269531 10.078125 2.4296875 C10.34537918 19.21027093 10.34537918 19.21027093 16.7734375 33.84375 C19.33225896 34.87108352 21.23845448 35.0235359 24 35 C25.093125 34.99226563 26.18625 34.98453125 27.3125 34.9765625 C32.70908179 34.72803571 37.90977763 34.07019936 43.1875 32.9375 C55.37159347 30.5944051 69.28139949 29.9969527 80 37 C90.46369945 45.54864502 94.30555653 60.09017401 98.25 72.5 C98.89950245 74.51906343 99.5517366 76.53718981 100.20721436 78.55432129 C100.79349654 80.36198145 101.37208941 82.17213029 101.95019531 83.98242188 C102.88557514 86.91266907 102.88557514 86.91266907 104.13574219 89.15820312 C105 91 105 91 105 95 C105.66 95 106.32 95 107 95 C108.0064275 96.66279327 109.00585407 98.32983484 110 100 C114.07422645 102.71615097 117.30173119 102.71713946 122 102 C132.12879423 98.89711702 141.24743564 93.13826964 150.38037109 87.90185547 C158.44807078 83.27867243 166.56684055 78.918146 175 75 C175.94359375 74.54753906 176.8871875 74.09507813 177.859375 73.62890625 C186.16830241 70.07671687 195.67153693 69.58704126 204.484375 71.5546875 C212.73844649 75.02139752 219.29616025 84.10921096 223 92 C223 92.99 223 93.98 223 95 C223.66 95 224.32 95 225 95 C219.85682493 75.1208789 219.85682493 75.1208789 208 59 C207.34 58.34 206.68 57.68 206 57 C197.78896338 53.84190899 189.03184853 56.84673149 181.3984375 60.11328125 C172.92110732 64.16090791 164.94849257 69.12499453 156.9296875 74 C156.12192871 74.49089111 155.31416992 74.98178223 154.48193359 75.48754883 C152.77931999 76.52509469 151.07924883 77.56682081 149.38134766 78.61206055 C144.89571133 81.35019405 140.51769322 83.85148757 135.625 85.8125 C134.64789062 86.21082031 133.67078125 86.60914062 132.6640625 87.01953125 C126.09508377 89.43714659 119.51819342 90.08252105 112.75 88 C106.30586807 83.3133586 103.02219447 76.6260523 100.5 69.25 C100.21012207 68.43869629 99.92024414 67.62739258 99.62158203 66.79150391 C97.21115604 59.92580064 95.11435872 52.96283383 93.21679688 45.93847656 C91.32955605 39.23292621 88.84585157 31.6038108 82.875 27.5 C74.93627839 23.35805829 68.40764395 24.94348413 60.25390625 27.48828125 C58.17504049 28.1604738 56.0969079 28.83493818 54.01953125 29.51171875 C46.86308762 31.7395824 39.21678866 34.01672501 32.125 30.625 C24.43385738 21.12417677 26 12.79490725 26 0 C93.32 0 160.64 0 230 0 C230 50.16 230 100.32 230 152 C229.34 152 228.68 152 228 152 C225.10976258 139.70685684 225.10976258 139.70685684 224.0625 134.1875 C221.04290536 118.99132862 217.64772082 102.32202073 208.19921875 89.69921875 C207 88 207 88 206 85 C203.62374655 83.81608777 203.62374655 83.81608777 201 83 C200.01 82.67 199.02 82.34 198 82 C180.66032054 80.03701742 161.10697771 94.25532376 147 103 C140.86191725 106.67069503 134.76843157 109.1171306 127.98828125 111.31640625 C125.96099426 111.96445733 125.96099426 111.96445733 124 113 C110.47755244 113.97122552 110.47755244 113.97122552 105 110 C102.125 107.4375 102.125 107.4375 100 105 C100 104.34 100 103.68 100 103 C99.34 103 98.68 103 98 103 C93.26395498 93.07009228 89.18790639 83.26457251 86.1965332 72.67944336 C84.33065668 66.08169821 82.38533663 60.00542784 79.015625 53.98046875 C78 52 78 52 77.609375 49.86328125 C77.16479136 47.84290659 77.16479136 47.84290659 75.2265625 46.8515625 C74.49179687 46.57054687 73.75703125 46.28953125 73 46 C72.26523437 45.71898437 71.53046875 45.43796875 70.7734375 45.1484375 C69.98195313 44.89320312 69.19046875 44.63796875 68.375 44.375 C67.59898437 44.11460938 66.82296875 43.85421875 66.0234375 43.5859375 C57.09044778 41.85473794 48.16763825 43.54216206 39.29882812 44.93359375 C29.43475602 46.39751965 19.71098438 47.75061078 11 42 C4.72872104 36.59662125 1.37698062 29.04705129 0 21 C-0.07700286 19.30742755 -0.10805067 17.61226001 -0.09765625 15.91796875 C-0.09443359 14.98662109 -0.09121094 14.05527344 -0.08789062 13.09570312 C-0.07951172 12.13599609 -0.07113281 11.17628906 -0.0625 10.1875 C-0.05798828 9.20845703 -0.05347656 8.22941406 -0.04882812 7.22070312 C-0.03708702 4.81377569 -0.01915289 2.40687987 0 0 Z M225 95 C226 97 226 97 226 97 Z " fill="#0E7FFC" transform="translate(382,0)"/>
<path d="M0 0 C2.28388273 2.28388273 2.4796026 3.31531992 3.1484375 6.41015625 C3.34711426 7.30951904 3.54579102 8.20888184 3.75048828 9.13549805 C4.05962158 10.58436401 4.05962158 10.58436401 4.375 12.0625 C4.81720468 14.07042349 5.25991854 16.0782349 5.703125 18.0859375 C5.92162109 19.08592773 6.14011719 20.08591797 6.36523438 21.11621094 C8.6458349 31.47715455 11.08113697 41.79902509 14 52 C14.25007812 52.97710937 14.50015625 53.95421875 14.7578125 54.9609375 C18.53864565 68.75586927 25.70310402 85.03075943 37.921875 93.30078125 C45.19862206 96.71363576 54.01535585 94.8833933 61.3125 92.375 C73.98983209 87.32601926 85.98335362 81.05482 97.78515625 74.23828125 C142.77500856 48.28227914 142.77500856 48.28227914 158.62109375 52.25 C167.84783554 55.15892352 173.12258762 59.86923303 177.87426758 68.34204102 C182.95658575 78.17737592 186.75614368 88.17818413 190.1875 98.6875 C191.17634914 101.67212627 192.17141129 104.6546584 193.16796875 107.63671875 C193.40610794 108.35149384 193.64424713 109.06626892 193.88960266 109.80270386 C199.89211748 130.02380376 199.89211748 130.02380376 214.265625 144.1875 C225.62417161 149.08459794 237.39942697 147.48805878 249.13549805 145.14941406 C255.38221596 143.96819589 261.59153425 143.49284448 267.9375 143.1875 C268.88439697 143.134729 269.83129395 143.08195801 270.80688477 143.02758789 C279.54836373 142.6832661 288.08438873 143.16015048 295 149 C303.00841788 156.76200502 306.35546548 165.04617288 307.75 176 C307.87286377 176.90194092 307.99572754 177.80388184 308.12231445 178.7331543 C309.18651887 187.17337063 309.30044665 195.50960026 309 204 C304.71 204 300.42 204 296 204 C295.93530518 203.08299316 295.87061035 202.16598633 295.80395508 201.22119141 C295.55040411 197.77159245 295.27785669 194.32453645 294.99291992 190.87744141 C294.87412047 189.39429697 294.76260105 187.91054855 294.65893555 186.42626953 C293.91378221 175.8515097 291.95210366 167.92815549 286 159 C276.20089225 153.84314032 262.34141553 157.4183056 251.9375 159 C233.66740656 161.76904642 217.21216525 163.00688662 201.1015625 152.796875 C185.35564987 140.96962841 180.30996197 115.33079138 174.796875 97.71484375 C174.19796876 95.80987945 173.59901365 93.90493052 173 92 C172.74202637 91.16718506 172.48405273 90.33437012 172.21826172 89.47631836 C170.76405374 84.91217319 169.05834844 80.84401147 166.625 76.6875 C166.06039062 75.70136719 165.49578125 74.71523438 164.9140625 73.69921875 C161.85161185 69.38053835 159.3300084 67.27887273 154.125 66.1875 C135.1753034 64.81382311 114.45803754 80.22811961 98.8347168 89.56982422 C93.03255437 93.02563144 87.10773673 96.11506903 81 99 C80.10152344 99.43957031 79.20304687 99.87914062 78.27734375 100.33203125 C65.83706232 106.25682716 51.0306416 111.71515204 37.17578125 107.83984375 C21.95763274 101.96569307 14.73558628 89.70748379 7.91040039 75.74243164 C6.90346945 73.74001858 6.90346945 73.74001858 5 71 C5 72.65 5 74.3 5 76 C4.34 75.67 3.68 75.34 3 75 C-1.11137173 59.29458374 -0.35060374 42.89822205 -0.1875 26.8125 C-0.17241504 24.20117966 -0.15873343 21.58985081 -0.14648437 18.97851562 C-0.11380649 12.65215475 -0.06391385 6.3261185 0 0 Z " fill="#F57E1A" transform="translate(0,204)"/>
<path d="M0 0 C3.3 0 6.6 0 10 0 C10.03867187 1.20269531 10.03867187 1.20269531 10.078125 2.4296875 C10.34537918 19.21027093 10.34537918 19.21027093 16.7734375 33.84375 C19.33225896 34.87108352 21.23845448 35.0235359 24 35 C25.093125 34.99226563 26.18625 34.98453125 27.3125 34.9765625 C32.70908179 34.72803571 37.90977763 34.07019936 43.1875 32.9375 C55.37159347 30.5944051 69.28139949 29.9969527 80 37 C90.46369945 45.54864502 94.30555653 60.09017401 98.25 72.5 C98.89950245 74.51906343 99.5517366 76.53718981 100.20721436 78.55432129 C100.79349654 80.36198145 101.37208941 82.17213029 101.95019531 83.98242188 C102.88557514 86.91266907 102.88557514 86.91266907 104.13574219 89.15820312 C105 91 105 91 105 95 C105.66 95 106.32 95 107 95 C108.0064275 96.66279327 109.00585407 98.32983484 110 100 C114.07422645 102.71615097 117.30173119 102.71713946 122 102 C132.12879423 98.89711702 141.24743564 93.13826964 150.38037109 87.90185547 C158.44807078 83.27867243 166.56684055 78.918146 175 75 C175.94359375 74.54753906 176.8871875 74.09507813 177.859375 73.62890625 C186.16830241 70.07671687 195.67153693 69.58704126 204.484375 71.5546875 C211.9605769 74.6946923 218.49664586 82.88558112 222.171875 89.96875 C224.16247905 94.85136372 225.54521279 99.93866806 227 105 C227.2580542 105.65129883 227.5161084 106.30259766 227.78198242 106.97363281 C231.01823598 115.77043652 230.32729408 124.89683239 230.1875 134.125 C230.17242553 135.86196756 230.15874202 137.59894778 230.14648438 139.3359375 C230.11369824 143.55760852 230.06206914 147.77866213 230 152 C229.34 152 228.68 152 228 152 C225.10976258 139.70685684 225.10976258 139.70685684 224.0625 134.1875 C221.04290536 118.99132862 217.64772082 102.32202073 208.19921875 89.69921875 C207 88 207 88 206 85 C203.62374655 83.81608777 203.62374655 83.81608777 201 83 C200.01 82.67 199.02 82.34 198 82 C180.66032054 80.03701742 161.10697771 94.25532376 147 103 C140.86191725 106.67069503 134.76843157 109.1171306 127.98828125 111.31640625 C125.96099426 111.96445733 125.96099426 111.96445733 124 113 C110.47755244 113.97122552 110.47755244 113.97122552 105 110 C102.125 107.4375 102.125 107.4375 100 105 C100 104.34 100 103.68 100 103 C99.34 103 98.68 103 98 103 C93.26395498 93.07009228 89.18790639 83.26457251 86.1965332 72.67944336 C84.33065668 66.08169821 82.38533663 60.00542784 79.015625 53.98046875 C78 52 78 52 77.609375 49.86328125 C77.16479136 47.84290659 77.16479136 47.84290659 75.2265625 46.8515625 C74.49179687 46.57054687 73.75703125 46.28953125 73 46 C72.26523437 45.71898437 71.53046875 45.43796875 70.7734375 45.1484375 C69.98195313 44.89320312 69.19046875 44.63796875 68.375 44.375 C67.59898437 44.11460938 66.82296875 43.85421875 66.0234375 43.5859375 C57.09044778 41.85473794 48.16763825 43.54216206 39.29882812 44.93359375 C29.43475602 46.39751965 19.71098438 47.75061078 11 42 C4.72872104 36.59662125 1.37698062 29.04705129 0 21 C-0.07700286 19.30742755 -0.10805067 17.61226001 -0.09765625 15.91796875 C-0.09443359 14.98662109 -0.09121094 14.05527344 -0.08789062 13.09570312 C-0.07951172 12.13599609 -0.07113281 11.17628906 -0.0625 10.1875 C-0.05798828 9.20845703 -0.05347656 8.22941406 -0.04882812 7.22070312 C-0.03708702 4.81377569 -0.01915289 2.40687987 0 0 Z " fill="#F8C298" transform="translate(382,0)"/>
<path d="M0 0 C1.2065625 0.0309375 1.2065625 0.0309375 2.4375 0.0625 C4.51331528 4.68590676 6.05446962 9.17579267 7.4375 14.0625 C7.994375 15.0525 7.994375 15.0525 8.5625 16.0625 C9.86834415 19.04728663 9.56097438 21.85216601 9.4375 25.0625 C10.7575 25.7225 12.0775 26.3825 13.4375 27.0625 C13.4375 27.7225 13.4375 28.3825 13.4375 29.0625 C14.0975 29.0625 14.7575 29.0625 15.4375 29.0625 C15.87320313 30.30644531 16.30890625 31.55039062 16.7578125 32.83203125 C22.79691462 51.93332222 22.79691462 51.93332222 36.69921875 65.2421875 C48.04576303 70.1607194 59.84268559 68.54941126 71.57299805 66.21191406 C77.81971596 65.03069589 84.02903425 64.55534448 90.375 64.25 C91.32189697 64.197229 92.26879395 64.14445801 93.24438477 64.09008789 C101.98586373 63.7457661 110.52188873 64.22265048 117.4375 70.0625 C125.44591788 77.82450502 128.79296548 86.10867288 130.1875 97.0625 C130.31036377 97.96444092 130.43322754 98.86638184 130.55981445 99.7956543 C131.62401887 108.23587063 131.73794665 116.57210026 131.4375 125.0625 C127.1475 125.0625 122.8575 125.0625 118.4375 125.0625 C118.34045776 123.68698975 118.34045776 123.68698975 118.24145508 122.28369141 C117.98790411 118.83409245 117.71535669 115.38703645 117.43041992 111.93994141 C117.31162047 110.45679697 117.20010105 108.97304855 117.09643555 107.48876953 C116.35128221 96.9140097 114.38960366 88.99065549 108.4375 80.0625 C98.63839225 74.90564032 84.77891553 78.4808056 74.375 80.0625 C41.22752541 85.0863876 41.22752541 85.0863876 27.4375 76.0625 C7.8658459 59.91588537 0.15057943 28.28039266 -3.3125 4.25 C-3.395 3.198125 -3.4775 2.14625 -3.5625 1.0625 C-2.5625 0.0625 -2.5625 0.0625 0 0 Z " fill="#F67727" transform="translate(177.5625,282.9375)"/>
<path d="M0 0 C3.3 0 6.6 0 10 0 C10.03867187 1.20269531 10.03867187 1.20269531 10.078125 2.4296875 C10.34537918 19.21027093 10.34537918 19.21027093 16.7734375 33.84375 C19.33225896 34.87108352 21.23845448 35.0235359 24 35 C25.093125 34.99226563 26.18625 34.98453125 27.3125 34.9765625 C32.70908179 34.72803571 37.90977763 34.07019936 43.1875 32.9375 C55.37159347 30.5944051 69.28139949 29.9969527 80 37 C92.89661837 47.53629388 97.02716498 66.44664188 98.8737793 82.14648438 C99.44804355 86.68409895 99.93443966 89.45221669 103 93 C102.6875 96.25 102.6875 96.25 102 99 C101.01 99 100.02 99 99 99 C97.5393715 96.35261084 97 95.10551666 97 92 C95.515 91.505 95.515 91.505 94 91 C92.9241288 88.49084051 92.0457575 86.08472396 91.22265625 83.4921875 C90.97003525 82.73334259 90.71741425 81.97449768 90.45713806 81.19265747 C89.64757329 78.75701472 88.85386123 76.31661254 88.0625 73.875 C87.27324636 71.45536212 86.48042735 69.03710563 85.67857361 66.62161255 C85.17995559 65.11818401 84.68859201 63.61232266 84.20582581 62.10372925 C82.38940836 56.60573881 80.42284572 50.75705559 75.59765625 47.2578125 C74.76105469 46.88398437 73.92445313 46.51015625 73.0625 46.125 C72.22847656 45.73570313 71.39445312 45.34640625 70.53515625 44.9453125 C60.40376971 41.16750735 49.68024394 43.30484865 39.29882812 44.93359375 C29.43475602 46.39751965 19.71098438 47.75061078 11 42 C4.72872104 36.59662125 1.37698062 29.04705129 0 21 C-0.07700286 19.30742755 -0.10805067 17.61226001 -0.09765625 15.91796875 C-0.09443359 14.98662109 -0.09121094 14.05527344 -0.08789062 13.09570312 C-0.07951172 12.13599609 -0.07113281 11.17628906 -0.0625 10.1875 C-0.05798828 9.20845703 -0.05347656 8.22941406 -0.04882812 7.22070312 C-0.03708702 4.81377569 -0.01915289 2.40687987 0 0 Z " fill="#E4853C" transform="translate(382,0)"/>
<path d="M0 0 C2.22857735 3.34286603 3.41993676 6.74788116 4.75 10.5 C10.28478244 25.81689724 10.28478244 25.81689724 22.26171875 36.1796875 C33.60826303 41.0982194 45.40518559 39.48691126 57.13549805 37.14941406 C63.38221596 35.96819589 69.59153425 35.49284448 75.9375 35.1875 C77.35784546 35.10834351 77.35784546 35.10834351 78.80688477 35.02758789 C87.54836373 34.6832661 96.08438873 35.16015048 103 41 C111.00841788 48.76200502 114.35546548 57.04617288 115.75 68 C115.87286377 68.90194092 115.99572754 69.80388184 116.12231445 70.7331543 C117.18651887 79.17337063 117.30044665 87.50960026 117 96 C112.71 96 108.42 96 104 96 C103.90295776 94.62448975 103.90295776 94.62448975 103.80395508 93.22119141 C103.55040411 89.77159245 103.27785669 86.32453645 102.99291992 82.87744141 C102.87412047 81.39429697 102.76260105 79.91054855 102.65893555 78.42626953 C101.91378221 67.8515097 99.95210366 59.92815549 94 51 C84.20089225 45.84314032 70.34141553 49.4183056 59.9375 51 C43.75199638 53.45310244 27.74788376 55.34785873 13 47 C13.99 46.505 13.99 46.505 15 46 C16.65268807 46.57873582 18.27973073 47.23143204 19.890625 47.91796875 C25.99758213 50.22846735 31.27878437 50.50579605 37.75 50.3125 C39.30847656 50.28929687 39.30847656 50.28929687 40.8984375 50.265625 C48.95028839 50.11577666 56.97879374 49.71985184 65 49 C65 48.34 65 47.68 65 47 C72.02379078 45.5501995 78.88922963 44.69586095 86.0546875 44.34375 C89.02483188 43.99710185 91.29238818 43.23890725 94 42 C94 45 94 45 93 47 C95.91482778 47.80967438 97.46113217 48.21845993 100.3125 47.0625 C100.869375 46.711875 101.42625 46.36125 102 46 C97.95932559 41.49309393 94.20725945 39.20609953 88.109375 38.63671875 C86.65615219 38.63521593 85.20281535 38.65305655 83.75 38.6875 C82.9758374 38.696604 82.2016748 38.70570801 81.40405273 38.71508789 C66.98668163 38.98887183 66.98668163 38.98887183 53 42 C42.48316485 42.89458838 32.01794799 42.43262041 22 39 C21.0615625 38.70996094 20.123125 38.41992188 19.15625 38.12109375 C12.53081011 35.84597862 12.53081011 35.84597862 10 31.8125 C9.505 30.4203125 9.505 30.4203125 9 29 C8.34 28.67 7.68 28.34 7 28 C2.09067711 19.06349817 0.6271962 10.05164444 0 0 Z " fill="#ED832A" transform="translate(192,312)"/>
<path d="M0 0 C1.7841013 3.16803035 2.82641795 6.47766877 3.90185547 9.93920898 C8.62558374 25.03376943 15.44887602 43.70020903 29 53 C31.60752423 53.85077235 31.60752423 53.85077235 34.25 54.1875 C38.92794376 54.92794376 38.92794376 54.92794376 40 56 C42.905506 56.10090623 45.78216783 56.13865074 48.6875 56.125 C49.8930957 56.13080078 49.8930957 56.13080078 51.12304688 56.13671875 C55.52795572 56.1295153 59.66382846 55.88264558 64 55 C64 54.34 64 53.68 64 53 C64.62261719 52.98324219 65.24523437 52.96648437 65.88671875 52.94921875 C82.37958247 51.40804459 97.47978122 39.74504062 111.5168457 31.72216797 C117.74349849 28.19272358 124.03529072 24.8847992 130.5 21.8125 C131.25877441 21.4501123 132.01754883 21.08772461 132.79931641 20.71435547 C140.57521833 17.10380276 148.35669981 14.52826923 157 16 C159.30587381 17.3118933 161.14822311 18.78584008 163.140625 20.53125 C165.92728504 22.73247726 168.55794689 23.2829056 172 24 C171.52604668 18.23504902 171.52604668 18.23504902 168 14 C167.773125 13.34 167.54625 12.68 167.3125 12 C165.07131888 8.58486686 161.80757737 7.80644604 158 7 C144.37065199 5.4267252 132.66477369 9.57280668 120.85546875 16.1796875 C120.24316406 16.45039063 119.63085938 16.72109375 119 17 C118.34 16.67 117.68 16.34 117 16 C127.83331505 9.28529662 142.9922628 1.34892745 156.125 3.625 C164.9348995 5.83092163 170.84115502 9.41479716 176 17 C181.30478065 25.96990182 185.0798007 35.44505134 188.5625 45.25 C188.92142334 46.25039307 189.28034668 47.25078613 189.65014648 48.28149414 C190.13463257 49.69676392 190.13463257 49.69676392 190.62890625 51.140625 C190.91838135 51.98141602 191.20785645 52.82220703 191.50610352 53.68847656 C192.0403033 56.18862663 191.82591046 57.60799254 191 60 C190.34 59.01 189.68 58.02 189 57 C188.01 57 187.02 57 186 57 C186.061875 55.783125 186.12375 54.56625 186.1875 53.3125 C186.19453789 49.27978768 185.12834413 47.43809436 183 44 C182.46858997 41.40886117 182.06474648 38.82972298 181.72265625 36.20703125 C181.20035256 33.84529963 181.20035256 33.84529963 179.05859375 32.69921875 C177.04672641 31.89279573 177.04672641 31.89279573 175 32 C177.49382848 57.57104726 186.23404979 87.75532618 205 106 C199.30339248 104.61900424 196.25678946 100.58466499 193 96 C185.42738026 83.34531102 181.26252968 69.10088034 176.8046875 55.13671875 C176.42231934 53.95424561 176.03995117 52.77177246 175.64599609 51.5534668 C174.90412679 49.25310299 174.17445951 46.94875323 173.45947266 44.63989258 C170.37386793 35.07480404 166.60798818 24.8408967 158 19 C137.78506287 14.76138415 115.43314172 31.64507229 98.8347168 41.56982422 C93.03255437 45.02563144 87.10773673 48.11506903 81 51 C80.10152344 51.43957031 79.20304687 51.87914062 78.27734375 52.33203125 C65.83706232 58.25682716 51.0306416 63.71515204 37.17578125 59.83984375 C21.95763274 53.96569307 14.73558628 41.70748379 7.91040039 27.74243164 C6.90346945 25.74001858 6.90346945 25.74001858 5 23 C5 24.65 5 26.3 5 28 C4.34 27.67 3.68 27.34 3 27 C2.49755859 25.26928711 2.49755859 25.26928711 2.1484375 23.02734375 C2.01953125 22.20943359 1.890625 21.39152344 1.7578125 20.54882812 C1.63148437 19.68708984 1.50515625 18.82535156 1.375 17.9375 C1.2409375 17.10283203 1.106875 16.26816406 0.96875 15.40820312 C0.17483452 10.21129723 -0.13366398 5.25542476 0 0 Z " fill="#FDE6D4" transform="translate(0,252)"/>
<path d="M0 0 C11.00995238 8.44911901 14.24732039 15.94409946 18 29 C18.2580542 29.65129883 18.5161084 30.30259766 18.78198242 30.97363281 C22.01823598 39.77043652 21.32729408 48.89683239 21.1875 58.125 C21.17242553 59.86196756 21.15874202 61.59894778 21.14648438 63.3359375 C21.11369824 67.55760852 21.06206914 71.77866213 21 76 C20.34 76 19.68 76 19 76 C16.10976258 63.70685684 16.10976258 63.70685684 15.0625 58.1875 C11.84786807 42.00979947 8.05974816 25.39399897 -2 12 C-2.73494092 10.83696218 -3.46476676 9.67066297 -4.1875 8.5 C-5.82111845 5.7360447 -5.82111845 5.7360447 -9 5 C-16.34509304 4.3180355 -22.04740493 4.99633493 -28.75 8.046875 C-31.78508781 9.33257192 -34.73533441 9.67993475 -38 10 C-39.66934283 10.31966139 -41.3373217 10.64731066 -43 11 C-43.33 10.34 -43.66 9.68 -44 9 C-42.375 7 -42.375 7 -40 5 C-36.75 4.75 -36.75 4.75 -34 5 C-34 4.34 -34 3.68 -34 3 C-33.34 3 -32.68 3 -32 3 C-31.74992188 2.37609375 -31.49984375 1.7521875 -31.2421875 1.109375 C-29.3542278 -2.0965943 -27.1512085 -2.45137663 -23.6953125 -3.45703125 C-15.21763379 -5.16485348 -7.33573764 -4.80484392 0 0 Z " fill="#F67F0C" transform="translate(591,76)"/>
<path d="M0 0 C2.28388273 2.28388273 2.4796026 3.31531992 3.1484375 6.41015625 C3.34711426 7.30951904 3.54579102 8.20888184 3.75048828 9.13549805 C4.05962158 10.58436401 4.05962158 10.58436401 4.375 12.0625 C4.81720468 14.07042349 5.25991854 16.0782349 5.703125 18.0859375 C5.92162109 19.08592773 6.14011719 20.08591797 6.36523438 21.11621094 C8.6458349 31.47715455 11.08113697 41.79902509 14 52 C14.25007812 52.97710937 14.50015625 53.95421875 14.7578125 54.9609375 C18.53864565 68.75586927 25.70310402 85.03075943 37.921875 93.30078125 C45.19862206 96.71363576 54.01535585 94.8833933 61.3125 92.375 C74.15771358 87.25915736 86.33536891 80.92095527 98.2421875 73.921875 C99.18690918 73.37104248 100.13163086 72.82020996 101.10498047 72.25268555 C103.01822344 71.13568596 104.92624063 70.0096816 106.82861328 68.87426758 C107.7101709 68.36017334 108.59172852 67.8460791 109.5 67.31640625 C110.2940625 66.84662354 111.088125 66.37684082 111.90625 65.89282227 C114 65 114 65 117 66 C115.54462432 66.83848804 114.08559627 67.67063934 112.625 68.5 C111.81289062 68.9640625 111.00078125 69.428125 110.1640625 69.90625 C108 71 108 71 106 71 C106.65585189 74.60992379 106.65585189 74.60992379 108 78 C106.80375 77.95875 105.6075 77.9175 104.375 77.875 C100.55465936 77.86825028 97.58332292 78.61553433 94 80 C93.2575 80.12375 92.515 80.2475 91.75 80.375 C90.88375 80.684375 90.88375 80.684375 90 81 C89.7525 81.61875 89.505 82.2375 89.25 82.875 C86.8029413 87.03499979 81.17897622 87.68258333 76.75 88.875 C73.37320805 89.88803758 70.29720637 91.11195787 67.0625 92.5 C55.64977336 97.30014185 45.21390731 97.93871545 33 96 C32.01 95.01 32.01 95.01 31 94 C30.34 93.5875 29.68 93.175 29 92.75 C26.39993522 90.47494331 25.99040313 88.2541817 25 85 C24.34 84.67 23.68 84.34 23 84 C23 82.68 23 81.36 23 80 C22.34 80 21.68 80 21 80 C20.7525 78.865625 20.505 77.73125 20.25 76.5625 C19.06800998 71.77458392 17.11689209 67.43930767 15 63 C14.67 64.65 14.34 66.3 14 68 C12.515 68.495 12.515 68.495 11 69 C10.01 69.99 10.01 69.99 9 71 C6 64.375 6 64.375 6 61 C5.34 61 4.68 61 4 61 C-1.36738186 48.78421405 -0.45339184 36.24966957 -0.25 23.1875 C-0.22990061 20.9342607 -0.21165594 18.68100405 -0.1953125 16.42773438 C-0.15159903 10.95143941 -0.08496113 5.47580231 0 0 Z " fill="#F48010" transform="translate(0,204)"/>
<path d="M0 0 C1.92764888 2.46980013 3 3.85832774 3 7 C3.99 7.33 4.98 7.66 6 8 C6 10.31 6 12.62 6 15 C1.19976321 14.79999013 -1.11800069 14.12675559 -4.75 10.9375 C-8.85175014 7.66398787 -11.93299089 7.22327225 -17.11328125 7.5625 C-30.74529885 9.6285162 -44.12595438 17.21757124 -55.828125 24.296875 C-60.05229848 26.56502726 -62.32509432 26.32806356 -67 26 C-67 26.66 -67 27.32 -67 28 C-68.32 27.67 -69.64 27.34 -71 27 C-71 27.99 -71 28.98 -71 30 C-71.66 30 -72.32 30 -73 30 C-73.33 30.66 -73.66 31.32 -74 32 C-74.66 30.35 -75.32 28.7 -76 27 C-74.625 25.5 -74.625 25.5 -73 24 C-72.34 24 -71.68 24 -71 24 C-71 23.34 -71 22.68 -71 22 C-66.8794254 20.00214565 -63.54805635 19.82164485 -59 20 C-59.66 19.34 -60.32 18.68 -61 18 C-60.91259766 16.05249023 -60.91259766 16.05249023 -60 14 C-58.01318359 12.52368164 -58.01318359 12.52368164 -55.3984375 11.16015625 C-54.4405835 10.65645508 -53.48272949 10.15275391 -52.49584961 9.63378906 C-50.95102905 8.85600098 -50.95102905 8.85600098 -49.375 8.0625 C-48.32771729 7.52979492 -47.28043457 6.99708984 -46.20141602 6.44824219 C-32.10640178 -0.59004967 -15.23948676 -8.33858709 0 0 Z " fill="#F87526" transform="translate(166,261)"/>
<path d="M0 0 C3.3 0 6.6 0 10 0 C10.03867187 1.2375 10.03867187 1.2375 10.078125 2.5 C10.48953555 10.87781482 11.87125432 18.43520722 14.0625 26.50390625 C14.82058329 29.33092518 15.46999591 32.12362363 16 35 C19.68028664 35.87115062 22.9189386 36.0607681 26.69140625 35.87890625 C27.79250732 35.83048584 28.8936084 35.78206543 30.02807617 35.73217773 C31.19443604 35.67618408 32.3607959 35.62019043 33.5625 35.5625 C45.05245155 35.06711649 56.50117435 34.88199609 68 35 C68 35.99 68 36.98 68 38 C69.32 38 70.64 38 72 38 C72 38.99 72 39.98 72 41 C71.35675781 40.84660156 70.71351563 40.69320312 70.05078125 40.53515625 C66.10232463 39.84253326 62.1868113 39.64199119 58.1875 39.4375 C57.00510742 39.37272461 57.00510742 39.37272461 55.79882812 39.30664062 C53.86605785 39.20121679 51.93304974 39.10016906 50 39 C50 39.66 50 40.32 50 41 C18.87121019 44.9129343 18.87121019 44.9129343 8 37 C3.09122451 32.56991716 1.05638784 27.46421784 0 21 C-0.07700286 19.30742755 -0.10805067 17.61226001 -0.09765625 15.91796875 C-0.09443359 14.98662109 -0.09121094 14.05527344 -0.08789062 13.09570312 C-0.07951172 12.13599609 -0.07113281 11.17628906 -0.0625 10.1875 C-0.05798828 9.20845703 -0.05347656 8.22941406 -0.04882812 7.22070312 C-0.03708702 4.81377569 -0.01915289 2.40687987 0 0 Z " fill="#F97B15" transform="translate(382,0)"/>
<path d="M0 0 C16.46303527 -0.83317091 16.46303527 -0.83317091 23.48974609 3.72802734 C24.92333984 5.11474609 24.92333984 5.11474609 25.92333984 8.11474609 C23.67333984 9.73974609 23.67333984 9.73974609 20.92333984 11.11474609 C18.61083984 10.30224609 18.61083984 10.30224609 16.92333984 9.11474609 C17.25333984 7.79474609 17.58333984 6.47474609 17.92333984 5.11474609 C17.28267578 5.42412109 16.64201172 5.73349609 15.98193359 6.05224609 C11.99988647 7.43553705 8.16851249 7.75132804 3.98583984 8.11474609 C-1.59580353 8.62174145 -7.09984462 9.27234142 -12.63525391 10.16162109 C-20.11974597 11.25307782 -27.46545504 11.4196412 -35.01220703 11.37548828 C-37.2344788 11.36458507 -39.45597235 11.37555165 -41.67822266 11.38818359 C-43.10530776 11.38686472 -44.53239238 11.38430798 -45.95947266 11.38037109 C-47.23193848 11.37811523 -48.5044043 11.37585938 -49.81542969 11.37353516 C-52.85116256 11.13264005 -54.5373007 10.72048234 -57.07666016 9.11474609 C-56.20166016 5.23974609 -56.20166016 5.23974609 -55.07666016 4.11474609 C-53.25185278 4.06364694 -51.42511166 4.079466 -49.60009766 4.12255859 C-36.87571273 4.33229131 -25.46970594 4.09796326 -13.07666016 1.11474609 C-8.72342699 0.43632015 -4.39361594 0.24276975 0 0 Z " fill="#FC7A10" transform="translate(268.07666015625,349.88525390625)"/>
<path d="M0 0 C0.66 0 1.32 0 2 0 C4.46517436 4.39444126 5.31954555 8.04240333 6 13 C6.66 13.33 7.32 13.66 8 14 C11.28253602 20.56507205 11.14234926 27.76949324 11.0625 34.9375 C11.05798828 35.71673828 11.05347656 36.49597656 11.04882812 37.29882812 C11.03716908 39.19925268 11.01923877 41.09963706 11 43 C7.37 43 3.74 43 0 43 C-0.16746774 38.19470128 -0.32804214 33.38924097 -0.48217773 28.58349609 C-0.53561099 26.94801607 -0.5909414 25.31259689 -0.64819336 23.67724609 C-0.73006761 21.32923506 -0.80515983 18.9810911 -0.87890625 16.6328125 C-0.90594131 15.89942657 -0.93297638 15.16604065 -0.96083069 14.41043091 C-1.11387171 9.22774341 -1.11387171 9.22774341 0 7 C-0.66 7 -1.32 7 -2 7 C-1.34 4.69 -0.68 2.38 0 0 Z " fill="#F48C23" transform="translate(298,365)"/>
<path d="M0 0 C67.32 0 134.64 0 204 0 C204 0.33 204 0.66 204 1 C137.67 1 71.34 1 3 1 C2.56177026 15.59318947 2.56177026 15.59318947 9 28 C18.32391182 28.82495516 27.18130259 26.76982253 36.125 24.375 C41.26181103 23.0405021 45.7098465 22.73549233 51 23 C51 23.33 51 23.66 51 24 C50.36578125 24.07476563 49.7315625 24.14953125 49.078125 24.2265625 C41.20901413 25.33519414 33.9045154 27.42450724 26.38378906 29.96728516 C19.7901154 32.09127196 12.61183271 33.72739825 6.125 30.625 C-1.56614262 21.12417677 0 12.79490725 0 0 Z " fill="#2D94FA" transform="translate(408,0)"/>
<path d="M0 0 C11.72170038 8.59591361 16.64854543 24.38649538 21.3203125 37.5390625 C21.67923584 38.53945557 22.03815918 39.53984863 22.40795898 40.57055664 C22.73094971 41.51406982 23.05394043 42.45758301 23.38671875 43.4296875 C23.67619385 44.27047852 23.96566895 45.11126953 24.26391602 45.97753906 C24.7981158 48.47768913 24.58372296 49.89705504 23.7578125 52.2890625 C23.0978125 51.2990625 22.4378125 50.3090625 21.7578125 49.2890625 C20.7678125 49.2890625 19.7778125 49.2890625 18.7578125 49.2890625 C18.8196875 48.0721875 18.8815625 46.8553125 18.9453125 45.6015625 C18.95235039 41.56885018 17.88615663 39.72715686 15.7578125 36.2890625 C15.22640247 33.69792367 14.82255898 31.11878548 14.48046875 28.49609375 C13.95816506 26.13436213 13.95816506 26.13436213 11.81640625 24.98828125 C9.80453891 24.18185823 9.80453891 24.18185823 7.7578125 24.2890625 C8.2528125 30.2290625 8.2528125 30.2290625 8.7578125 36.2890625 C6.35531097 33.88656097 5.58827681 31.74974803 4.3203125 28.6015625 C3.88460937 27.53035156 3.44890625 26.45914062 3 25.35546875 C2.59007812 24.34355469 2.18015625 23.33164062 1.7578125 22.2890625 C0.76945935 19.95047886 -0.23568675 17.61990635 -1.2421875 15.2890625 C0.7378125 15.6190625 2.7178125 15.9490625 4.7578125 16.2890625 C4.28385918 10.52411152 4.28385918 10.52411152 0.7578125 6.2890625 C0.4175 5.2990625 0.4175 5.2990625 0.0703125 4.2890625 C-2.17086862 0.87392936 -5.43461013 0.09550854 -9.2421875 -0.7109375 C-22.87153551 -2.2842123 -34.57741381 1.86186918 -46.38671875 8.46875 C-46.99902344 8.73945313 -47.61132812 9.01015625 -48.2421875 9.2890625 C-48.9021875 8.9590625 -49.5621875 8.6290625 -50.2421875 8.2890625 C-42.72686755 3.63091824 -34.57419445 0.20526493 -26.2421875 -2.7109375 C-25.1903125 -3.1440625 -24.1384375 -3.5771875 -23.0546875 -4.0234375 C-15.45441945 -5.39397764 -6.72901195 -3.91352578 0 0 Z " fill="#F57533" transform="translate(167.2421875,259.7109375)"/>
<path d="M0 0 C-0.33 0.99 -0.66 1.98 -1 3 C-2.98 3.33 -4.96 3.66 -7 4 C-7 4.99 -7 5.98 -7 7 C-9.33214148 8.20628008 -11.49642139 9.1654738 -14 10 C-14 10.33 -14 10.66 -14 11 C-15.98 11 -17.96 11 -20 11 C-20 11.99 -20 12.98 -20 14 C-24.74520833 19.25362351 -32.761833 21.54232812 -39.640625 22.28515625 C-48.449135 22.38724163 -48.449135 22.38724163 -51.703125 19.4765625 C-52.21359375 18.86554688 -52.7240625 18.25453125 -53.25 17.625 C-53.77078125 17.01914063 -54.2915625 16.41328125 -54.828125 15.7890625 C-56 14 -56 14 -56 11 C-54.68 11 -53.36 11 -52 11 C-52 11.66 -52 12.32 -52 13 C-36.92548696 14.15464355 -26.36807141 9.96561644 -13.46484375 2.19921875 C-9.13633008 0.09326995 -4.75312647 -0.13979784 0 0 Z " fill="#F3782F" transform="translate(541,90)"/>
<path d="M0 0 C2.4752102 2.4752102 2.68722345 4.18401709 3.5625 7.5625 C7.46138771 20.587673 14.36762384 35.48052589 25.921875 43.30078125 C33.19862206 46.71363576 42.01535585 44.8833933 49.3125 42.375 C62.15771358 37.25915736 74.33536891 30.92095527 86.2421875 23.921875 C87.18690918 23.37104248 88.13163086 22.82020996 89.10498047 22.25268555 C91.01822344 21.13568596 92.92624063 20.0096816 94.82861328 18.87426758 C96.15094971 18.10312622 96.15094971 18.10312622 97.5 17.31640625 C98.2940625 16.84662354 99.088125 16.37684082 99.90625 15.89282227 C102 15 102 15 105 16 C103.54462432 16.83848804 102.08559627 17.67063934 100.625 18.5 C99.81289062 18.9640625 99.00078125 19.428125 98.1640625 19.90625 C96 21 96 21 94 21 C94.65585189 24.60992379 94.65585189 24.60992379 96 28 C94.80375 27.95875 93.6075 27.9175 92.375 27.875 C88.55465936 27.86825028 85.58332292 28.61553433 82 30 C80.88625 30.185625 80.88625 30.185625 79.75 30.375 C79.1725 30.58125 78.595 30.7875 78 31 C77.62875 31.928125 77.62875 31.928125 77.25 32.875 C74.8029413 37.03499979 69.17897622 37.68258333 64.75 38.875 C61.37320805 39.88803758 58.29720637 41.11195787 55.0625 42.5 C43.64977336 47.30014185 33.21390731 47.93871545 21 46 C20.34 45.34 19.68 44.68 19 44 C18.01 43.38125 18.01 43.38125 17 42.75 C14.39993522 40.47494331 13.99040313 38.2541817 13 35 C12.34 34.67 11.68 34.34 11 34 C11 32.68 11 31.36 11 30 C10.34 30 9.68 30 9 30 C8.7525 28.88625 8.505 27.7725 8.25 26.625 C7.204711 22.42160379 5.66719104 18.53006477 4.01953125 14.53125 C0 4.55172414 0 4.55172414 0 0 Z " fill="#F7CEA6" transform="translate(12,254)"/>
<path d="M0 0 C3.50949046 3.08955143 5.06522821 5.90923504 6.75 10.25 C6.99459961 10.87535645 7.23919922 11.50071289 7.49121094 12.14501953 C10.3818419 19.70389445 12.83955753 27.42524712 15.28417969 35.13769531 C15.60805664 36.14155273 15.93193359 37.14541016 16.265625 38.1796875 C16.55211914 39.08444824 16.83861328 39.98920898 17.13378906 40.92138672 C17.80766475 43.17615821 17.80766475 43.17615821 20 44 C21.05352843 46.30965848 22.05719096 48.6429774 23 51 C23.66 50.34 24.32 49.68 25 49 C24.67028521 45.70285207 24.3773161 44.3773161 22 42 C21.5326333 39.1092504 21.16300658 36.28339431 20.875 33.375 C20.78863281 32.57320312 20.70226562 31.77140625 20.61328125 30.9453125 C20.40103673 28.96436365 20.19950069 26.98227282 20 25 C22.03860325 28.05790487 23.24007083 30.88997435 24.5625 34.3125 C24.99691406 35.42238281 25.43132812 36.53226563 25.87890625 37.67578125 C26.93313137 40.80172402 27.56065405 43.73699242 28 47 C28.66 47 29.32 47 30 47 C31.0064275 48.66279327 32.00585407 50.32983484 33 52 C36.03525486 54.02350324 37.19426202 54.32124018 40.6875 54.625 C41.49574219 54.69976562 42.30398438 54.77453125 43.13671875 54.8515625 C43.75160156 54.90054688 44.36648438 54.94953125 45 55 C45 55.33 45 55.66 45 56 C43.06257659 56.02703381 41.12504521 56.04641125 39.1875 56.0625 C38.10855469 56.07410156 37.02960938 56.08570313 35.91796875 56.09765625 C33 56 33 56 30 55 C30 54.34 30 53.68 30 53 C28.68 53 27.36 53 26 53 C26.18828772 55.44480079 26.18828772 55.44480079 27 58 C28.96672915 59.1500831 28.96672915 59.1500831 31 60 C31.33 60.99 31.66 61.98 32 63 C43.08491335 63.64364013 51.77694436 61.78009814 61.625 56.6875 C62.73875 56.130625 63.8525 55.57375 65 55 C65.66 55.33 66.32 55.66 67 56 C62.20432631 59.90758597 56.7920339 61.43384447 50.98828125 63.31640625 C48.96099426 63.96445733 48.96099426 63.96445733 47 65 C33.47755244 65.97122552 33.47755244 65.97122552 28 62 C25.125 59.4375 25.125 59.4375 23 57 C23 56.34 23 55.68 23 55 C22.34 55 21.68 55 21 55 C16.26395498 45.07009228 12.18790639 35.26457251 9.1965332 24.67944336 C7.33065668 18.08169821 5.38533663 12.00542784 2.015625 5.98046875 C0.99616595 3.99252361 0.4508784 2.18087924 0 0 Z " fill="#F9C7AA" transform="translate(459,48)"/>
<path d="M0 0 C-0.66 1.98 -1.32 3.96 -2 6 C-5.3 6.33 -8.6 6.66 -12 7 C-12 7.66 -12 8.32 -12 9 C-17.05873968 11.02510951 -21.44969934 11.34831917 -26.8125 11.3125 C-27.60769043 11.31121094 -28.40288086 11.30992187 -29.22216797 11.30859375 C-35.00476275 11.21381654 -39.67242466 10.36781126 -45 8 C-45 7.34 -45 6.68 -45 6 C-44.01 6 -43.02 6 -42 6 C-42 5.34 -42 4.68 -42 4 C-37.46521068 3.15631827 -33.17966206 2.95704966 -28.5625 3 C-19.47193183 3.21288825 -19.47193183 3.21288825 -11 0.375 C-6.8679173 -1.51887124 -4.41601459 -0.83752001 0 0 Z " fill="#FC7B0F" transform="translate(76,298)"/>
<path d="M0 0 C2.22857735 3.34286603 3.41993676 6.74788116 4.75 10.5 C10.28478244 25.81689724 10.28478244 25.81689724 22.26171875 36.1796875 C33.60826303 41.0982194 45.40518559 39.48691126 57.13549805 37.14941406 C63.38221596 35.96819589 69.59153425 35.49284448 75.9375 35.1875 C77.35784546 35.10834351 77.35784546 35.10834351 78.80688477 35.02758789 C87.54836373 34.6832661 96.08438873 35.16015048 103 41 C111.88556153 49.61215963 114.58571368 57.75783923 115 70 C112.93904917 66.90857375 112.40538726 64.89769087 111.625 61.3125 C109.31186766 51.85486531 106.19784533 45.6484223 98 40 C92.62975535 37.51816323 87.82612889 37.65808439 82 37.6875 C80.93491211 37.68878906 79.86982422 37.69007813 78.77246094 37.69140625 C71.81205499 37.77409596 65.11468608 38.38005785 58.25 39.5 C44.94874936 41.62488076 31.84828301 43.02252609 18.9375 38.375 C18.27645264 38.13982666 17.61540527 37.90465332 16.93432617 37.66235352 C12.30335587 35.74437786 10.88904572 33.52132255 9 29 C8.34 28.67 7.68 28.34 7 28 C2.09067711 19.06349817 0.6271962 10.05164444 0 0 Z " fill="#FDE7CE" transform="translate(192,312)"/>
<path d="M0 0 C1.7841013 3.16803035 2.82641795 6.47766877 3.90185547 9.93920898 C8.62558374 25.03376943 15.44887602 43.70020903 29 53 C31.60752423 53.85077235 31.60752423 53.85077235 34.25 54.1875 C38.92794376 54.92794376 38.92794376 54.92794376 40 56 C42.905506 56.10090623 45.78216783 56.13865074 48.6875 56.125 C49.8930957 56.13080078 49.8930957 56.13080078 51.12304688 56.13671875 C55.52795572 56.1295153 59.66382846 55.88264558 64 55 C64 54.34 64 53.68 64 53 C68.95 52.505 68.95 52.505 74 52 C74 52.66 74 53.32 74 54 C61.15356186 59.27549654 48.73657823 63.6313177 35 59 C21.0305496 52.70824753 14.34993373 40.91839788 7.91040039 27.74243164 C6.90346945 25.74001858 6.90346945 25.74001858 5 23 C5 24.65 5 26.3 5 28 C4.34 27.67 3.68 27.34 3 27 C2.49755859 25.26928711 2.49755859 25.26928711 2.1484375 23.02734375 C2.01953125 22.20943359 1.890625 21.39152344 1.7578125 20.54882812 C1.63148437 19.68708984 1.50515625 18.82535156 1.375 17.9375 C1.2409375 17.10283203 1.106875 16.26816406 0.96875 15.40820312 C0.17483452 10.21129723 -0.13366398 5.25542476 0 0 Z " fill="#F1BD91" transform="translate(0,252)"/>
<path d="M0 0 C4.7722403 0.92365941 8.92738878 1.90515186 13.3125 4 C21.29061722 7.41010433 30.4422216 7.38712853 39 8 C39 8.33 39 8.66 39 9 C30.09 9 21.18 9 12 9 C11.34 10.32 10.68 11.64 10 13 C12.84313331 13.80974903 15.35702965 14.12241859 18.30957031 14.11352539 C19.15013977 14.11344986 19.99070923 14.11337433 20.85675049 14.11329651 C21.75480408 14.10813522 22.65285767 14.10297394 23.578125 14.09765625 C24.96798615 14.09553383 24.96798615 14.09553383 26.38592529 14.09336853 C29.34064992 14.08777824 32.29529833 14.0752275 35.25 14.0625 C37.25520724 14.05748375 39.26041567 14.05292106 41.265625 14.04882812 C46.17711263 14.03781199 51.0885434 14.020554 56 14 C56 14.33 56 14.66 56 15 C46.9248662 16.62887017 37.96492016 17.26067097 28.75 17.375 C27.75742188 17.40078125 26.76484375 17.4265625 25.7421875 17.453125 C15.21768718 17.48104145 5.69708221 14.37637045 -2 7 C-4 4.125 -4 4.125 -5 2 C-3.68 2.33 -2.36 2.66 -1 3 C-0.67 2.01 -0.34 1.02 0 0 Z " fill="#F37D23" transform="translate(201,346)"/>
<path d="M0 0 C0.33 0.99 0.66 1.98 1 3 C0.01 4.485 0.01 4.485 -1 6 C1.22584849 8.22584849 8.12408917 7.40992678 11.16796875 7.5234375 C15.17444996 8.0216951 17.67780317 8.71126349 21 11 C21.875 13.6875 21.875 13.6875 22 16 C21.21689453 15.3503125 21.21689453 15.3503125 20.41796875 14.6875 C15.23365027 10.76521351 11.42558212 9.15511282 4.8984375 9.5390625 C-3.34905984 10.85065911 -10.64886059 14.18829808 -18 18 C-18.66 18 -19.32 18 -20 18 C-20 17.34 -20 16.68 -20 16 C-18.35 15.67 -16.7 15.34 -15 15 C-15.66 13.02 -16.32 11.04 -17 9 C-17.33 9.66 -17.66 10.32 -18 11 C-20.31 10.67 -22.62 10.34 -25 10 C-18.31728388 4.61931543 -8.62300503 0 0 0 Z " fill="#F6772A" transform="translate(144,259)"/>
<path d="M0 0 C0.6875 2.0625 0.6875 2.0625 1 4 C1.78375 4.103125 2.5675 4.20625 3.375 4.3125 C6 5 6 5 8 8 C4.47352849 9.21222458 3.12010913 9.05115759 -0.375 7.5625 C-6.52047143 4.95245422 -13.45302275 5.76983283 -20 6 C-20 6.66 -20 7.32 -20 8 C-22.90600261 9.25664978 -24.79604584 10 -28 10 C-28 10.66 -28 11.32 -28 12 C-31.78187881 13.83691257 -33.94568308 14.15837626 -38 13 C-36.25 9.125 -36.25 9.125 -34 8 C-32.00039988 7.960008 -29.99952758 7.95653201 -28 8 C-28 7.34 -28 6.68 -28 6 C-27.34 6 -26.68 6 -26 6 C-25.74992188 5.37609375 -25.49984375 4.7521875 -25.2421875 4.109375 C-23.3580682 0.90992713 -21.15909635 0.55888592 -17.71875 -0.46875 C-11.92069994 -1.60170231 -5.63496913 -1.87832304 0 0 Z " fill="#FB7814" transform="translate(585,73)"/>
<path d="M0 0 C0.33 0 0.66 0 1 0 C1.18175781 1.19238281 1.36351563 2.38476562 1.55078125 3.61328125 C1.80404926 5.17979082 2.05799072 6.74619162 2.3125 8.3125 C2.43044922 9.09818359 2.54839844 9.88386719 2.66992188 10.69335938 C2.79560547 11.45068359 2.92128906 12.20800781 3.05078125 12.98828125 C3.16075439 13.68477783 3.27072754 14.38127441 3.3840332 15.09887695 C4.12966153 17.400188 5.27751167 18.33927752 7 20 C7.82857109 22.43428471 8.5166739 24.76316289 9.125 27.25 C9.29386719 27.89324219 9.46273438 28.53648437 9.63671875 29.19921875 C10.72378322 33.45332145 11.44821889 37.65331612 12 42 C10 39 10 39 10 36 C9.01 35.67 8.02 35.34 7 35 C5.18342256 30.76131932 4.60049889 26.54663446 4 22 C3.67 21.01 3.34 20.02 3 19 C2.34 19 1.68 19 1 19 C1 60.91 1 102.82 1 146 C0.67 146 0.34 146 0 146 C0 97.82 0 49.64 0 0 Z " fill="#2797FE" transform="translate(0,262)"/>
<path d="M0 0 C1.19625 0.515625 2.3925 1.03125 3.625 1.5625 C11.62561274 4.22937091 20.10559843 2.67202942 28.1875 0.9375 C40.29342019 -1.39056157 54.38609981 -2.07033541 65 5 C67.66242194 7.46638745 69.9108609 10.0354822 72 13 C71.67 13.66 71.34 14.32 71 15 C70.195625 14.01 69.39125 13.02 68.5625 12 C67.2940625 10.515 67.2940625 10.515 66 9 C65.67 9 65.34 9 65 9 C64.67 10.32 64.34 11.64 64 13 C60.85262818 12.30058404 57.97411124 11.23921302 55 10 C55.66 9.67 56.32 9.34 57 9 C57 8.01 57 7.02 57 6 C55.68 6 54.36 6 53 6 C53 5.01 53 4.02 53 3 C51.86046875 3.06058594 50.7209375 3.12117188 49.546875 3.18359375 C45.2903118 3.40934467 41.03360694 3.63232195 36.77685547 3.85449219 C34.93990203 3.95074894 33.10298704 4.04774243 31.26611328 4.14550781 C28.61500836 4.28647812 25.96377323 4.4247358 23.3125 4.5625 C22.50071289 4.60624756 21.68892578 4.64999512 20.85253906 4.69506836 C5.32789852 5.49182036 5.32789852 5.49182036 1 3 C0.67 2.01 0.34 1.02 0 0 Z " fill="#E9863D" transform="translate(397,32)"/>
<path d="M0 0 C5.88672829 3.02291453 7.65389576 6.63768156 9.625 12.75 C10.82266112 16.88625231 11.3350577 20.82756404 11.6796875 25.10546875 C12.10501963 27.62115267 13.48106768 28.99777104 15 31 C14.6875 34.25 14.6875 34.25 14 37 C13.01 37 12.02 37 11 37 C9.5393715 34.35261084 9 33.10551666 9 30 C8.34 30 7.68 30 7 30 C6.81824219 29.2265625 6.63648438 28.453125 6.44921875 27.65625 C5.14490603 22.25171319 3.74305989 17.05189222 1.69921875 11.8828125 C0.49202603 8.63215946 -0.29724849 5.3966323 -1 2 C-0.67 1.34 -0.34 0.68 0 0 Z " fill="#FA7222" transform="translate(470,62)"/>
<path d="M0 0 C0.99 0 1.98 0 3 0 C3.25394531 0.86882812 3.50789062 1.73765625 3.76953125 2.6328125 C4.28580078 4.36144531 4.28580078 4.36144531 4.8125 6.125 C5.14894531 7.26195312 5.48539063 8.39890625 5.83203125 9.5703125 C6.92300657 13.03394245 6.92300657 13.03394245 8.63671875 16.2421875 C10 19 10 19 10 22 C10.639375 22.2475 11.27875 22.495 11.9375 22.75 C14 24 14 24 14.75 26.125 C14.87375 27.053125 14.87375 27.053125 15 28 C14.01 28.33 13.02 28.66 12 29 C11.67 29.66 11.34 30.32 11 31 C9.68 30.67 8.36 30.34 7 30 C6.15901344 25.98195309 5.94595055 22.98196457 7 19 C5.68 19 4.36 19 3 19 C0.05417068 17.52708534 -0.34354937 15.17077666 -1.39453125 12.19921875 C-2.26585339 9.03435189 -2.31902939 6.2540998 -2 3 C-1.34 2.01 -0.68 1.02 0 0 Z " fill="#FC7619" transform="translate(189,318)"/>
<path d="M0 0 C3.3 0 6.6 0 10 0 C10.03867187 1.20269531 10.03867187 1.20269531 10.078125 2.4296875 C10.58609133 12.61210357 12.59150304 22.1195613 15 32 C9.48627308 27.27394836 8.59503197 21.53361115 8.02539062 14.65234375 C7.95513672 13.65332031 7.88488281 12.65429688 7.8125 11.625 C7.73064453 10.60277344 7.64878906 9.58054687 7.56445312 8.52734375 C7.36518214 6.01887366 7.17738188 3.5100969 7 1 C5.68 1 4.36 1 3 1 C3.08215994 4.77164068 3.19487406 8.54181197 3.3125 12.3125 C3.34633789 13.8912793 3.34633789 13.8912793 3.38085938 15.50195312 C3.62508126 22.71759983 4.7844521 29.12914868 7 36 C2.05731554 31.44389421 0.18635533 25.09621048 -0.11352539 18.50463867 C-0.10828857 17.6510376 -0.10305176 16.79743652 -0.09765625 15.91796875 C-0.09443359 14.98662109 -0.09121094 14.05527344 -0.08789062 13.09570312 C-0.07951172 12.13599609 -0.07113281 11.17628906 -0.0625 10.1875 C-0.05798828 9.20845703 -0.05347656 8.22941406 -0.04882812 7.22070312 C-0.03708702 4.81377569 -0.01915289 2.40687987 0 0 Z " fill="#E9B279" transform="translate(382,0)"/>
<path d="M0 0 C3.03511373 1.10367772 5.34214774 2.24235465 8 4.125 C13.87807256 7.59254719 21.57905053 6.55710119 28.0703125 5.5 C33.83667757 4.76630743 39.56751666 4.73474092 45.375 4.6875 C46.55578125 4.65849609 47.7365625 4.62949219 48.953125 4.59960938 C55.96084109 4.54888537 62.07224247 4.92992713 68 9 C68.99 10.485 68.99 10.485 70 12 C69.43539062 11.70351563 68.87078125 11.40703125 68.2890625 11.1015625 C66.00814775 10.00392093 63.78343772 9.15166233 61.375 8.375 C60.59898437 8.11460938 59.82296875 7.85421875 59.0234375 7.5859375 C50.09044778 5.85473794 41.16763825 7.54216206 32.29882812 8.93359375 C22.21071848 10.43076903 13.02379553 11.50414084 4 6 C1.4375 3.875 1.4375 3.875 0 2 C0 1.34 0 0.68 0 0 Z " fill="#F4C69D" transform="translate(389,36)"/>
<path d="M0 0 C4.6601238 3.18509331 6.69902461 6.48220549 9.0625 11.4375 C9.40539062 12.14036133 9.74828125 12.84322266 10.1015625 13.56738281 C13.60343988 20.94063224 17 28.7452963 17 37 C17.66 37 18.32 37 19 37 C23.52069062 47.26091639 24.16657337 55.89510883 24 67 C23.34 67 22.68 67 22 67 C19.10976258 54.70685684 19.10976258 54.70685684 18.0625 49.1875 C15.04290536 33.99132862 11.64772082 17.32202073 2.19921875 4.69921875 C1 3 1 3 0 0 Z " fill="#F1C698" transform="translate(588,85)"/>
<path d="M0 0 C-1 3 -1 3 -4 5 C-8.31021455 5.86955761 -12.64164056 6.39587097 -17 7 C-12.71 7.66 -8.42 8.32 -4 9 C-7.65166398 11.43444265 -10.14384429 12.13948113 -14.4375 12.125 C-15.58025391 12.12886719 -15.58025391 12.12886719 -16.74609375 12.1328125 C-20.05487416 11.93784104 -22.17967217 11.73377949 -24.703125 9.4765625 C-25.21359375 8.86554688 -25.7240625 8.25453125 -26.25 7.625 C-26.77078125 7.01914063 -27.2915625 6.41328125 -27.828125 5.7890625 C-29 4 -29 4 -29 1 C-27.68 1 -26.36 1 -25 1 C-25 1.66 -25 2.32 -25 3 C-16.26365477 3.30713714 -7.97666238 0 0 0 Z " fill="#FB7223" transform="translate(514,100)"/>
<path d="M0 0 C0.90492188 0.30744141 0.90492188 0.30744141 1.828125 0.62109375 C3.02695313 1.02521484 3.02695313 1.02521484 4.25 1.4375 C5.03890625 1.70433594 5.8278125 1.97117187 6.640625 2.24609375 C19.62829388 6.39612702 35.10605723 4.55175199 48.375 2.5 C55.27443533 1.43540238 62.01237234 0.67702784 69 0.625 C70.08547119 0.60469727 70.08547119 0.60469727 71.19287109 0.58398438 C76.58346144 0.63004686 80.70606337 1.79869264 84.64453125 5.578125 C87.57379914 9.77119075 88.68656441 12.88055202 89 18 C86.47159861 14.86959828 84.76503694 11.60681461 83 8 C80.72134185 4.58201277 79.83411482 4.14493507 76 3 C66.22729387 2.14079157 56.5816742 3.53380813 46.9375 5 C30.75199638 7.45310244 14.74788376 9.34785873 0 1 C0 0.67 0 0.34 0 0 Z " fill="#FEEAD5" transform="translate(205,358)"/>
<path d="M0 0 C0.33 0 0.66 0 1 0 C1.02578125 0.89460938 1.0515625 1.78921875 1.078125 2.7109375 C1.50400014 11.78982115 2.47677269 21.07486769 9 28 C17.62846489 29.89955011 27.8211689 26.59848777 36.125 24.375 C41.26181103 23.0405021 45.7098465 22.73549233 51 23 C51 23.33 51 23.66 51 24 C50.36578125 24.07476563 49.7315625 24.14953125 49.078125 24.2265625 C41.20901413 25.33519414 33.9045154 27.42450724 26.38378906 29.96728516 C19.7901154 32.09127196 12.61183271 33.72739825 6.125 30.625 C-1.31567245 21.43358109 -0.43944908 11.20595146 0 0 Z " fill="#A1CCF5" transform="translate(408,0)"/>
<path d="M0 0 C3.650435 3.17429131 5.47380613 6.5871852 7.25 11 C7.54084473 11.71260986 7.83168945 12.42521973 8.13134766 13.15942383 C13.33233778 26.45344063 17.84224027 40.87444595 20 55 C15.99404565 48.99106847 13.31711744 43.62442632 11.4375 36.6875 C11.01581065 35.19265595 10.59393624 33.69786409 10.171875 32.203125 C9.97271484 31.48576172 9.77355469 30.76839844 9.56835938 30.02929688 C8.80990034 27.32125927 8.00262658 24.62895568 7.1875 21.9375 C6.95417969 21.16277344 6.72085938 20.38804687 6.48046875 19.58984375 C6.32191406 19.06519531 6.16335937 18.54054688 6 18 C5.67 18 5.34 18 5 18 C4.34 13.71 3.68 9.42 3 5 C1.02 4.34 -0.96 3.68 -3 3 C-2.01 2.01 -1.02 1.02 0 0 Z " fill="#98C3F3" transform="translate(165,300)"/>
<path d="M0 0 C1.7841013 3.16803035 2.82641795 6.47766877 3.90185547 9.93920898 C8.78956184 25.55775753 15.57028017 42.84162218 29 53 C30.66666667 54.33333333 32.33333333 55.66666667 34 57 C27.21521989 55.95618767 22.46999386 50.93802762 18.16015625 45.98046875 C14.05455462 40.31577789 11.01783221 34.01875466 7.92626953 27.75830078 C6.90365187 25.7439332 6.90365187 25.7439332 5 23 C5 24.65 5 26.3 5 28 C4.34 27.67 3.68 27.34 3 27 C2.49755859 25.26928711 2.49755859 25.26928711 2.1484375 23.02734375 C2.01953125 22.20943359 1.890625 21.39152344 1.7578125 20.54882812 C1.63148437 19.68708984 1.50515625 18.82535156 1.375 17.9375 C1.2409375 17.10283203 1.106875 16.26816406 0.96875 15.40820312 C0.17483452 10.21129723 -0.13366398 5.25542476 0 0 Z " fill="#FDE9D4" transform="translate(0,252)"/>
<path d="M0 0 C5.46605107 2.73302554 7.58172644 14.40606086 9.6171875 20.0625 C10.06721336 22.34018191 9.71279552 23.81279183 9 26 C8.38125 24.3603125 8.38125 24.3603125 7.75 22.6875 C6.39714409 19.48984058 5.05944156 17.79346574 2 16 C0.72644513 19.82066461 1.52099762 21.38917017 2.75 25.1875 C3.11996094 26.34507813 3.48992187 27.50265625 3.87109375 28.6953125 C4.78068668 31.35799631 5.75544734 33.95674228 6.8125 36.5625 C8.00704039 40.02038007 8.04913417 40.73840601 7 44 C5.40351507 39.50164435 3.81896027 34.9993326 2.24536133 30.49291992 C1.70826638 28.96019474 1.16791736 27.42860584 0.62426758 25.89819336 C-0.15619565 23.69935403 -0.92490048 21.49670623 -1.69140625 19.29296875 C-1.93717911 18.60849167 -2.18295197 17.92401459 -2.43617249 17.21879578 C-4.11387171 12.34161512 -4.11387171 12.34161512 -3 9 C-2.71125 9.639375 -2.4225 10.27875 -2.125 10.9375 C-1.17176549 13.15206079 -1.17176549 13.15206079 1 14 C0.67 9.38 0.34 4.76 0 0 Z M-1 9 C-0.01 9.495 -0.01 9.495 1 10 C0.01 10.495 0.01 10.495 -1 11 C-1 10.34 -1 9.68 -1 9 Z " fill="#E87E42" transform="translate(469,47)"/>
<path d="M0 0 C0.66 0.33 1.32 0.66 2 1 C2 1.66 2 2.32 2 3 C2.66 3 3.32 3 4 3 C4 4.32 4 5.64 4 7 C4.99 7.33 5.98 7.66 7 8 C7.309375 8.969375 7.61875 9.93875 7.9375 10.9375 C8.68468021 14.10504047 8.68468021 14.10504047 11.125 15.375 C11.74375 15.58125 12.3625 15.7875 13 16 C9.55549263 18.29633824 7.06187717 18.54016485 3 19 C0.70986347 15.5647952 0.82157027 14.014669 1 10 C0.01 9.67 -0.98 9.34 -2 9 C-2 8.34 -2 7.68 -2 7 C-2.66 7 -3.32 7 -4 7 C-4 4 -4 4 -2 1.8125 C-1.34 1.214375 -0.68 0.61625 0 0 Z " fill="#F97D0A" transform="translate(19,281)"/>
<path d="M0 0 C1.32 0 2.64 0 4 0 C7.48186528 23.03626943 7.48186528 23.03626943 5 28 C4.01 27.67 3.02 27.34 2 27 C2 24.69 2 22.38 2 20 C1.34 20 0.68 20 0 20 C0 13.4 0 6.8 0 0 Z " fill="#F2810C" transform="translate(385,1)"/>
<path d="M0 0 C6.01513723 4.47483719 11.11238959 11.29989156 13.76953125 18.31640625 C13.27453125 19.80140625 13.27453125 19.80140625 12.76953125 21.31640625 C12.455 20.73632812 12.14046875 20.15625 11.81640625 19.55859375 C10.48746395 17.13287376 9.12984875 14.72464275 7.76953125 12.31640625 C6.90328125 10.73859375 6.90328125 10.73859375 6.01953125 9.12890625 C2.23215939 4.39469142 -3.13434674 0.34181679 -9.23046875 -0.68359375 C-23.02126068 -1.97245281 -34.39244257 1.7922844 -46.375 8.49609375 C-46.98730469 8.76679688 -47.59960938 9.0375 -48.23046875 9.31640625 C-48.89046875 8.98640625 -49.55046875 8.65640625 -50.23046875 8.31640625 C-42.7151488 3.65826199 -34.5624757 0.23260868 -26.23046875 -2.68359375 C-25.17859375 -3.11671875 -24.12671875 -3.54984375 -23.04296875 -3.99609375 C-15.42682208 -5.36949725 -6.76603086 -3.86019866 0 0 Z " fill="#FEE7D9" transform="translate(167.23046875,259.68359375)"/>
<path d="M0 0 C1.32 0.66 2.64 1.32 4 2 C4 3.32 4 4.64 4 6 C3.01 6 2.02 6 1 6 C1 6.99 1 7.98 1 9 C-2.21451269 10.60725635 -5.43612536 10.05748185 -9 10 C-9 10.66 -9 11.32 -9 12 C-10.32 11.67 -11.64 11.34 -13 11 C-13 11.99 -13 12.98 -13 14 C-13.66 14 -14.32 14 -15 14 C-15.33 14.66 -15.66 15.32 -16 16 C-16.66 14.35 -17.32 12.7 -18 11 C-16.625 9.5 -16.625 9.5 -15 8 C-14.34 8 -13.68 8 -13 8 C-13 7.34 -13 6.68 -13 6 C-8.8794254 4.00214565 -5.54805635 3.82164485 -1 4 C-1 3.01 -1 2.02 -1 1 C-0.67 0.67 -0.34 0.34 0 0 Z " fill="#FC7618" transform="translate(108,277)"/>
<path d="M0 0 C0.99 0.33 1.98 0.66 3 1 C1.54462432 1.83848804 0.08559627 2.67063934 -1.375 3.5 C-2.18710938 3.9640625 -2.99921875 4.428125 -3.8359375 4.90625 C-6 6 -6 6 -8 6 C-7.34414811 9.60992379 -7.34414811 9.60992379 -6 13 C-7.19625 12.95875 -8.3925 12.9175 -9.625 12.875 C-13.44534064 12.86825028 -16.41667708 13.61553433 -20 15 C-20.7425 15.12375 -21.485 15.2475 -22.25 15.375 C-22.8275 15.58125 -23.405 15.7875 -24 16 C-24.2475 16.61875 -24.495 17.2375 -24.75 17.875 C-26.78514612 21.33474841 -30.28003765 21.91886371 -34 23 C-35.65672637 23.37966646 -37.32070245 23.73760976 -39 24 C-35.25 21 -35.25 21 -33 21 C-32.79375 20.401875 -32.5875 19.80375 -32.375 19.1875 C-30.47791859 16.16941595 -28.19600878 15.52621623 -25 14 C-23.14375142 12.9792931 -21.29482537 11.94516626 -19.453125 10.8984375 C-18.44378906 10.32609375 -17.43445313 9.75375 -16.39453125 9.1640625 C-15.35683594 8.57367188 -14.31914063 7.98328125 -13.25 7.375 C-11.17210902 6.19490035 -9.0939954 5.01519259 -7.015625 3.8359375 C-6.10071289 3.31563965 -5.18580078 2.7953418 -4.24316406 2.25927734 C-2.84589784 1.47487386 -1.43321784 0.71660892 0 0 Z " fill="#F6B98E" transform="translate(114,269)"/>
<path d="M0 0 C2.28388273 2.28388273 2.4796026 3.31531992 3.1484375 6.41015625 C3.34727539 7.30968018 3.54611328 8.2092041 3.75097656 9.13598633 C3.9569043 10.10173584 4.16283203 11.06748535 4.375 12.0625 C4.81434581 14.06787463 5.25445861 16.07308136 5.6953125 18.078125 C5.91348633 19.07779297 6.13166016 20.07746094 6.35644531 21.10742188 C7.10510392 24.47240943 7.91115977 27.82098304 8.72802734 31.16992188 C10.25345085 37.43143577 11.53145109 43.55745249 12 50 C10.23537317 46.91190305 10 45.76687864 10 42 C9.01 42 8.02 42 7 42 C5.31438733 36.78556404 4.61487302 32.02460865 4.375 26.5625 C4.33632812 25.83095703 4.29765625 25.09941406 4.2578125 24.34570312 C4.16466016 22.56416468 4.08129714 20.78211878 4 19 C3.01 19 2.02 19 1 19 C0.17648136 12.61773055 -0.12086218 6.43255401 0 0 Z " fill="#F2CEA8" transform="translate(0,204)"/>
<path d="M0 0 C1.2065625 0.0309375 1.2065625 0.0309375 2.4375 0.0625 C4.7098548 5.02036502 6.57928573 9.65575013 7.4375 15.0625 C6.0625 18.5625 6.0625 18.5625 4.4375 21.0625 C3.4475 21.0625 2.4575 21.0625 1.4375 21.0625 C1.9325 16.6075 1.9325 16.6075 2.4375 12.0625 C1.1175 12.3925 -0.2025 12.7225 -1.5625 13.0625 C-1.92348063 11.08456479 -2.27611348 9.10510427 -2.625 7.125 C-2.82222656 6.02285156 -3.01945313 4.92070312 -3.22265625 3.78515625 C-3.33480469 2.88667969 -3.44695312 1.98820312 -3.5625 1.0625 C-2.5625 0.0625 -2.5625 0.0625 0 0 Z " fill="#FC7021" transform="translate(177.5625,282.9375)"/>
<path d="M0 0 C0.66 0.33 1.32 0.66 2 1 C-11.8432469 9.08226153 -11.8432469 9.08226153 -19 9 C-21.05297853 9.00201866 -23.10595706 9.00404022 -25.15893555 9.00610352 C-26.62009576 9.00207917 -28.08126546 8.98846361 -29.54223633 8.96459961 C-33.39678545 8.83191016 -33.39678545 8.83191016 -37 10 C-37.66 9.67 -38.32 9.34 -39 9 C-39 9.66 -39 10.32 -39 11 C-39.99 11 -40.98 11 -42 11 C-42 11.66 -42 12.32 -42 13 C-45.91402949 11.73058503 -47.79072873 10.48832306 -50 7 C-48.71073008 6.63720544 -47.41846728 6.28503302 -46.125 5.9375 C-45.40570313 5.74027344 -44.68640625 5.54304688 -43.9453125 5.33984375 C-42 5 -42 5 -40 6 C-36.9847313 6.43075267 -34.03182363 6.75872875 -31 7 C-29.77410156 7.11794922 -29.77410156 7.11794922 -28.5234375 7.23828125 C-19.42529406 7.71930092 -9.7198204 4.98839202 -1.65234375 0.7734375 C-1.10707031 0.51820313 -0.56179687 0.26296875 0 0 Z " fill="#F97D0C" transform="translate(73,293)"/>
<path d="M0 0 C1.32 0.33 2.64 0.66 4 1 C4.0721875 1.62777344 4.144375 2.25554687 4.21875 2.90234375 C4.79174659 5.1927947 4.79174659 5.1927947 7.03125 5.94140625 C7.8459375 6.14636719 8.660625 6.35132813 9.5 6.5625 C11.96875 7.19140625 11.96875 7.19140625 14 8 C14.33 8.99 14.66 9.98 15 11 C17.75570384 12.04564136 20.38520367 12.12233372 23.30957031 12.11352539 C24.15013977 12.11344986 24.99070923 12.11337433 25.85675049 12.11329651 C26.75480408 12.10813522 27.65285767 12.10297394 28.578125 12.09765625 C29.96798615 12.09553383 29.96798615 12.09553383 31.38592529 12.09336853 C34.34064992 12.08777824 37.29529833 12.0752275 40.25 12.0625 C42.25520724 12.05748375 44.26041567 12.05292106 46.265625 12.04882812 C51.17711263 12.03781199 56.0885434 12.020554 61 12 C61 12.33 61 12.66 61 13 C51.9248662 14.62887017 42.96492016 15.26067097 33.75 15.375 C32.75742188 15.40078125 31.76484375 15.4265625 30.7421875 15.453125 C20.21768718 15.48104145 10.69708221 12.37637045 3 5 C1 2.125 1 2.125 0 0 Z " fill="#E6853B" transform="translate(196,348)"/>
<path d="M0 0 C0.74507812 0.00451172 1.49015625 0.00902344 2.2578125 0.01367188 C4.0885764 0.02540754 5.91929873 0.0433415 7.75 0.0625 C8.08 1.0525 8.41 2.0425 8.75 3.0625 C9.53375 3.165625 10.3175 3.26875 11.125 3.375 C13.75 4.0625 13.75 4.0625 15.75 7.0625 C11.47294235 8.53273857 9.17844592 7.45550887 5.13671875 5.76953125 C-0.63878802 4.05862008 -7.48740641 4.36116284 -13.25 6.0625 C-13.58 5.0725 -13.91 4.0825 -14.25 3.0625 C-10.31886197 -0.86863803 -5.26465746 -0.06045985 0 0 Z " fill="#FB7C0E" transform="translate(577.25,73.9375)"/>
<path d="M0 0 C0.66 0 1.32 0 2 0 C2 1.98 2 3.96 2 6 C2.66 6 3.32 6 4 6 C4.33 5.34 4.66 4.68 5 4 C5 4.66 5 5.32 5 6 C5.99 6.33 6.98 6.66 8 7 C9.125 14.75 9.125 14.75 8 17 C7.01 17.33 6.02 17.66 5 18 C4.34 18.66 3.68 19.32 3 20 C-0.08706173 13.39864924 -1.58013543 8.30970642 -1 1 C-0.67 0.67 -0.34 0.34 0 0 Z " fill="#F87F0A" transform="translate(6,255)"/>
<path d="M0 0 C0.66 0 1.32 0 2 0 C14.14252764 14.77132229 19.36122418 37.34774608 20 56 C18.07591988 52.42157061 16.73949434 48.69718004 15.375 44.875 C14.92898438 43.63492188 14.48296875 42.39484375 14.0234375 41.1171875 C13 38 13 38 13 36 C13.66 36 14.32 36 15 36 C11.19455771 23.09928074 7.01504271 11.54688446 0 0 Z M15 36 C16 38 16 38 16 38 Z " fill="#C7E6FD" transform="translate(592,59)"/>
<path d="M0 0 C1.19625 0.515625 2.3925 1.03125 3.625 1.5625 C11.62561274 4.22937091 20.10559843 2.67202942 28.1875 0.9375 C40.29342019 -1.39056157 54.38609981 -2.07033541 65 5 C67.66242194 7.46638745 69.9108609 10.0354822 72 13 C71.67 13.66 71.34 14.32 71 15 C69.948125 13.63875 69.948125 13.63875 68.875 12.25 C64.12972984 6.61664855 58.19022015 3.36624155 51 2 C43.12749638 1.47191668 35.60998568 1.64687413 27.90625 3.48046875 C23.685063 4.23506266 19.46456354 4.49589708 15.1875 4.75 C14.36209717 4.80663818 13.53669434 4.86327637 12.6862793 4.92163086 C8.37178403 5.14741236 4.82718525 5.31586062 1 3 C0.67 2.01 0.34 1.02 0 0 Z " fill="#FDE5CC" transform="translate(397,32)"/>
<path d="M0 0 C0.99 0 1.98 0 3 0 C10.13354455 14.2670891 9.37313514 29.47375103 9 45 C8.34 45 7.68 45 7 45 C6.93006836 43.95658447 6.86013672 42.91316895 6.78808594 41.83813477 C6.52158308 37.92861979 6.23296219 34.02098666 5.93798828 30.11352539 C5.81388166 28.42938245 5.69559828 26.74479902 5.58349609 25.05981445 C4.77161026 12.03321199 4.77161026 12.03321199 0 0 Z " fill="#EAB379" transform="translate(289,363)"/>
<path d="M0 0 C2.66275643 3.99413464 4.02764289 8.34691317 5.61328125 12.84375 C7.32554697 17.56357053 9.45660516 21.67251191 12 26 C13 29 13 29 14 32 C15.51553153 34.30166675 15.51553153 34.30166675 17 36 C14.6875 35.875 14.6875 35.875 12 35 C10.3125 32 10.3125 32 9 29 C8.34 28.67 7.68 28.34 7 28 C2.09067711 19.06349817 0.6271962 10.05164444 0 0 Z " fill="#E98543" transform="translate(192,312)"/>
<path d="M0 0 C0.33 0 0.66 0 1 0 C1.18175781 1.19238281 1.36351563 2.38476562 1.55078125 3.61328125 C1.80404926 5.17979082 2.05799072 6.74619162 2.3125 8.3125 C2.43044922 9.09818359 2.54839844 9.88386719 2.66992188 10.69335938 C2.79560547 11.45068359 2.92128906 12.20800781 3.05078125 12.98828125 C3.16075439 13.68477783 3.27072754 14.38127441 3.3840332 15.09887695 C4.12966153 17.400188 5.27751167 18.33927752 7 20 C7.82857109 22.43428471 8.5166739 24.76316289 9.125 27.25 C9.29386719 27.89324219 9.46273438 28.53648437 9.63671875 29.19921875 C10.72378322 33.45332145 11.44821889 37.65331612 12 42 C10 39 10 39 10 36 C9.01 35.67 8.02 35.34 7 35 C5.18342256 30.76131932 4.60049889 26.54663446 4 22 C3.67 21.01 3.34 20.02 3 19 C2.34 19 1.68 19 1 19 C0.67 12.73 0.34 6.46 0 0 Z " fill="#2A82E4" transform="translate(0,262)"/>
<path d="M0 0 C3.35471835 2.81070997 5.18143692 4.89622334 6.4609375 9.109375 C7.47006189 12.32573499 8.52416735 15.50742723 9.67578125 18.67578125 C10.22135417 20.22135417 10.76692708 21.76692708 11.3125 23.3125 C11.60189453 24.09689453 11.89128906 24.88128906 12.18945312 25.68945312 C12.45306641 26.44806641 12.71667969 27.20667969 12.98828125 27.98828125 C13.23102783 28.66415283 13.47377441 29.34002441 13.72387695 30.03637695 C14.08315499 32.59134885 13.31562138 33.83549318 12 36 C11.67 34.68 11.34 33.36 11 32 C9.68 32 8.36 32 7 32 C6.957279 30.33388095 6.95936168 28.66617115 7 27 C7.33 26.67 7.66 26.34 8 26 C7.62598655 21.43703588 7.23457579 18.02223642 5 14 C5 13.01 5 12.02 5 11 C4.34 11 3.68 11 3 11 C2.01 7.37 1.02 3.74 0 0 Z " fill="#EE8420" transform="translate(598,83)"/>
<path d="M0 0 C0.66 0 1.32 0 2 0 C2.185625 1.7015625 2.185625 1.7015625 2.375 3.4375 C2.684375 5.2009375 2.684375 5.2009375 3 7 C3.66 7.33 4.32 7.66 5 8 C5.33 6.02 5.66 4.04 6 2 C9.74596154 5.21082417 11.46536141 9.39608423 13 14 C10.36 14.66 7.72 15.32 5 16 C1.45215029 10.62100206 0.29112169 6.41923331 0 0 Z " fill="#F0801C" transform="translate(385,21)"/>
<path d="M0 0 C4.27706068 2.13853034 5.20861202 9.50841025 6.6875 13.8125 C7.11611328 15.01455078 7.54472656 16.21660156 7.98632812 17.45507812 C8.38658203 18.61072266 8.78683594 19.76636719 9.19921875 20.95703125 C9.56877686 22.01897705 9.93833496 23.08092285 10.3190918 24.17504883 C10.99671024 26.98635143 11.00609555 28.33539062 10 31 C9.34 30.01 8.68 29.02 8 28 C7.01 28 6.02 28 5 28 C5.09765625 26.07942708 5.1953125 24.15885417 5.29296875 22.23828125 C5.14225113 19.87270722 5.14225113 19.87270722 3.5625 17.71875 C1.5983397 14.30111108 1.21388248 11.03561645 0.8125 7.1875 C0.73064453 6.49462891 0.64878906 5.80175781 0.56445312 5.08789062 C0.36575707 3.39313016 0.18140797 1.69669806 0 0 Z " fill="#F4B792" transform="translate(181,281)"/>
<path d="M0 0 C1.9375 0.75 1.9375 0.75 4 2 C4.75 4.125 4.75 4.125 5 6 C5.66 6 6.32 6 7 6 C12.57999969 27.31559883 12.57999969 27.31559883 11 33 C10.80889648 32.41621582 10.61779297 31.83243164 10.42089844 31.23095703 C9.53392237 28.52786813 8.6419849 25.82643999 7.75 23.125 C7.44964844 22.2071875 7.14929688 21.289375 6.83984375 20.34375 C5.0048343 14.7996789 3.00203328 9.37781861 0.74316406 3.99169922 C0 2 0 2 0 0 Z " fill="#8CBDF2" transform="translate(470,31)"/>
<path d="M0 0 C3 1 3 1 5 3 C5.22705078 5.33837891 5.22705078 5.33837891 5.1953125 8.2265625 C5.18886719 9.2578125 5.18242188 10.2890625 5.17578125 11.3515625 C5.15902344 12.43179688 5.14226563 13.51203125 5.125 14.625 C5.11597656 15.71296875 5.10695313 16.8009375 5.09765625 17.921875 C5.07403409 20.61480152 5.04109556 23.30729255 5 26 C4.67 26 4.34 26 4 26 C3.87625 24.329375 3.87625 24.329375 3.75 22.625 C3.21615069 18.1893403 1.66453919 14.4953147 -0.078125 10.41015625 C-1.2896149 7.24282884 -1.70722707 4.36688867 -2 1 C-1.34 0.67 -0.68 0.34 0 0 Z " fill="#F77F0B" transform="translate(607,114)"/>
<path d="M0 0 C3.2052362 1.51826978 4.73141674 2.42254598 6.25 5.6875 C7.10577023 9.46715185 7.60127795 13.14568689 8 17 C7.01 17.66 6.02 18.32 5 19 C2.4156782 16.4156782 1.89598837 14.10624423 0.8125 10.625 C0.44769531 9.48289062 0.08289063 8.34078125 -0.29296875 7.1640625 C-0.95860385 4.18525347 -1.07938697 2.79128097 0 0 Z " fill="#FB7220" transform="translate(470,62)"/>
<path d="M0 0 C1.37822026 2.6492827 2.50914555 5.26719232 3.48046875 8.08984375 C8.531933 22.46605806 13.87206326 35.18117261 25 46 C19.30716084 44.61991778 16.25011808 40.58635506 13 36 C8.67054402 28.6521869 5.449627 20.94480009 2.5625 12.9375 C2.30331787 12.22343994 2.04413574 11.50937988 1.77709961 10.77368164 C0.5014715 7.07826018 -0.31308923 3.91743348 0 0 Z " fill="#FDE3CD" transform="translate(180,312)"/>
<path d="M0 0 C2.67339395 2.24808128 4.75927547 4.44585668 6.75 7.3125 C6.42 7.9725 6.09 8.6325 5.75 9.3125 C4.986875 8.673125 4.22375 8.03375 3.4375 7.375 C0.86753287 5.17017219 0.86753287 5.17017219 -2.25 4.3125 C-2.25 3.6525 -2.25 2.9925 -2.25 2.3125 C-2.91 2.3125 -3.57 2.3125 -4.25 2.3125 C-4.25 1.6525 -4.25 0.9925 -4.25 0.3125 C-14.7339594 -0.24581736 -24.29411269 0.34190846 -33.25 6.3125 C-34.24 5.9825 -35.23 5.6525 -36.25 5.3125 C-33.59781667 3.93904792 -30.93714269 2.61408474 -28.25 1.3125 C-27.095 0.735 -25.94 0.1575 -24.75 -0.4375 C-17.85196562 -2.91969528 -6.60659918 -3.52543037 0 0 Z " fill="#C3DFFB" transform="translate(158.25,290.6875)"/>
<path d="M0 0 C2.33944736 0.28730055 4.6739143 0.61936779 7 1 C2.58474399 4.44440501 -2.2256172 7.00219472 -7.125 9.6875 C-8.50365234 10.45416992 -8.50365234 10.45416992 -9.91015625 11.23632812 C-10.78800781 11.71908203 -11.66585937 12.20183594 -12.5703125 12.69921875 C-13.37227051 13.14096436 -14.17422852 13.58270996 -15.00048828 14.0378418 C-17 15 -17 15 -19 15 C-19 14.34 -19 13.68 -19 13 C-18.01 13 -17.02 13 -16 13 C-16 12.34 -16 11.68 -16 11 C-15.01 11 -14.02 11 -13 11 C-12.731875 10.360625 -12.46375 9.72125 -12.1875 9.0625 C-11 7 -11 7 -8 6 C-7.34 6.33 -6.68 6.66 -6 7 C-6 6.34 -6 5.68 -6 5 C-5.34 5 -4.68 5 -4 5 C-4 4.01 -4 3.02 -4 2 C-3.01 1.67 -2.02 1.34 -1 1 C-0.67 0.67 -0.34 0.34 0 0 Z " fill="#EF7E2F" transform="translate(99,286)"/>
<path d="M0 0 C-0.75023437 -0.03480469 -1.50046875 -0.06960937 -2.2734375 -0.10546875 C-15.30817183 -0.45021613 -25.78482715 3.73476762 -36.73046875 10.75 C-37.85388672 11.36875 -37.85388672 11.36875 -39 12 C-39.66 11.67 -40.32 11.34 -41 11 C-40.14535156 10.52949219 -39.29070313 10.05898437 -38.41015625 9.57421875 C-36.75306641 8.64029297 -36.75306641 8.64029297 -35.0625 7.6875 C-33.96035156 7.07261719 -32.85820313 6.45773438 -31.72265625 5.82421875 C-28.73487704 4.22481841 -28.73487704 4.22481841 -28 1 C-26.68 1 -25.36 1 -24 1 C-24 0.34 -24 -0.32 -24 -1 C-5.25 -3.5 -5.25 -3.5 0 0 Z " fill="#A6D1F9" transform="translate(588,56)"/>
<path d="M0 0 C3.21759111 2.43756902 4.18972513 5.69418425 5.0625 9.5625 C4.75 12.5625 4.75 12.5625 4.0625 14.5625 C3.0725 14.2325 2.0825 13.9025 1.0625 13.5625 C0.7325 12.5725 0.4025 11.5825 0.0625 10.5625 C-0.4325 10.15 -0.9275 9.7375 -1.4375 9.3125 C-3.69997456 6.67294635 -3.61888743 3.93979327 -3.9375 0.5625 C-1.9375 -0.4375 -1.9375 -0.4375 0 0 Z M2.0625 9.5625 C2.3925 10.2225 2.7225 10.8825 3.0625 11.5625 C3.3925 10.9025 3.7225 10.2425 4.0625 9.5625 C3.4025 9.5625 2.7425 9.5625 2.0625 9.5625 Z " fill="#F8771D" transform="translate(465.9375,46.4375)"/>
<path d="M0 0 C0.99 0.33 1.98 0.66 3 1 C2.34 2.32 1.68 3.64 1 5 C2.32 5.33 3.64 5.66 5 6 C4.67 6.99 4.34 7.98 4 9 C3.27554687 8.50886719 2.55109375 8.01773437 1.8046875 7.51171875 C-3.36163601 4.928557 -9.25181794 5.68873922 -14.875 5.8125 C-16.0403125 5.82603516 -17.205625 5.83957031 -18.40625 5.85351562 C-21.27131118 5.88874179 -24.13541377 5.93800285 -27 6 C-27 5.67 -27 5.34 -27 5 C-19.90974006 3.53647941 -12.98383078 2.69153033 -5.75 2.34375 C-2.78803939 2.18168052 -2.78803939 2.18168052 0 0 Z " fill="#EA8739" transform="translate(284,354)"/>
<path d="M0 0 C-0.99 0.495 -0.99 0.495 -2 1 C-2.33 1.99 -2.66 2.98 -3 4 C-4.7421875 5.16796875 -4.7421875 5.16796875 -6.875 6.1875 C-7.57367188 6.53167969 -8.27234375 6.87585938 -8.9921875 7.23046875 C-11 8 -11 8 -14 8 C-14.33 8.99 -14.66 9.98 -15 11 C-16.96134888 11.55571552 -18.92846548 12.10069675 -20.921875 12.52734375 C-23.40467642 13.09204107 -25.67057249 13.98087547 -28 15 C-25.05513919 11.80332211 -22.08844914 9.69973657 -18.3125 7.5625 C-17.25804688 6.96566406 -16.20359375 6.36882812 -15.1171875 5.75390625 C-14.08851562 5.17511719 -13.05984375 4.59632813 -12 4 C-10.67355469 3.20916016 -10.67355469 3.20916016 -9.3203125 2.40234375 C-8.14082031 1.70818359 -8.14082031 1.70818359 -6.9375 1 C-6.24527344 0.5875 -5.55304688 0.175 -4.83984375 -0.25 C-3 -1 -3 -1 0 0 Z " fill="#97C3F4" transform="translate(122,298)"/>
<path d="M0 0 C1.58941406 0.02707031 1.58941406 0.02707031 3.2109375 0.0546875 C4.00757813 0.07789063 4.80421875 0.10109375 5.625 0.125 C5.625 0.455 5.625 0.785 5.625 1.125 C2.655 1.125 -0.315 1.125 -3.375 1.125 C-3.705 2.115 -4.035 3.105 -4.375 4.125 C-5.035 4.063125 -5.695 4.00125 -6.375 3.9375 C-10.29958834 4.18278677 -13.93763226 5.17341037 -17.375 7.125 C-17.705 8.115 -18.035 9.105 -18.375 10.125 C-21.345 10.125 -24.315 10.125 -27.375 10.125 C-24.34780833 7.09780833 -22.4595503 6.12622207 -18.5625 4.5625 C-17.54542969 4.14871094 -16.52835938 3.73492187 -15.48046875 3.30859375 C-14.45566406 2.91800781 -13.43085938 2.52742188 -12.375 2.125 C-11.38886719 1.74730469 -10.40273437 1.36960937 -9.38671875 0.98046875 C-6.11067519 0.04991941 -3.396749 -0.07548331 0 0 Z " fill="#3F8AEA" transform="translate(146.375,289.875)"/>
<path d="M0 0 C0.33 0.66 0.66 1.32 1 2 C1.66 2 2.32 2 3 2 C3.67756882 3.55780332 4.34159457 5.12150096 5 6.6875 C5.37125 7.55761719 5.7425 8.42773438 6.125 9.32421875 C7.01870488 12.0572002 7.16449676 14.14700934 7 17 C6.34 17.33 5.68 17.66 5 18 C-1.20689655 9.10344828 -1.20689655 9.10344828 -0.625 3.1875 C-0.41875 2.135625 -0.2125 1.08375 0 0 Z " fill="#F97F0C" transform="translate(600,92)"/>
<path d="M0 0 C1.82478467 3.36187806 2.98652315 6.79015751 4.125 10.4375 C4.47820313 11.54996094 4.83140625 12.66242188 5.1953125 13.80859375 C5.92990995 16.7220215 6.24888889 19.01874393 6 22 C5.67 22.33 5.34 22.66 5 23 C4.95936168 24.66617115 4.957279 26.33388095 5 28 C4.34 27.67 3.68 27.34 3 27 C2.49755859 25.26928711 2.49755859 25.26928711 2.1484375 23.02734375 C2.01953125 22.20943359 1.890625 21.39152344 1.7578125 20.54882812 C1.63148437 19.68708984 1.50515625 18.82535156 1.375 17.9375 C1.2409375 17.10283203 1.106875 16.26816406 0.96875 15.40820312 C0.17483452 10.21129723 -0.13366398 5.25542476 0 0 Z " fill="#CEE4F5" transform="translate(0,252)"/>
<path d="M0 0 C2.84445138 1.6592633 4.85732026 3.26449151 7 5.75 C6.67 6.41 6.34 7.07 6 7.75 C5.236875 6.945625 4.47375 6.14125 3.6875 5.3125 C-0.74479475 1.08635849 -4.92666338 1.42790351 -10.78125 1.44921875 C-14.92570792 1.83650426 -18.20262766 3.10690766 -21.94140625 4.875 C-24 5.75 -24 5.75 -27 5.75 C-27 5.09 -27 4.43 -27 3.75 C-23.91190305 1.98537317 -22.76687864 1.75 -19 1.75 C-19 1.09 -19 0.43 -19 -0.25 C-13.15605284 -2.19798239 -5.77910687 -2.31164275 0 0 Z " fill="#E78639" transform="translate(584,79.25)"/>
<path d="M0 0 C1.87060547 0.25219727 1.87060547 0.25219727 4 1 C5.15673828 2.73413086 5.15673828 2.73413086 6.0703125 4.96484375 C6.57884766 6.16463867 6.57884766 6.16463867 7.09765625 7.38867188 C7.43667969 8.22978516 7.77570312 9.07089844 8.125 9.9375 C8.81110876 11.59410832 9.50104578 13.24913775 10.1953125 14.90234375 C10.49453613 15.63960693 10.79375977 16.37687012 11.10205078 17.13647461 C11.96084648 19.18088926 11.96084648 19.18088926 14 21 C14.30059943 23.36509361 14.49515012 25.74441881 14.625 28.125 C14.69976563 29.40632813 14.77453125 30.68765625 14.8515625 32.0078125 C14.92503906 33.48894531 14.92503906 33.48894531 15 35 C13.63461421 32.39437668 12.56255309 29.87018065 11.703125 27.05859375 C8.90249794 18.14601566 5.88958061 10.02719422 1 2 C0.67 1.34 0.34 0.68 0 0 Z " fill="#E28531" transform="translate(591,87)"/>
<path d="M0 0 C1.32 0 2.64 0 4 0 C4 0.66 4 1.32 4 2 C3.34 2.66 2.68 3.32 2 4 C1.67 4.66 1.34 5.32 1 6 C-0.89551022 6.05441656 -2.7914792 6.09298035 -4.6875 6.125 C-5.74324219 6.14820312 -6.79898437 6.17140625 -7.88671875 6.1953125 C-11.02251859 5.99858729 -13.17645373 5.33057654 -16 4 C-16 3.67 -16 3.34 -16 3 C-14.39318359 2.80083984 -14.39318359 2.80083984 -12.75390625 2.59765625 C-11.35674231 2.4194944 -9.95960841 2.24109681 -8.5625 2.0625 C-7.85544922 1.97548828 -7.14839844 1.88847656 -6.41992188 1.79882812 C-2.91182032 1.61783809 -2.91182032 1.61783809 0 0 Z " fill="#FC721F" transform="translate(511,103)"/>
<path d="M0 0 C2.5 2.25 2.5 2.25 5 5 C5 6.32 5 7.64 5 9 C5.66 9 6.32 9 7 9 C7.0928125 10.5778125 7.0928125 10.5778125 7.1875 12.1875 C8.1415252 16.66407978 9.61931426 18.04189997 13 21 C13.33 21.66 13.66 22.32 14 23 C10.46800475 22.44431971 9.11274588 21.41585517 7 18.5625 C3.01210537 12.94503422 0 6.95324468 0 0 Z " fill="#A0CAF7" transform="translate(482,64)"/>
<path d="M0 0 C0.66 0.33 1.32 0.66 2 1 C-11.81304919 9.06463085 -11.81304919 9.06463085 -19 9 C-20.60101563 9.03673828 -20.60101563 9.03673828 -22.234375 9.07421875 C-32.02505137 9.21563963 -32.02505137 9.21563963 -36 8 C-36 7.34 -36 6.68 -36 6 C-35.27425781 6.15726562 -34.54851563 6.31453125 -33.80078125 6.4765625 C-22.82469017 8.52788217 -11.50517167 5.92117122 -1.65234375 0.7734375 C-1.10707031 0.51820313 -0.56179687 0.26296875 0 0 Z " fill="#E2873F" transform="translate(73,293)"/>
<path d="M0 0 C0.33 0 0.66 0 1 0 C1.04487549 0.57854736 1.08975098 1.15709473 1.13598633 1.75317383 C2.33657445 17.09642408 2.33657445 17.09642408 6 32 C6.34459769 33.33046658 6.68166803 34.66300574 7 36 C2.4552145 32.32088792 0.90350655 26.57171123 0 21 C-0.07700286 19.30742755 -0.10805067 17.61226001 -0.09765625 15.91796875 C-0.09443359 14.98662109 -0.09121094 14.05527344 -0.08789062 13.09570312 C-0.07951172 12.13599609 -0.07113281 11.17628906 -0.0625 10.1875 C-0.05798828 9.20845703 -0.05347656 8.22941406 -0.04882812 7.22070312 C-0.03708684 4.81373889 -0.02066419 2.40690143 0 0 Z " fill="#FEEFDB" transform="translate(382,0)"/>
<path d="M0 0 C1.25941406 -0.02578125 2.51882812 -0.0515625 3.81640625 -0.078125 C7.79362329 0.28227007 10.15443533 0.97900789 13.4375 3.25 C14.3125 5.9375 14.3125 5.9375 14.4375 8.25 C13.91542969 7.816875 13.39335937 7.38375 12.85546875 6.9375 C6.63837166 2.23384686 2.11669478 1.30618835 -5.5625 2.25 C-8.93158565 2.79049502 -12.24702733 3.44450556 -15.5625 4.25 C-15.2325 3.26 -14.9025 2.27 -14.5625 1.25 C-9.6769531 0.4683125 -4.96061028 0.06105367 0 0 Z " fill="#E98047" transform="translate(151.5625,266.75)"/>
<path d="M0 0 C0.33 0 0.66 0 1 0 C1 2.97 1 5.94 1 9 C1.99 9 2.98 9 4 9 C4.33 11.31 4.66 13.62 5 16 C4.01 15.01 3.02 14.02 2 13 C1.67 21.25 1.34 29.5 1 38 C0.67 38 0.34 38 0 38 C0 25.46 0 12.92 0 0 Z " fill="#F68E28" transform="translate(0,214)"/>
<path d="M0 0 C0.66 0 1.32 0 2 0 C2.144375 1.134375 2.28875 2.26875 2.4375 3.4375 C2.61171478 6.80777201 2.61171478 6.80777201 4 8 C4.23728814 14.52542373 4.23728814 14.52542373 3 17 C2.01 16.67 1.02 16.34 0 16 C0.03255208 13.94921875 0.06510417 11.8984375 0.09765625 9.84765625 C0.20561184 7.98267859 0.20561184 7.98267859 -1 7 C-0.71269945 4.66055264 -0.38063221 2.3260857 0 0 Z " fill="#FB7F06" transform="translate(387,12)"/>
<path d="M0 0 C-0.33 0.99 -0.66 1.98 -1 3 C-2.98 3.33 -4.96 3.66 -7 4 C-7 4.99 -7 5.98 -7 7 C-8.8125 8.0625 -8.8125 8.0625 -11 9 C-11.99 8.67 -12.98 8.34 -14 8 C-13.34 6.68 -12.68 5.36 -12 4 C-11.34 4 -10.68 4 -10 4 C-9.67 3.01 -9.34 2.02 -9 1 C-6.03421164 -0.16513114 -3.15436364 -0.08762121 0 0 Z " fill="#FC7517" transform="translate(541,90)"/>
<path d="M0 0 C2.03860325 3.05790487 3.24007083 5.88997435 4.5625 9.3125 C4.99691406 10.42238281 5.43132812 11.53226563 5.87890625 12.67578125 C6.93313137 15.80172402 7.56065405 18.73699242 8 22 C7.67 21.34 7.34 20.68 7 20 C6.01 19.67 5.02 19.34 4 19 C1.00371461 16.00371461 1.2750714 12.41506529 0.875 8.375 C0.78863281 7.57320313 0.70226562 6.77140625 0.61328125 5.9453125 C0.40103673 3.96436365 0.19950069 1.98227282 0 0 Z " fill="#F8C6A6" transform="translate(479,73)"/>
<path d="M0 0 C-0.33 1.32 -0.66 2.64 -1 4 C-1.66 3.67 -2.32 3.34 -3 3 C-3.66 4.32 -4.32 5.64 -5 7 C-5.33 6.67 -5.66 6.34 -6 6 C-6.33 6.66 -6.66 7.32 -7 8 C-9.28515625 8.4140625 -9.28515625 8.4140625 -12.0625 8.625 C-12.98160156 8.69976562 -13.90070312 8.77453125 -14.84765625 8.8515625 C-15.91306641 8.92503906 -15.91306641 8.92503906 -17 9 C-13.94746898 6.59124922 -10.78648153 4.67456202 -7.375 2.8125 C-6.41335938 2.28269531 -5.45171875 1.75289063 -4.4609375 1.20703125 C-2 0 -2 0 0 0 Z " fill="#EC7F40" transform="translate(532,91)"/>
<path d="M0 0 C-4.265625 0.35546875 -4.265625 0.35546875 -8.53125 0.7109375 C-10.24828125 0.85402344 -10.24828125 0.85402344 -12 1 C-15.265625 1.27213542 -18.53125 1.54427083 -21.796875 1.81640625 C-22.88742187 1.90728516 -22.88742187 1.90728516 -24 2 C-18.55423582 -3.44576418 -6.18780986 -4.12520657 0 0 Z " fill="#E8873B" transform="translate(585,74)"/>
<path d="M0 0 C2.66275643 3.99413464 4.02764289 8.34691317 5.61328125 12.84375 C6.90214057 16.39646066 8.28285238 19.59822461 10.2578125 22.828125 C10.83273438 23.87484375 11.40765625 24.9215625 12 26 C11.67 26.99 11.34 27.98 11 29 C5.57700023 20.2397696 0.41753585 10.43839631 0 0 Z " fill="#FEEAD7" transform="translate(192,312)"/>
<path d="M0 0 C2.28822939 3.05097252 4.03157205 5.71156549 5.75 9.0625 C6.19859375 9.91972656 6.6471875 10.77695312 7.109375 11.66015625 C8 14 8 14 7 17 C5.68 16.34 4.36 15.68 3 15 C3 13.35 3 11.7 3 10 C2.34 10 1.68 10 1 10 C0.67 6.7 0.34 3.4 0 0 Z " fill="#86BEF0" transform="translate(12,304)"/>
<path d="M0 0 C6.86885543 5.75498698 8.01122364 13.58594619 10 22 C6.71779105 20.35889552 6.25429211 17.30677012 5 14 C5 13.01 5 12.02 5 11 C4.34 11 3.68 11 3 11 C2.01 7.37 1.02 3.74 0 0 Z " fill="#EAAD75" transform="translate(598,83)"/>
<path d="M0 0 C2.67892029 2.67892029 3.15637375 5.62156588 4.0625 9.1875 C4.23587891 9.83525391 4.40925781 10.48300781 4.58789062 11.15039062 C5.70259938 15.42557632 6.44977692 19.6265774 7 24 C5 21 5 21 5 18 C4.01 17.67 3.02 17.34 2 17 C1.66408104 14.72954771 1.33134935 12.45862367 1 10.1875 C0.814375 8.92292969 0.62875 7.65835937 0.4375 6.35546875 C0 3 0 3 0 0 Z " fill="#9CCBF4" transform="translate(5,280)"/>
<path d="M0 0 C2 0 2 0 3.55078125 1.16796875 C7.29528723 5.90158952 7.31392346 14.19241607 7 20 C5.07591988 16.42157061 3.73949434 12.69718004 2.375 8.875 C1.92898438 7.63492188 1.48296875 6.39484375 1.0234375 5.1171875 C0 2 0 2 0 0 Z " fill="#DAE1E5" transform="translate(605,95)"/>
<path d="M0 0 C-1 3 -1 3 -4 5 C-9.34901348 6.0698027 -14.57351266 6.11074464 -20 6 C-20.33 5.34 -20.66 4.68 -21 4 C-20.29875 3.96261719 -19.5975 3.92523438 -18.875 3.88671875 C-12.53319839 3.44727326 -5.93985098 0 0 0 Z " fill="#EB8040" transform="translate(514,100)"/>
<path d="M0 0 C3.98175544 2.10148204 6.35039045 4.36905358 9 8 C8.67 8.66 8.34 9.32 8 10 C7.38125 9.67 6.7625 9.34 6.125 9 C4.08981656 7.85806765 4.08981656 7.85806765 2 8 C1.67 9.32 1.34 10.64 1 12 C-2 8.25 -2 8.25 -2 6 C-1.01 5.67 -0.02 5.34 1 5 C1.33 4.01 1.66 3.02 2 2 C1.34 2 0.68 2 0 2 C0 1.34 0 0.68 0 0 Z " fill="#F27C2A" transform="translate(460,39)"/>
<path d="M0 0 C2.56616632 3.84924948 2.55097676 6.4349304 3 11 C3.66 11 4.32 11 5 11 C6.59138085 15.17737474 7.21278058 18.53160785 7 23 C5.23537317 19.91190305 5 18.76687864 5 15 C4.01 15 3.02 15 2 15 C0.2520497 9.75614911 -0.19392201 5.52677733 0 0 Z " fill="#EBAD6E" transform="translate(5,231)"/>
<path d="M0 0 C3 1 3 1 4.25 2.6875 C5.23749311 5.73227042 4.7002014 7.91911384 4 11 C3.01 11 2.02 11 1 11 C-0.98362069 8.08291076 -0.9876191 6.87619096 -0.625 3.25 C-0.41875 2.1775 -0.2125 1.105 0 0 Z " fill="#FB6F25" transform="translate(480,88)"/>
<path d="M0 0 C2.31 0.33 4.62 0.66 7 1 C7.33 1.99 7.66 2.98 8 4 C6.5625 6.1875 6.5625 6.1875 5 8 C3 7 1 6 -1 5 C-0.67 3.35 -0.34 1.7 0 0 Z " fill="#FC7714" transform="translate(202,348)"/>
<path d="M0 0 C5.46605107 2.73302554 7.58172644 14.40606086 9.6171875 20.0625 C10.06721336 22.34018191 9.71279552 23.81279183 9 26 C8.16112944 23.56427941 7.32873471 21.12666783 6.5 18.6875 C6.26152344 17.99720703 6.02304687 17.30691406 5.77734375 16.59570312 C4.76791737 13.61068511 4 11.17341086 4 8 C3.34 8 2.68 8 2 8 C2 7.34 2 6.68 2 6 C1.34 6 0.68 6 0 6 C0 4.02 0 2.04 0 0 Z " fill="#F9DBC3" transform="translate(469,47)"/>
<path d="M0 0 C0.33 0.66 0.66 1.32 1 2 C1.66 2 2.32 2 3 2 C3.99 5.63 4.98 9.26 6 13 C5.21625 12.484375 4.4325 11.96875 3.625 11.4375 C2.75875 10.963125 1.8925 10.48875 1 10 C0.01 10.495 0.01 10.495 -1 11 C-1.33 10.01 -1.66 9.02 -2 8 C-1.34 8 -0.68 8 0 8 C0 5.36 0 2.72 0 0 Z M-2 3 C-1.01 3.495 -1.01 3.495 0 4 C-0.99 4.495 -0.99 4.495 -2 5 C-2 4.34 -2 3.68 -2 3 Z " fill="#F37F36" transform="translate(470,53)"/>
<path d="M0 0 C1.98 0 3.96 0 6 0 C6.33 0.99 6.66 1.98 7 3 C8.65 3.33 10.3 3.66 12 4 C12.33 3.01 12.66 2.02 13 1 C14.27253436 4.64793184 15.32829194 8.1936543 16 12 C14.62437146 10.71034824 13.29233607 9.37310707 12 8 C12 7.34 12 6.68 12 6 C10.35 5.67 8.7 5.34 7 5 C6.67 4.01 6.34 3.02 6 2 C3.03 1.505 3.03 1.505 0 1 C0 0.67 0 0.34 0 0 Z " fill="#4393E4" transform="translate(582,53)"/>
<path d="M0 0 C-0.33 1.32 -0.66 2.64 -1 4 C-1.66 3.67 -2.32 3.34 -3 3 C-3 3.66 -3 4.32 -3 5 C-4.258125 5.28875 -5.51625 5.5775 -6.8125 5.875 C-9.8539399 6.57303539 -11.30669878 7.20446585 -14 9 C-16.1875 8.625 -16.1875 8.625 -18 8 C-15.3773768 6.66180502 -12.75213401 5.3292849 -10.125 4 C-9.00544922 3.42765625 -9.00544922 3.42765625 -7.86328125 2.84375 C-7.14785156 2.4828125 -6.43242188 2.121875 -5.6953125 1.75 C-5.03547363 1.41484375 -4.37563477 1.0796875 -3.69580078 0.734375 C-2 0 -2 0 0 0 Z " fill="#E48946" transform="translate(560,76)"/>
<path d="M0 0 C0.99 0.33 1.98 0.66 3 1 C3 1.99 3 2.98 3 4 C3.66 4 4.32 4 5 4 C5 5.65 5 7.3 5 9 C5.66 9 6.32 9 7 9 C8.625 10.1875 8.625 10.1875 10 12 C10.1875 14.6875 10.1875 14.6875 10 17 C6.81321628 14.07647233 4.78276705 11.18387159 2.75 7.375 C1.96882812 5.93253906 1.96882812 5.93253906 1.171875 4.4609375 C0 2 0 2 0 0 Z " fill="#E28730" transform="translate(10,279)"/>
<path d="M0 0 C3.53832993 0.59367952 5.4154022 1.93062202 8.0625 4.3125 C8.73410156 4.90675781 9.40570312 5.50101562 10.09765625 6.11328125 C11.99319233 7.99324824 13.61005149 9.71683868 15 12 C14.67 12.99 14.34 13.98 14 15 C13.01 14.67 12.02 14.34 11 14 C10.95875 13.278125 10.9175 12.55625 10.875 11.8125 C9.63721895 7.83391804 7.32298855 6.39255176 4 4 C3.01 3.67 2.02 3.34 1 3 C0.67 2.01 0.34 1.02 0 0 Z " fill="#E38433" transform="translate(585,74)"/>
<path d="M0 0 C-6.02977369 4.01984912 -12.92445235 4.25729264 -20 4 C-14.96907324 -1.03092676 -6.63258032 -0.24464436 0 0 Z " fill="#2E7FE3" transform="translate(260,367)"/>
<path d="M0 0 C2.34545328 2.34545328 2.95508888 3.95985838 3.09765625 7.26171875 C3.08605469 8.06222656 3.07445312 8.86273438 3.0625 9.6875 C3.05347656 10.49574219 3.04445313 11.30398437 3.03515625 12.13671875 C3.02355469 12.75160156 3.01195312 13.36648437 3 14 C2.01 14 1.02 14 0 14 C-0.19456705 12.04235617 -0.38044247 10.08384679 -0.5625 8.125 C-0.66691406 7.03445312 -0.77132812 5.94390625 -0.87890625 4.8203125 C-1 2 -1 2 0 0 Z " fill="#F5820A" transform="translate(2,225)"/>
<path d="M0 0 C-3.9173844 3.42771135 -9.52151811 8 -15 8 C-15 7.34 -15 6.68 -15 6 C-14.01 6 -13.02 6 -12 6 C-12 5.34 -12 4.68 -12 4 C-11.34 4 -10.68 4 -10 4 C-9.67 3.01 -9.34 2.02 -9 1 C-6.03421164 -0.16513114 -3.15436364 -0.08762121 0 0 Z " fill="#297DEA" transform="translate(533,75)"/>
<path d="M0 0 C2.97 0.33 5.94 0.66 9 1 C9 1.66 9 2.32 9 3 C6.16730334 4.41634833 3.52533562 4.3463005 0.375 4.5625 C-0.81351563 4.64628906 -2.00203125 4.73007812 -3.2265625 4.81640625 C-4.14179687 4.87699219 -5.05703125 4.93757813 -6 5 C-6 4.34 -6 3.68 -6 3 C-4.35 3 -2.7 3 -1 3 C-0.67 2.01 -0.34 1.02 0 0 Z " fill="#1980E9" transform="translate(575,50)"/>
<path d="M0 0 C-3.62725434 2.41816956 -6.16718156 3.15149394 -10.4375 3.1875 C-11.19933594 3.20167969 -11.96117187 3.21585937 -12.74609375 3.23046875 C-15.23347315 2.97612666 -16.84808106 2.24017196 -19 1 C-12.62641289 0.03794912 -6.44070471 -0.10655578 0 0 Z " fill="#EB8249" transform="translate(510,109)"/>
<path d="M0 0 C1.89721241 2.84581861 2.34791281 4.00253212 2.8515625 7.23046875 C2.98046875 8.03291016 3.109375 8.83535156 3.2421875 9.66210938 C3.36851562 10.49548828 3.49484375 11.32886719 3.625 12.1875 C3.7590625 13.03248047 3.893125 13.87746094 4.03125 14.74804688 C4.36075662 16.83099945 4.68124989 18.91537427 5 21 C4.34 21 3.68 21 3 21 C1.18225815 13.90215087 -0.43230491 7.34918342 0 0 Z " fill="#FCECD6" transform="translate(607,131)"/>
<path d="M0 0 C0.66 0 1.32 0 2 0 C3.0064275 1.66279327 4.00585407 3.32983484 5 5 C8.03525486 7.02350324 9.19426202 7.32124018 12.6875 7.625 C13.89986328 7.73714844 13.89986328 7.73714844 15.13671875 7.8515625 C15.75160156 7.90054688 16.36648438 7.94953125 17 8 C17 8.33 17 8.66 17 9 C15.06257659 9.02703381 13.12504521 9.04641125 11.1875 9.0625 C10.10855469 9.07410156 9.02960938 9.08570312 7.91796875 9.09765625 C5 9 5 9 2 8 C1.26953125 6.15234375 1.26953125 6.15234375 0.8125 3.9375 C0.65394531 3.20402344 0.49539063 2.47054687 0.33203125 1.71484375 C0.22246094 1.14894531 0.11289062 0.58304687 0 0 Z " fill="#F7C5A9" transform="translate(487,95)"/>
<path d="M0 0 C-0.33 2.97 -0.66 5.94 -1 9 C-0.34 9.33 0.32 9.66 1 10 C1 12.31 1 14.62 1 17 C-1.42604752 14.57395248 -1.75843519 12.85807224 -2.625 9.5625 C-2.88539063 8.59441406 -3.14578125 7.62632812 -3.4140625 6.62890625 C-4 4 -4 4 -4 1 C-2 0 -2 0 0 0 Z " fill="#EF7B3B" transform="translate(180,295)"/>
<path d="M0 0 C1.65 0 3.3 0 5 0 C-6.53846154 10 -6.53846154 10 -12 10 C-12 9.34 -12 8.68 -12 8 C-11.34 8 -10.68 8 -10 8 C-10 7.34 -10 6.68 -10 6 C-9.360625 5.87625 -8.72125 5.7525 -8.0625 5.625 C-7.381875 5.41875 -6.70125 5.2125 -6 5 C-5.67 4.34 -5.34 3.68 -5 3 C-3.66666667 2.66666667 -2.33333333 2.33333333 -1 2 C-0.67 1.34 -0.34 0.68 0 0 Z " fill="#2D81E3" transform="translate(545,65)"/>
<path d="M0 0 C3.47614371 1.73807186 3.94440065 5.67379518 5.1796875 9.1875 C6.0683335 12.23428628 6.34166418 14.83960636 6 18 C5.34 17.67 4.68 17.34 4 17 C3.4375 15.07421875 3.4375 15.07421875 3 12.6875 C2.5385814 10.19501561 2.11045862 8.21238918 0.9375 5.95703125 C0 4 0 4 0 0 Z " fill="#E08736" transform="translate(299,361)"/>
<path d="M0 0 C0 0.66 0 1.32 0 2 C-0.969375 2.45375 -1.93875 2.9075 -2.9375 3.375 C-6.07079582 4.65786221 -6.07079582 4.65786221 -7 7 C-8.70703125 7.88671875 -8.70703125 7.88671875 -10.8125 8.6875 C-11.49957031 8.95949219 -12.18664063 9.23148437 -12.89453125 9.51171875 C-15.29376496 10.06812731 -16.6894364 9.77364938 -19 9 C-18.30132812 8.74605469 -17.60265625 8.49210937 -16.8828125 8.23046875 C-15.97273438 7.88628906 -15.06265625 7.54210937 -14.125 7.1875 C-13.22007813 6.85105469 -12.31515625 6.51460938 -11.3828125 6.16796875 C-8.70574151 5.10350976 -8.70574151 5.10350976 -7 2 C-4.55618498 0.83918787 -2.71705736 0 0 0 Z " fill="#67A8EA" transform="translate(75,324)"/>
<path d="M0 0 C3.00617269 3.00617269 2.59585316 5.82381598 3 10 C2.67 9.34 2.34 8.68 2 8 C1.01 8 0.02 8 -1 8 C-1.33 8.99 -1.66 9.98 -2 11 C-2.66 10.67 -3.32 10.34 -4 10 C-2.68 6.7 -1.36 3.4 0 0 Z " fill="#F27B38" transform="translate(190,310)"/>
<path d="M0 0 C1.77285431 3.54570863 2.71229813 6.43324673 3.625 10.25 C4.01558594 11.86648438 4.01558594 11.86648438 4.4140625 13.515625 C4.60742188 14.33546875 4.80078125 15.1553125 5 16 C4.01 15.67 3.02 15.34 2 15 C2 14.34 2 13.68 2 13 C1.34 13 0.68 13 0 13 C0 8.71 0 4.42 0 0 Z " fill="#E58933" transform="translate(9,246)"/>
<path d="M0 0 C7.875 0.875 7.875 0.875 9 2 C11.18292774 2.23481693 13.37203174 2.41363323 15.5625 2.5625 C17.35880859 2.68818359 17.35880859 2.68818359 19.19140625 2.81640625 C20.11824219 2.87699219 21.04507813 2.93757813 22 3 C22 3.33 22 3.66 22 4 C19.45767658 4.08152344 16.91800798 4.14073716 14.375 4.1875 C13.30572266 4.22520508 13.30572266 4.22520508 12.21484375 4.26367188 C7.37723584 4.33024446 4.25261662 3.55559453 0 1 C0 0.67 0 0.34 0 0 Z " fill="#EA8431" transform="translate(31,306)"/>
<path d="M0 0 C7.92 0 15.84 0 24 0 C24 0.99 24 1.98 24 3 C23.43829102 2.84152588 22.87658203 2.68305176 22.29785156 2.51977539 C19.90325571 1.97811638 17.68561447 1.79358526 15.234375 1.68359375 C14.34492188 1.64169922 13.45546875 1.59980469 12.5390625 1.55664062 C11.61867188 1.51732422 10.69828125 1.47800781 9.75 1.4375 C8.81414062 1.39431641 7.87828125 1.35113281 6.9140625 1.30664062 C4.60951359 1.2008195 2.30486161 1.09873443 0 1 C0 0.67 0 0.34 0 0 Z " fill="#097CF2" transform="translate(456,1)"/>
<path d="M0 0 C4.4531809 2.22659045 6.64102499 4.61904641 9 9 C9.75 12.875 9.75 12.875 10 16 C8.16812566 13.7319651 6.82883268 11.64278125 5.5625 9 C4.01950199 6.03744382 2.37667054 4.29471638 0 2 C0 1.34 0 0.68 0 0 Z " fill="#FCE5CA" transform="translate(284,360)"/>
<path d="M0 0 C2 2 2 2 2 5 C0.02 5 -1.96 5 -4 5 C-4 5.99 -4 6.98 -4 8 C-5.65 7.67 -7.3 7.34 -9 7 C-7.875 5 -7.875 5 -6 3 C-2.8125 2.75 -2.8125 2.75 0 3 C0 2.01 0 1.02 0 0 Z " fill="#FB7219" transform="translate(525,96)"/>
<path d="M0 0 C1.84187025 2.76280538 2.72248277 4.80707826 3.6875 7.9375 C3.95949219 8.79214844 4.23148437 9.64679688 4.51171875 10.52734375 C5.02075548 13.10510574 4.84888744 14.54449337 4 17 C1.52000933 14.52000933 1.45277898 13.04581838 0.875 9.625 C0.70742188 8.66851562 0.53984375 7.71203125 0.3671875 6.7265625 C0 4 0 4 0 0 Z " fill="#EB804A" transform="translate(476,67)"/>
<path d="M0 0 C1.32 0 2.64 0 4 0 C4 0.66 4 1.32 4 2 C4.66 2 5.32 2 6 2 C5.67 3.32 5.34 4.64 5 6 C2.83125748 5.49396008 1.00032373 5.00016187 -1 4 C-0.67 2.68 -0.34 1.36 0 0 Z " fill="#FB7815" transform="translate(456,39)"/>
<path d="M0 0 C0.99 0.495 0.99 0.495 2 1 C3.47180796 5.82425944 4.25376143 9.92477148 4 15 C3.01 15.495 3.01 15.495 2 16 C1.93941406 15.36191406 1.87882812 14.72382813 1.81640625 14.06640625 C1.73261719 13.24011719 1.64882813 12.41382813 1.5625 11.5625 C1.48128906 10.73878906 1.40007812 9.91507812 1.31640625 9.06640625 C1.21069185 7.01337975 1.21069185 7.01337975 0 6 C-0.04080783 4.00041636 -0.04254356 1.99954746 0 0 Z " fill="#4592E8" transform="translate(267,371)"/>
<path d="M0 0 C1.125 3.75 1.125 3.75 0 6 C-0.99 6.33 -1.98 6.66 -3 7 C-2.67 8.32 -2.34 9.64 -2 11 C-3.5 9.75 -3.5 9.75 -5 8 C-5 6.68 -5 5.36 -5 4 C-4.34 4 -3.68 4 -3 4 C-2.67 3.01 -2.34 2.02 -2 1 C-1.34 0.67 -0.68 0.34 0 0 Z " fill="#F2811A" transform="translate(25,289)"/>
<path d="M0 0 C1.73169596 3.1622274 2.7128976 6.26742722 3.625 9.75 C3.88539062 10.73484375 4.14578125 11.7196875 4.4140625 12.734375 C4.60742188 13.48203125 4.80078125 14.2296875 5 15 C4.01 14.67 3.02 14.34 2 14 C-0.2012966 9.24983365 -0.1765235 5.11918146 0 0 Z " fill="#F8E7D0" transform="translate(0,252)"/>
<path d="M0 0 C0.66 0 1.32 0 2 0 C2.28875 1.134375 2.5775 2.26875 2.875 3.4375 C3.24625 4.613125 3.6175 5.78875 4 7 C4.66 7.33 5.32 7.66 6 8 C6 8.99 6 9.98 6 11 C2.83884224 9.63016497 2.0072908 9.0109362 0 6 C-0.125 2.8125 -0.125 2.8125 0 0 Z " fill="#3283ED" transform="translate(489,74)"/>
<path d="M0 0 C0.66 0 1.32 0 2 0 C6.06153846 6.27692308 6.06153846 6.27692308 5.75 9.9375 C5.5025 10.618125 5.255 11.29875 5 12 C3.20931427 9.3139714 2.33944209 7.3373411 1.375 4.3125 C1.11460937 3.50425781 0.85421875 2.69601563 0.5859375 1.86328125 C0.39257812 1.24839844 0.19921875 0.63351563 0 0 Z " fill="#167DE5" transform="translate(600,68)"/>
<path d="M0 0 C0.66 0 1.32 0 2 0 C2.103125 0.969375 2.20625 1.93875 2.3125 2.9375 C2.94629879 7.48593839 4.44755827 11.69417104 6 16 C3.41889881 13.73701772 2.35070956 11.81995115 1.3125 8.5625 C1.06113281 7.80066406 0.80976563 7.03882813 0.55078125 6.25390625 C0 4 0 4 0 0 Z " fill="#E1883A" transform="translate(385,21)"/>
<path d="M0 0 C0 0.66 0 1.32 0 2 C-3.18824568 3.59412284 -6.62896662 3.10174735 -10.125 3.0625 C-10.87910156 3.05798828 -11.63320313 3.05347656 -12.41015625 3.04882812 C-14.27347127 3.03703499 -16.13674555 3.01909942 -18 3 C-18 2.67 -18 2.34 -18 2 C-17.24074219 1.93941406 -16.48148438 1.87882812 -15.69921875 1.81640625 C-14.70535156 1.73261719 -13.71148437 1.64882813 -12.6875 1.5625 C-11.70136719 1.48128906 -10.71523438 1.40007812 -9.69921875 1.31640625 C-6.20718379 0.90706496 -3.59803152 0 0 0 Z " fill="#2482DE" transform="translate(56,334)"/>
<path d="M0 0 C3.68646141 1.45855647 5.16143971 3.30229045 7.25 6.625 C8.03117188 7.85089844 8.03117188 7.85089844 8.828125 9.1015625 C9.21484375 9.72804688 9.6015625 10.35453125 10 11 C9.67 11.66 9.34 12.32 9 13 C6.204559 11.6022795 5.47112063 9.37337262 4.01953125 6.71484375 C2.9065693 4.84285028 1.57241848 3.49379755 0 2 C0 1.34 0 0.68 0 0 Z " fill="#EA8049" transform="translate(168,264)"/>
<path d="M0 0 C2 1 2 1 2.66796875 2.92578125 C2.83941406 3.71339844 3.01085937 4.50101563 3.1875 5.3125 C3.36667969 6.09238281 3.54585938 6.87226562 3.73046875 7.67578125 C4.01067443 10.09204759 3.74132137 11.70242952 3 14 C-0.44419134 4.58997722 -0.44419134 4.58997722 0 0 Z " fill="#2D80E7" transform="translate(481,55)"/>
<path d="M0 0 C3.96 0 7.92 0 12 0 C12.33 0.66 12.66 1.32 13 2 C8.05632546 3.20577428 4.79137588 2.6290678 0 1 C0 0.67 0 0.34 0 0 Z " fill="#2282FE" transform="translate(122,342)"/>
<path d="M0 0 C0.33 1.98 0.66 3.96 1 6 C-0.65 5.67 -2.3 5.34 -4 5 C-4 3.68 -4 2.36 -4 1 C-2 0 -2 0 0 0 Z " fill="#2983F1" transform="translate(168,305)"/>
<path d="M0 0 C0.33 1.65 0.66 3.3 1 5 C-1.97 5 -4.94 5 -8 5 C-3 0 -3 0 0 0 Z " fill="#2382E8" transform="translate(96,313)"/>
<path d="M0 0 C-0.33 0.99 -0.66 1.98 -1 3 C-3.97 3 -6.94 3 -10 3 C-6.39703375 -0.60296625 -4.75741099 -1.47643789 0 0 Z " fill="#2E82EB" transform="translate(129,297)"/>
<path d="M0 0 C3.98175544 2.10148204 6.35039045 4.36905358 9 8 C8.67 8.66 8.34 9.32 8 10 C3.125 6.375 3.125 6.375 2 3 C1.34 2.67 0.68 2.34 0 2 C0 1.34 0 0.68 0 0 Z " fill="#E48745" transform="translate(460,39)"/>
<path d="M0 0 C3.25 -0.3125 3.25 -0.3125 7 0 C9.4375 2.5 9.4375 2.5 11 5 C10.67 5.66 10.34 6.32 10 7 C9.278125 6.38125 8.55625 5.7625 7.8125 5.125 C5.21618062 3.16333647 3.05328334 2.04684 0 1 C0 0.67 0 0.34 0 0 Z " fill="#ABD7F8" transform="translate(459,24)"/>
<path d="M0 0 C2.24107496 2.88138209 4.33168894 5.74679343 6 9 C5.67 9.99 5.34 10.98 5 12 C0.57142857 4.71428571 0.57142857 4.71428571 0 0 Z " fill="#FEEFE3" transform="translate(198,329)"/>
<path d="M0 0 C-0.33 1.65 -0.66 3.3 -1 5 C-3.31 4.67 -5.62 4.34 -8 4 C-2.7826087 0 -2.7826087 0 0 0 Z " fill="#EE7F38" transform="translate(127,265)"/>
<path d="M0 0 C0.66 0 1.32 0 2 0 C4.4294516 3.6441774 4.16179575 5.71241272 4 10 C1.04816899 7.04816899 0.91336012 4.04488053 0 0 Z " fill="#FDEDDC" transform="translate(605,95)"/>
<path d="M0 0 C-0.33 1.32 -0.66 2.64 -1 4 C-1.66 3.67 -2.32 3.34 -3 3 C-3 3.66 -3 4.32 -3 5 C-3.99 5 -4.98 5 -6 5 C-5.6875 3.0625 -5.6875 3.0625 -5 1 C-2 0 -2 0 0 0 Z " fill="#EE8637" transform="translate(560,76)"/>
<path d="M0 0 C-2.51699845 2.51699845 -4.57554146 3.10964078 -8 4 C-10.375 3.625 -10.375 3.625 -12 3 C-7.77050005 0.58314288 -4.87664009 -0.34833144 0 0 Z " fill="#3581E4" transform="translate(518,83)"/>
<path d="M0 0 C2.78211944 0.37596209 4.5879284 0.67318459 6.8125 2.4375 C8 4 8 4 8 6 C4.08597051 4.73058503 2.20927127 3.48832306 0 0 Z " fill="#E38B3F" transform="translate(23,300)"/>
<path d="M0 0 C-0.5625 1.9375 -0.5625 1.9375 -2 4 C-5.625 4.75 -5.625 4.75 -9 5 C-7.36885863 1.73771726 -3.62038485 0 0 0 Z " fill="#E78540" transform="translate(101,279)"/>
<path d="M0 0 C-0.33 1.32 -0.66 2.64 -1 4 C-1.66 3.67 -2.32 3.34 -3 3 C-3.66 4.32 -4.32 5.64 -5 7 C-5.33 6.01 -5.66 5.02 -6 4 C-5.34 4 -4.68 4 -4 4 C-4 3.01 -4 2.02 -4 1 C-2 0 -2 0 0 0 Z " fill="#F37E2F" transform="translate(532,91)"/>
<path d="M0 0 C0.66 0 1.32 0 2 0 C0.75453595 3.73639216 -0.63404953 4.18756513 -4 6 C-4.66 5.34 -5.32 4.68 -6 4 C-3 2 -3 2 0 2 C0 1.34 0 0.68 0 0 Z " fill="#1A80EA" transform="translate(75,324)"/>
<path d="M0 0 C0.99 0.33 1.98 0.66 3 1 C3.6875 3.0625 3.6875 3.0625 4 5 C2.68 5.33 1.36 5.66 0 6 C0 4.02 0 2.04 0 0 Z " fill="#0280F0" transform="translate(595,53)"/>
</svg>
