<svg xmlns="http://www.w3.org/2000/svg" version="1.1" width="343" height="310">
<path d="M0 0 C0.66 0 1.32 0 2 0 C3.51219328 4.39230562 5.02380717 8.78481007 6.53491211 13.17749023 C7.04777834 14.66810333 7.56079581 16.1586644 8.07397461 17.64916992 C8.81665334 19.80633707 9.55876626 21.96369821 10.30078125 24.12109375 C10.52590897 24.77460312 10.75103668 25.42811249 10.98298645 26.10142517 C12.68663351 31.05732984 14.34765494 36.02678644 16 41 C16.55117699 42.6541107 17.10253384 44.30816147 17.65405273 45.9621582 C21.55847168 57.67541504 21.55847168 57.67541504 25.46289062 69.38867188 C25.95518661 70.86459305 25.95518661 70.86459305 26.45742798 72.37033081 C27.10334186 74.3093648 27.74771419 76.24891304 28.39047241 78.18899536 C29.67979214 82.07608277 30.97045267 85.95884596 32.36376953 89.81005859 C34.37327875 95.44217053 35.92705664 100.01568958 35 106 C33.36739501 108.52714263 31.97040486 110.36821844 29.9375 112.5 C29.43669922 113.05461914 28.93589844 113.60923828 28.41992188 114.18066406 C27.42003472 115.28671684 26.41284078 116.38621429 25.39794922 117.47851562 C23.52971736 119.51184097 21.7712237 121.63214972 20 123.75 C17.87712307 126.27622354 17.2382343 126.92058857 14 128 C14 128.66 14 129.32 14 130 C12.6015625 131.41015625 12.6015625 131.41015625 10.625 133.0625 C7.47821792 135.73066312 4.40792312 138.45308248 1.375 141.25 C-2.77547831 144.9938218 -7.05672198 148.53202545 -11.4375 152 C-12.04094238 152.48114258 -12.64438477 152.96228516 -13.26611328 153.45800781 C-15.83143242 155.46653033 -17.88445878 156.96148626 -21 158 C-21 158.66 -21 159.32 -21 160 C-21.99 160 -22.98 160 -24 160 C-24 160.66 -24 161.32 -24 162 C-26.125 163.515625 -26.125 163.515625 -29 165.25 C-32.35061845 167.31812571 -35.59608203 169.37410066 -38.6875 171.8125 C-42.74620473 174.93523509 -47.04454573 177.64976324 -51.375 180.375 C-52.09002686 180.8285083 -52.80505371 181.2820166 -53.54174805 181.74926758 C-58.75699667 185 -58.75699667 185 -61 185 C-61.309375 183.63875 -61.309375 183.63875 -61.625 182.25 C-63.08703668 178.79427693 -64.11463286 178.11531336 -67.171875 176.19628906 C-70.85037043 173.78915396 -74.23663584 170.96849957 -77.6875 168.25 C-84.36437549 163.02598797 -91.09953794 157.92629013 -98 153 C-100.89828008 150.92005782 -103.79345284 148.83582711 -106.6875 146.75 C-107.45932617 146.19393066 -108.23115234 145.63786133 -109.02636719 145.06494141 C-114.80603117 140.88966978 -120.52161904 136.63566301 -126.20581055 132.33154297 C-129.47151348 129.86650386 -132.75894886 127.44661361 -136.109375 125.09765625 C-136.76389648 124.63834717 -137.41841797 124.17903809 -138.09277344 123.70581055 C-139.33659444 122.83790626 -140.58448104 121.97579106 -141.83691406 121.12036133 C-143.25955029 120.12856751 -144.63545691 119.07031349 -146 118 C-146 117.34 -146 116.68 -146 116 C-146.598125 115.71125 -147.19625 115.4225 -147.8125 115.125 C-150 114 -150 114 -153 112 C-153 111.34 -153 110.68 -153 110 C-115.05 109.34 -77.1 108.68 -38 108 C-34.60654209 99.51684331 -34.60654209 99.51684331 -31.58203125 90.94140625 C-31.3673671 90.29453857 -31.15270294 89.6476709 -30.93153381 88.98120117 C-30.46624487 87.57785149 -30.00234964 86.17403907 -29.53973389 84.76980591 C-28.7918453 82.4998087 -28.04018083 80.23109134 -27.28759766 77.96264648 C-26.16036033 74.56405546 -25.03456652 71.16499083 -23.90966797 67.765625 C-20.62572522 57.8461245 -17.3260586 47.9318491 -14.0249939 38.01803589 C-12.88611582 34.59590115 -11.74926519 31.17309743 -10.61254883 27.75024414 C-9.90585037 25.62643534 -9.19906721 23.50265473 -8.4921875 21.37890625 C-8.16871841 20.40332764 -7.84524933 19.42774902 -7.51197815 18.42260742 C-7.05914711 17.06401611 -7.05914711 17.06401611 -6.59716797 15.67797852 C-6.20511673 14.49849388 -6.20511673 14.49849388 -5.80514526 13.29518127 C-4.18678952 8.68182767 -2.22688082 4.35253979 0 0 Z " fill="#FEFEFD" transform="translate(179,7)"/>
<path d="M0 0 C1.29099861 0.03014442 1.29099861 0.03014442 2.608078 0.06089783 C3.99571098 0.10145042 3.99571098 0.10145042 5.41137695 0.14282227 C6.36156204 0.16643326 7.31174713 0.19004425 8.29072571 0.21437073 C11.32718967 0.29097687 14.36339664 0.37501454 17.3996582 0.45922852 C19.45758831 0.51245224 21.51553099 0.56519262 23.57348633 0.61743164 C28.61987319 0.74658796 33.66604209 0.88240984 38.7121582 1.02172852 C37.76454349 2.15035239 36.81362726 3.2762048 35.86132812 4.40087891 C35.33214279 5.0281337 34.80295746 5.65538849 34.25773621 6.301651 C32.37483407 8.39713737 30.37981701 9.91977836 28.0246582 11.45922852 C23.22058921 14.66680113 18.58622952 18.05633706 13.9621582 21.51782227 C11.7121582 23.02172852 11.7121582 23.02172852 9.7121582 23.02172852 C9.7121582 23.68172852 9.7121582 24.34172852 9.7121582 25.02172852 C8.35980989 25.97161797 6.99791984 26.90959749 5.60229492 27.79467773 C1.8717854 30.21647324 -1.65392317 32.93596749 -5.2253418 35.58422852 C-6.92705941 36.84218348 -8.62888352 38.09999438 -10.33081055 39.35766602 C-11.17047363 39.97867188 -12.01013672 40.59967773 -12.87524414 41.23950195 C-16.85706009 44.18093653 -20.85008465 47.10700248 -24.84399414 50.03198242 C-28.01207319 52.35237464 -31.1775474 54.67617601 -34.33862305 57.00610352 C-35.00990234 57.50021729 -35.68118164 57.99433105 -36.37280273 58.50341797 C-37.64637669 59.44098852 -38.91922154 60.37955067 -40.19116211 61.31933594 C-40.77091797 61.74577393 -41.35067383 62.17221191 -41.94799805 62.61157227 C-42.50374512 63.0252002 -43.05949219 63.43882812 -43.63208008 63.86499023 C-45.2878418 65.02172852 -45.2878418 65.02172852 -48.65893555 66.90063477 C-51.56291848 68.8413903 -51.56291848 68.8413903 -52.3034668 72.27954102 C-52.28589156 76.48881105 -51.41761105 79.97086573 -50.0378418 83.89672852 C-49.81999023 84.55286133 -49.60213867 85.20899414 -49.37768555 85.88500977 C-48.93802589 87.20398872 -48.49216609 88.52091978 -48.03964233 89.83554077 C-45.2349548 97.99139224 -42.62063274 106.20695372 -40.0144043 114.42797852 C-39.60469253 115.71960673 -39.19497355 117.01123266 -38.7852478 118.30285645 C-37.92916233 121.00228167 -37.07366898 123.70189378 -36.21850586 126.40161133 C-35.35276685 129.13439092 -34.48588871 131.86680476 -33.61791992 134.59887695 C-25.35221442 160.61868571 -25.35221442 160.61868571 -22.1862793 171.17797852 C-21.80906738 172.43416992 -21.43185547 173.69036133 -21.04321289 174.98461914 C-20.2878418 178.02172852 -20.2878418 178.02172852 -20.2878418 182.02172852 C-24.80108769 180.51165752 -28.28912081 177.99291525 -32.0378418 175.14672852 C-33.37926261 174.14535116 -34.72175067 173.1454022 -36.06518555 172.14672852 C-37.10715088 171.37135742 -37.10715088 171.37135742 -38.17016602 170.58032227 C-41.60939151 168.04907768 -45.10383893 165.59793966 -48.6003418 163.14672852 C-55.55510791 158.26600748 -62.4515833 153.30945663 -69.3125 148.29760742 C-72.88673343 145.6991255 -76.44079391 143.21030497 -80.2878418 141.02172852 C-80.34842773 141.91375977 -80.40901367 142.80579102 -80.47143555 143.72485352 C-80.55522461 144.89532227 -80.63901367 146.06579102 -80.7253418 147.27172852 C-80.8471582 149.01196289 -80.8471582 149.01196289 -80.97143555 150.78735352 C-81.2878418 154.02172852 -81.2878418 154.02172852 -82.2878418 158.02172852 C-88.2278418 158.02172852 -94.1678418 158.02172852 -100.2878418 158.02172852 C-101.72944094 155.13853023 -101.45272135 152.58773687 -101.4987793 149.36938477 C-101.52684367 148.02236732 -101.55550811 146.67536226 -101.5847168 145.32836914 C-101.62600761 143.20410453 -101.66289328 141.08007237 -101.68920898 138.95556641 C-101.71680622 136.90551998 -101.76266797 134.85652612 -101.8112793 132.80688477 C-101.8410083 130.96429077 -101.8410083 130.96429077 -101.87133789 129.08447266 C-102.02990905 126.04779402 -102.02990905 126.04779402 -103.69262695 124.16015625 C-105.29904691 122.9513144 -105.29904691 122.9513144 -107.2878418 122.02172852 C-107.27784904 122.87617302 -107.27784904 122.87617302 -107.26765442 123.74787903 C-107.20136061 129.66861332 -107.15606612 135.58924245 -107.12304688 141.51025391 C-107.10794655 143.72090944 -107.0874647 145.93153495 -107.06152344 148.14208984 C-107.02519525 151.31688844 -107.00812796 154.49129149 -106.99487305 157.66625977 C-106.97938919 158.65696976 -106.96390533 159.64767975 -106.94795227 160.66841125 C-106.94772568 161.58913925 -106.94749908 162.50986725 -106.94726562 163.45849609 C-106.93727287 164.67428093 -106.93727287 164.67428093 -106.92707825 165.91462708 C-107.38011328 168.56065595 -108.15065621 169.43629162 -110.2878418 171.02172852 C-113.3190918 171.38500977 -113.3190918 171.38500977 -116.7878418 171.33422852 C-117.9325293 171.33036133 -119.0772168 171.32649414 -120.2565918 171.32250977 C-123.2878418 171.02172852 -123.2878418 171.02172852 -126.2878418 169.02172852 C-126.68368465 166.06348309 -126.89527713 163.30410919 -126.9753418 160.33422852 C-127.00805176 159.48151367 -127.04076172 158.62879883 -127.07446289 157.75024414 C-127.16536583 155.17418 -127.23185205 152.5987701 -127.2878418 150.02172852 C-127.30443848 149.30033691 -127.32103516 148.57894531 -127.33813477 147.83569336 C-127.49466973 139.83694997 -127.21308448 131.96890225 -126.2878418 124.02172852 C-128.862663 125.03089675 -128.862663 125.03089675 -131.2878418 127.02172852 C-132.60109094 132.98231827 -132.4709386 139.05439097 -132.53393555 145.13500977 C-132.56683646 147.29061336 -132.60004866 149.44621222 -132.63354492 151.60180664 C-132.6811702 154.98369479 -132.72570259 158.36555882 -132.76464844 161.74755859 C-132.80418248 165.02272919 -132.85572561 168.29753691 -132.90893555 171.57250977 C-132.9173497 172.59016922 -132.92576385 173.60782867 -132.93443298 174.65632629 C-132.95107498 175.59457748 -132.96771698 176.53282867 -132.98486328 177.49951172 C-132.99517075 178.32667191 -133.00547821 179.15383209 -133.01609802 180.00605774 C-133.2878418 182.02172852 -133.2878418 182.02172852 -135.2878418 184.02172852 C-138.44018555 184.28735352 -138.44018555 184.28735352 -142.2253418 184.27172852 C-143.47186523 184.27688477 -144.71838867 184.28204102 -146.00268555 184.28735352 C-149.2878418 184.02172852 -149.2878418 184.02172852 -152.2878418 182.02172852 C-152.5543288 178.97097768 -152.63541325 176.12546673 -152.58081055 173.07641602 C-152.5765657 172.19140411 -152.57232086 171.30639221 -152.56794739 170.39456177 C-152.55112439 167.56164407 -152.51346604 164.72943199 -152.4753418 161.89672852 C-152.46029962 159.97877002 -152.4466104 158.06080041 -152.43432617 156.14282227 C-152.40120907 151.43551821 -152.34940235 146.72874308 -152.2878418 142.02172852 C-158.07305024 146.06413102 -163.85375367 150.11206293 -169.6003418 154.20922852 C-170.18106445 154.62108398 -170.76178711 155.03293945 -171.36010742 155.45727539 C-173.99419605 157.3353657 -176.54327613 159.23696575 -179.01831055 161.32250977 C-181.2878418 163.02172852 -181.2878418 163.02172852 -184.2878418 163.02172852 C-184.2878418 163.68172852 -184.2878418 164.34172852 -184.2878418 165.02172852 C-186.23706055 166.43188477 -186.23706055 166.43188477 -188.9753418 168.08422852 C-194.14335096 171.26557442 -199.11824837 174.63995606 -204.04638672 178.17626953 C-208.07358666 181.02172852 -208.07358666 181.02172852 -210.2878418 181.02172852 C-209.79219274 173.02297823 -207.53481216 166.06404201 -204.9128418 158.52172852 C-204.51323242 157.3499707 -204.11362305 156.17821289 -203.7019043 154.97094727 C-202.92395448 152.69083777 -202.14187852 150.41213094 -201.35522461 148.13500977 C-200.19042619 144.73759224 -199.07155443 141.32706459 -197.97680664 137.90649414 C-195.93837575 132.33006379 -195.93837575 132.33006379 -192.4362793 130.67016602 C-191.19104492 130.24993164 -189.94581055 129.82969727 -188.6628418 129.39672852 C-187.20439077 128.88119639 -185.74744869 128.36138272 -184.29174805 127.83813477 C-183.49269043 127.55212402 -182.69363281 127.26611328 -181.87036133 126.97143555 C-156.9983256 117.82488431 -133.34190135 105.72443488 -111.2878418 91.02172852 C-105.37660425 92.05226856 -100.31717628 94.18523407 -94.94799805 96.79516602 C-93.79840858 97.34269028 -93.79840858 97.34269028 -92.62559509 97.90127563 C-90.19714756 99.05954507 -87.77364548 100.22774132 -85.3503418 101.39672852 C-82.9296151 102.55639285 -80.5079012 103.71396725 -78.08580017 104.87075806 C-76.58653495 105.58767347 -75.08821932 106.30657977 -73.59107971 107.02792358 C-68.53259922 109.4585977 -63.42713839 111.76716444 -58.2878418 114.02172852 C-57.97633061 107.38913626 -58.45637066 101.16807895 -59.6003418 94.64672852 C-59.73182617 93.89576904 -59.86331055 93.14480957 -59.9987793 92.37109375 C-60.27957464 90.77522918 -60.5608398 89.17944722 -60.8425293 87.58374023 C-61.64511065 82.96625738 -62.38852213 78.34150086 -63.1003418 73.70922852 C-63.24834229 72.81993652 -63.39634277 71.93064453 -63.54882812 71.0144043 C-64.77289548 62.897069 -64.77289548 62.897069 -62.2878418 59.02172852 C-60.35155234 56.97992697 -58.44920195 55.1271595 -56.3503418 53.27172852 C-55.76913574 52.74587158 -55.18792969 52.22001465 -54.58911133 51.67822266 C-51.03569455 48.4898431 -47.38979796 45.44402024 -43.6628418 42.45922852 C-32.75542368 33.66036652 -23.57479576 23.37100473 -15.3894043 12.02954102 C-14.64787109 11.00328613 -14.64787109 11.00328613 -13.89135742 9.95629883 C-12.92103594 8.60464229 -11.95850084 7.24735493 -11.00463867 5.8840332 C-7.66045724 1.195814 -5.69368296 -0.15027316 0 0 Z " fill="#FDFDFD" transform="translate(294.287841796875,116.978271484375)"/>
<path d="M0 0 C1.1080975 3.32429251 1 5.81931888 1 9.3125 C1.25093017 14.17068227 1.25093017 14.17068227 3.92578125 18.01171875 C5.50932964 18.99916873 7.12679504 19.93429069 8.7734375 20.8125 C12.62657881 22.8675087 14.3816154 25.73231158 16.25 29.5625 C19.41235153 44.05661119 14.27021696 57.54870888 7 70 C4.47823936 73.78520895 1.7861542 77.40618631 -1 81 C-1.60070312 81.78246094 -2.20140625 82.56492187 -2.8203125 83.37109375 C-3.96179278 84.84785187 -5.11000955 86.31943298 -6.265625 87.78515625 C-7.50132312 89.36317614 -8.71813919 90.95605928 -9.921875 92.55859375 C-10.54578125 93.38488281 -11.1696875 94.21117187 -11.8125 95.0625 C-12.37582031 95.81660156 -12.93914062 96.57070312 -13.51953125 97.34765625 C-14.00808594 97.89292969 -14.49664062 98.43820313 -15 99 C-15.66 99 -16.32 99 -17 99 C-17.20367187 99.52980469 -17.40734375 100.05960937 -17.6171875 100.60546875 C-19.60067006 104.04014336 -22.30120713 106.55310105 -25.125 109.3125 C-25.71539062 109.89499512 -26.30578125 110.47749023 -26.9140625 111.07763672 C-31.14121997 115.22252221 -35.46771235 119.19060411 -40 123 C-41.10237474 123.95348882 -42.20385572 124.90801145 -43.3046875 125.86328125 C-44.49448708 126.88837447 -45.68459252 127.91311278 -46.875 128.9375 C-47.44734375 129.43523926 -48.0196875 129.93297852 -48.609375 130.44580078 C-52.77233198 134 -52.77233198 134 -55 134 C-55.37252529 141.36873188 -53.94477422 148.11996333 -52.4375 155.3125 C-51.95001394 157.64046866 -51.4692102 159.96984977 -50.99609375 162.30078125 C-50.78138428 163.32341064 -50.5666748 164.34604004 -50.34545898 165.3996582 C-50 168 -50 168 -51 171 C-56.75481779 169.99038284 -61.97205406 168.33120293 -67.375 166.125 C-68.01953125 165.86315918 -68.6640625 165.60131836 -69.328125 165.33154297 C-72.29290666 164.12132148 -75.24932947 162.89466667 -78.19921875 161.6484375 C-83.5046843 159.47577606 -83.5046843 159.47577606 -89.125 159.375 C-92.24012406 161.13572229 -95.14975744 163.0875205 -98.09765625 165.11328125 C-130.55651083 186.21372104 -175.59442499 208.9187199 -215.3125 207.9375 C-226.24645356 207.9051829 -235.19919077 210.19090971 -245.33935547 214.05517578 C-247.20737501 214.75595033 -249.10226106 215.3842331 -251 216 C-251.66 215.67 -252.32 215.34 -253 215 C-252.855625 213.99839844 -252.71125 212.99679688 -252.5625 211.96484375 C-252.37474993 210.62243078 -252.18726406 209.27998085 -252 207.9375 C-251.90460938 207.28072266 -251.80921875 206.62394531 -251.7109375 205.94726562 C-250.84983609 199.70428037 -250.57219747 194.10878049 -252.1875 188 C-254.79681884 174.1781734 -248.25721714 161.0721823 -240.90625 149.78515625 C-237.92964541 145.55904413 -235.30672361 141.93162782 -231 139 C-231.4375 140.3125 -231.875 141.625 -232.3125 142.9375 C-232.58320313 143.76636719 -232.85390625 144.59523437 -233.1328125 145.44921875 C-233.66985297 147.02889185 -234.24170984 148.59774191 -234.8671875 150.14453125 C-237.47976768 156.85015371 -238.87024584 165.16853159 -236.203125 172.05859375 C-235.10552019 173.84768376 -235.10552019 173.84768376 -233 176 C-232.54238281 176.51046875 -232.08476562 177.0209375 -231.61328125 177.546875 C-226.17254602 182.44748881 -216.98052303 183 -210 183 C-167.07225904 180.23604082 -123.01194491 158.82040944 -88.99609375 133.2421875 C-86.50878329 131.38075829 -84.00149669 129.56183266 -81.47265625 127.7578125 C-80.66441406 127.18015137 -79.85617188 126.60249023 -79.0234375 126.00732422 C-77.41434517 124.85829182 -75.80372818 123.71139076 -74.19140625 122.56689453 C-73.07765625 121.76807861 -73.07765625 121.76807861 -71.94140625 120.953125 C-71.27826416 120.48036133 -70.61512207 120.00759766 -69.93188477 119.52050781 C-67.77915555 117.82618233 -65.93633668 115.93679357 -64 114 C-62.33009294 112.62641876 -60.64528414 111.27083522 -58.94921875 109.9296875 C-52.87889193 104.99962636 -47.32902097 99.66082301 -41.8125 94.125 C-40.87986328 93.20847656 -39.94722656 92.29195313 -38.98632812 91.34765625 C-32.95226515 85.31783365 -27.78569652 79.0583137 -23 72 C-22.28328125 70.94425781 -21.5665625 69.88851562 -20.828125 68.80078125 C-14.27921412 58.47489948 -6.99253497 46.78316812 -9 34 C-10.55934452 28.56681218 -13.30057366 24.82140095 -18.23046875 22.03125 C-24.54562203 19.67976838 -31.35352091 18.92899651 -38 18 C-38 17.34 -38 16.68 -38 16 C-36.92363281 15.82726562 -35.84726563 15.65453125 -34.73828125 15.4765625 C-24.86937562 13.66045699 -18.34977204 10.89973887 -10.734375 4.33984375 C-4.07529035 -1.35843012 -4.07529035 -1.35843012 0 0 Z " fill="#FDFCFC" transform="translate(271,36)"/>
<path d="M0 0 C0.99 0.495 0.99 0.495 2 1 C1.01 1.495 1.01 1.495 0 2 C0 1.34 0 0.68 0 0 Z " fill="#E2E2E2" transform="translate(40,173)"/>
</svg>